<?xml version="1.0" encoding="iso-8859-1"?>
<!-- Generator: Adobe Illustrator 19.0.0, SVG Export Plug-In . SVG Version: 6.00 Build 0)  -->
<svg version="1.1" id="Capa_1" xmlns="http://www.w3.org/2000/svg" xmlns:xlink="http://www.w3.org/1999/xlink" x="0px" y="0px"
	 viewBox="0 0 512 512" style="enable-background:new 0 0 512 512;" xml:space="preserve">
<polygon style="fill:#114378;" points="445.757,0 256,0 235.984,180.301 256,384.934 445.757,360.602 "/>
<path style="fill:#266CB2;" d="M114.908,0C88.031,0,66.244,21.788,66.244,48.664v360.602L256,384.934V0H114.908z"/>
<polygon style="fill:#80C9FF;" points="445.757,360.602 256,360.602 235.984,409.265 256,457.929 445.757,457.929 "/>
<path style="fill:#CCF0FF;" d="M114.907,360.602c-26.876,0-48.664,21.787-48.664,48.664l0,0c0,26.876,21.787,48.664,48.664,48.664
	H256v-97.327H114.907V360.602z"/>
<path style="fill:#B3E4FF;" d="M271,262.856c11.992-2.174,23.102-6.894,32.749-13.594l18.076,18.076l21.213-21.214l-18.076-18.076
	c6.7-9.647,11.42-20.757,13.594-32.748h25.534v-30h-25.534c-2.174-11.992-6.894-23.102-13.594-32.748l18.076-18.076l-21.213-21.214
	l-18.076,18.076c-9.647-6.7-20.757-11.42-32.749-13.594V72.211h-15L245.992,110L256,126.376c29.734,0,53.925,24.19,53.925,53.925
	s-24.19,53.925-53.925,53.925L245.992,249.5L256,288.391h15V262.856z"/>
<path style="fill:#EDF0FF;" d="M202.076,180.301c0-29.734,24.19-53.925,53.925-53.925V72.211h-15v25.534
	c-11.992,2.174-23.102,6.894-32.749,13.594l-18.076-18.076l-21.213,21.214l18.076,18.076c-6.7,9.647-11.42,20.757-13.594,32.748
	H147.91v30h25.534c2.174,11.992,6.894,23.102,13.594,32.748l-18.076,18.076l21.213,21.214l18.076-18.076
	c9.647,6.7,20.757,11.42,32.749,13.594v25.534h15v-54.165C226.267,234.226,202.076,210.035,202.076,180.301z"/>
<polygon style="fill:#FF6E83;" points="225.977,512 182.719,492.534 139.464,512 139.464,409.265 225.977,409.265 "/>
<g>
</g>
<g>
</g>
<g>
</g>
<g>
</g>
<g>
</g>
<g>
</g>
<g>
</g>
<g>
</g>
<g>
</g>
<g>
</g>
<g>
</g>
<g>
</g>
<g>
</g>
<g>
</g>
<g>
</g>
</svg>
