<?xml version="1.0" encoding="UTF-8"?>
<svg width="143px" height="129px" viewBox="0 0 143 129" version="1.1" xmlns="http://www.w3.org/2000/svg" xmlns:xlink="http://www.w3.org/1999/xlink">
    <!-- Generator: Sketch 49.2 (51160) - http://www.bohemiancoding.com/sketch -->
    <title>Group 8</title>
    <desc>Created with Sketch.</desc>
    <defs>
        <polygon id="path-1" points="0 135 152 135 152 0 0 0"></polygon>
    </defs>
    <g id="Page-1" stroke="none" stroke-width="1" fill="none" fill-rule="evenodd">
        <g id="Desktop-HD" transform="translate(-1049.000000, -594.000000)">
            <g id="Group-8" transform="translate(1046.000000, 591.000000)">
                <g id="Page-3">
                    <path d="M136.6816,110.9965 L136.6816,122.9915" id="Stroke-86" stroke="#D8D9E0" stroke-width="4.758" stroke-linecap="round" stroke-linejoin="round"></path>
                    <g id="Group-117">
                        <path d="M16.772,16.2426 C16.772,19.1576 14.41,21.5196 11.493,21.5196 C8.579,21.5196 6.217,19.1576 6.217,16.2426 C6.217,13.3296 8.579,10.9666 11.493,10.9666 C14.41,10.9666 16.772,13.3296 16.772,16.2426 Z" id="Stroke-89" stroke="#D8D9E0" stroke-width="4.758" stroke-linecap="round" stroke-linejoin="round"></path>
                        <path d="M119.2456,128.1576 C119.2456,129.9366 117.8036,131.3796 116.0236,131.3796 C114.2446,131.3796 112.8026,129.9366 112.8026,128.1576 C112.8026,126.3786 114.2446,124.9356 116.0236,124.9356 C117.8036,124.9356 119.2456,126.3786 119.2456,128.1576" id="Fill-91" fill="#D8D9E0"></path>
                        <path d="M14.8008,51.2055 C14.8008,52.9835 13.3598,54.4275 11.5808,54.4275 C9.7998,54.4275 8.3578,52.9835 8.3578,51.2055 C8.3578,49.4265 9.7998,47.9835 11.5808,47.9835 C13.3598,47.9835 14.8008,49.4265 14.8008,51.2055" id="Fill-93" fill="#D8D9E0"></path>
                        <path d="M145.7832,92.4721 C145.7832,94.2511 144.3412,95.6941 142.5612,95.6941 C140.7822,95.6941 139.3392,94.2511 139.3392,92.4721 C139.3392,90.6931 140.7822,89.2501 142.5612,89.2501 C144.3412,89.2501 145.7832,90.6931 145.7832,92.4721" id="Fill-95" fill="#D8D9E0"></path>
                        <path d="M40.6943,6.8422 C40.6943,8.6212 39.2523,10.0642 37.4723,10.0642 C35.6933,10.0642 34.2513,8.6212 34.2513,6.8422 C34.2513,5.0632 35.6933,3.6202 37.4723,3.6202 C39.2523,3.6202 40.6943,5.0632 40.6943,6.8422" id="Fill-97" fill="#D8D9E0"></path>
                        <path d="M117.5322,112.3735 L39.0692,112.3735 C35.3012,112.3735 32.2452,109.3175 32.2452,105.5505 L32.2452,98.7275 C32.2452,94.9595 35.3012,91.9045 39.0692,91.9045 L117.5322,91.9045 C119.4182,91.9045 120.9442,90.3785 120.9442,88.4925 C120.9442,86.6075 119.4182,85.0815 117.5322,85.0815 L32.2452,85.0815 C28.4782,85.0815 25.4232,88.1365 25.4232,91.9045 L25.4232,112.3735 C25.4232,116.1415 28.4782,119.1955 32.2452,119.1955 L117.5322,119.1955 C119.4182,119.1955 120.9442,117.6705 120.9442,115.7845 C120.9442,113.8985 119.4182,112.3735 117.5322,112.3735" id="Fill-99" fill="#E535AB"></path>
                        <mask id="mask-2" fill="white">
                            <use xlink:href="#path-1"></use>
                        </mask>
                        <g id="Clip-102"></g>
                        <polygon id="Fill-101" fill="#D8D9E0" mask="url(#mask-2)" points="32.246 102.139 117.533 102.139 117.533 98.727 32.246 98.727"></polygon>
                        <path d="M39.0688,91.9047 C36.5498,91.9047 34.3748,93.2837 33.1918,95.3157 L117.5318,95.3157 L117.5318,91.9047 L39.0688,91.9047 Z" id="Fill-103" fill="#D8D9E0" mask="url(#mask-2)"></path>
                        <path d="M33.1919,108.9613 L117.5319,108.9613 L117.5319,105.5503 L32.2459,105.5503 C32.2459,106.7993 32.6059,107.9553 33.1919,108.9613" id="Fill-104" fill="#D8D9E0" mask="url(#mask-2)"></path>
                        <path d="M42.48,57.7895 L120.944,57.7895 C124.712,57.7895 127.767,60.8445 127.767,64.6125 L127.767,71.4355 C127.767,75.2035 124.712,78.2585 120.944,78.2585 L42.48,78.2585 C40.594,78.2585 39.069,79.7845 39.069,81.6705 C39.069,83.5565 40.594,85.0815 42.48,85.0815 L127.767,85.0815 C131.535,85.0815 134.59,82.0265 134.59,78.2585 L134.59,57.7895 C134.59,54.0215 131.535,50.9675 127.767,50.9675 L42.48,50.9675 C40.594,50.9675 39.069,52.4925 39.069,54.3785 C39.069,56.2645 40.594,57.7895 42.48,57.7895" id="Fill-105" fill="#747790" mask="url(#mask-2)"></path>
                        <polygon id="Fill-106" fill="#D8D9E0" mask="url(#mask-2)" points="42.48 71.436 127.767 71.436 127.767 68.024 42.48 68.024"></polygon>
                        <path d="M120.9438,78.2582 C123.4628,78.2582 125.6378,76.8792 126.8198,74.8472 L42.4798,74.8472 L42.4798,78.2582 L120.9438,78.2582 Z" id="Fill-107" fill="#D8D9E0" mask="url(#mask-2)"></path>
                        <path d="M127.7666,64.6127 C127.7666,63.3637 127.4066,62.2077 126.8206,61.2017 L42.4796,61.2017 L42.4796,64.6127" id="Fill-108" fill="#D8D9E0" mask="url(#mask-2)"></path>
                        <path d="M124.3555,44.1371 L45.8915,44.1371 C42.1235,44.1371 39.0685,41.0821 39.0685,37.3151 L39.0685,30.4911 C39.0685,26.7231 42.1235,23.6681 45.8915,23.6681 L124.3555,23.6681 C126.2405,23.6681 127.7665,22.1431 127.7665,20.2571 C127.7665,18.3711 126.2405,16.8451 124.3555,16.8451 L39.0685,16.8451 C35.3005,16.8451 32.2455,19.9011 32.2455,23.6681 L32.2455,44.1371 C32.2455,47.9061 35.3005,50.9601 39.0685,50.9601 L124.3555,50.9601 C126.2405,50.9601 127.7665,49.4341 127.7665,47.5491 C127.7665,45.6631 126.2405,44.1371 124.3555,44.1371" id="Fill-109" fill="#14CBC4" mask="url(#mask-2)"></path>
                        <path d="M45.8916,23.6684 C42.1236,23.6684 39.0686,26.7234 39.0686,30.4914 L39.0686,37.3144 C39.0686,41.0824 42.1236,44.1374 45.8916,44.1374 L124.3556,44.1374 L124.3556,23.6684 L45.8916,23.6684 Z" id="Fill-110" fill="#FFFFFF" mask="url(#mask-2)"></path>
                        <polygon id="Fill-111" fill="#D8D9E0" mask="url(#mask-2)" points="39.069 33.903 124.356 33.903 124.356 30.492 39.069 30.492"></polygon>
                        <path d="M45.8916,23.6684 C43.3726,23.6684 41.1976,25.0484 40.0146,27.0804 L124.3556,27.0804 L124.3556,23.6684 L45.8916,23.6684 Z" id="Fill-112" fill="#D8D9E0" mask="url(#mask-2)"></path>
                        <path d="M40.0146,40.726 L124.3556,40.726 L124.3556,37.315 L39.0686,37.315 C39.0686,38.564 39.4286,39.72 40.0146,40.726" id="Fill-113" fill="#D8D9E0" mask="url(#mask-2)"></path>
                        <polygon id="Fill-114" fill="#220A82" mask="url(#mask-2)" points="49.3032 40.7328 49.3032 68.0238 54.4202 64.6128 59.5372 68.0238 59.5372 40.7328"></polygon>
                        <polygon id="Fill-115" fill="#000000" mask="url(#mask-2)" points="49.3032 68.0238 49.3032 71.4358 54.4202 68.0238 59.5372 71.4358 59.5372 68.0238 54.4202 64.6128"></polygon>
                        <polygon id="Fill-116" fill="#000000" mask="url(#mask-2)" points="54.4204 64.6127 56.1264 65.7487 56.1264 40.7327 52.7144 40.7327 52.7144 65.7487"></polygon>
                    </g>
                </g>
            </g>
        </g>
    </g>
</svg>