<?xml version="1.0" encoding="UTF-8"?>
<svg width="151px" height="145px" viewBox="0 0 151 145" version="1.1" xmlns="http://www.w3.org/2000/svg" xmlns:xlink="http://www.w3.org/1999/xlink">
    <!-- Generator: Sketch 49.2 (51160) - http://www.bohemiancoding.com/sketch -->
    <title>Group 3</title>
    <desc>Created with Sketch.</desc>
    <defs></defs>
    <g id="Page-1" stroke="none" stroke-width="1" fill="none" fill-rule="evenodd">
        <g id="Desktop-HD" transform="translate(-191.000000, -591.000000)">
            <g id="Group-3" transform="translate(191.000000, 581.000000)">
                <g id="Page-1">
                    <polygon id="Stroke-1" stroke="#747790" stroke-width="4.574" points="108.0107 61.0328 66.8477 61.0328 66.8477 138.7858 121.7317 138.7858 121.7317 74.7538"></polygon>
                    <polyline id="Stroke-2" stroke="#747790" stroke-width="4.574" points="108.0107 61.0328 108.0107 74.7538 121.7317 74.7538"></polyline>
                    <g id="Group-7" transform="translate(37.000000, 31.000000)" fill="#14CBC4">
                        <polygon id="Fill-3" points="45.8555 0.3043 0.1185 0.3043 0.1185 82.6303 32.1345 82.6303 32.1345 32.3203 59.5765 32.3203 59.5765 14.0253"></polygon>
                        <polygon id="Fill-5" points="59.5762 14.025 45.8552 14.025 45.8552 0.304"></polygon>
                    </g>
                    <polyline id="Stroke-8" stroke="#747790" stroke-width="4.574" points="39.4058 125.064 39.4058 138.786 53.1268 138.786"></polyline>
                    <polyline id="Stroke-9" stroke="#747790" stroke-width="4.574" points="121.7314 47.3121 121.7314 33.5911 108.0104 33.5911"></polyline>
                    <path d="M73.708,83.9014 L114.871,83.9014" id="Stroke-10" stroke="#E535AB" stroke-width="4.574"></path>
                    <path d="M73.708,93.0489 L114.871,93.0489" id="Stroke-11" stroke="#220A82" stroke-width="4.574"></path>
                    <path d="M73.708,102.1959 L114.871,102.1959" id="Stroke-12" stroke="#B1197F" stroke-width="4.574"></path>
                    <path d="M73.708,111.3433 L114.871,111.3433" id="Stroke-13" stroke="#14CBC4" stroke-width="4.574"></path>
                    <path d="M73.708,120.4908 L114.871,120.4908" id="Stroke-14" stroke="#E535AB" stroke-width="4.574"></path>
                    <path d="M73.708,129.6383 L114.871,129.6383" id="Stroke-15" stroke="#220A82" stroke-width="4.574"></path>
                    <path d="M73.708,74.754 L78.282,74.754" id="Stroke-16" stroke="#220A82" stroke-width="4.574"></path>
                    <path d="M82.8555,74.754 L87.4295,74.754" id="Stroke-17" stroke="#6C747A" stroke-width="4.574"></path>
                    <path d="M92.0029,74.754 L96.5759,74.754" id="Stroke-18" stroke="#14CBC4" stroke-width="4.574"></path>
                    <path d="M144.145,130.2818 L144.468,139.4288" id="Stroke-19" stroke="#D8D9E0" stroke-width="4.045" stroke-linecap="round" stroke-linejoin="round"></path>
                    <g id="Group-24" transform="translate(104.000000, 12.000000)" stroke="#D8D9E0" stroke-linecap="round" stroke-linejoin="round" stroke-width="4.045">
                        <path d="M35.7339,123.0181 L44.8799,122.6951" id="Stroke-20"></path>
                        <path d="M0.562,0.4229 L0.562,7.0919" id="Stroke-22"></path>
                    </g>
                    <path d="M101.228,15.7589 L107.897,15.7589" id="Stroke-25" stroke="#D8D9E0" stroke-width="4.045" stroke-linecap="round" stroke-linejoin="round"></path>
                    <g id="Group-34" transform="translate(0.000000, 47.000000)">
                        <path d="M19.0034,5.1109 C19.0034,7.8599 16.7784,10.0849 14.0304,10.0849 C11.2824,10.0849 9.0564,7.8599 9.0564,5.1109 C9.0564,2.3649 11.2824,0.1379 14.0304,0.1379 C16.7784,0.1379 19.0034,2.3649 19.0034,5.1109 Z" id="Stroke-26" stroke="#D8D9E0" stroke-width="4.045" stroke-linecap="round" stroke-linejoin="round"></path>
                        <path d="M27.5234,104.7437 C27.5754,106.2557 26.3924,107.5227 24.8804,107.5747 C23.3684,107.6277 22.1014,106.4437 22.0484,104.9317 C21.9974,103.4207 23.1804,102.1527 24.6924,102.1007 C26.2044,102.0497 27.4714,103.2317 27.5234,104.7437" id="Fill-28" fill="#D8D9E0"></path>
                        <path d="M142.2104,55.6075 C142.2104,57.1195 140.9844,58.3465 139.4714,58.3465 C137.9594,58.3465 136.7324,57.1195 136.7324,55.6075 C136.7324,54.0945 137.9594,52.8685 139.4714,52.8685 C140.9844,52.8685 142.2104,54.0945 142.2104,55.6075" id="Fill-30" fill="#D8D9E0"></path>
                        <path d="M5.3755,45.6568 C5.3755,47.1078 4.1995,48.2838 2.7495,48.2838 C1.2975,48.2838 0.1205,47.1078 0.1205,45.6568 C0.1205,44.2048 1.2975,43.0288 2.7495,43.0288 C4.1995,43.0288 5.3755,44.2048 5.3755,45.6568" id="Fill-32" fill="#D8D9E0"></path>
                    </g>
                </g>
            </g>
        </g>
    </g>
</svg>