<?xml version="1.0" encoding="UTF-8"?>
<svg width="140px" height="113px" viewBox="0 0 140 113" version="1.1" xmlns="http://www.w3.org/2000/svg" xmlns:xlink="http://www.w3.org/1999/xlink">
    <!-- Generator: Sketch 49.2 (51160) - http://www.bohemiancoding.com/sketch -->
    <title>Group 5</title>
    <desc>Created with Sketch.</desc>
    <defs></defs>
    <g id="Page-1" stroke="none" stroke-width="1" fill="none" fill-rule="evenodd">
        <g id="Desktop-HD" transform="translate(-620.000000, -611.000000)">
            <g id="Group-5" transform="translate(620.000000, 598.000000)">
                <g id="Page-2">
                    <path d="M8.1196,41.2973 L8.1196,51.6723" id="Stroke-36" stroke="#D8D9E0" stroke-width="4.116" stroke-linecap="round" stroke-linejoin="round"></path>
                    <path d="M2.9341,46.4858 L13.3081,46.4858" id="Stroke-37" stroke="#D8D9E0" stroke-width="4.116" stroke-linecap="round" stroke-linejoin="round"></path>
                    <g id="Group-84" transform="translate(0.000000, 16.000000)">
                        <path d="M130.27,72.0922 C130.27,74.6142 128.227,76.6572 125.704,76.6572 C123.184,76.6572 121.14,74.6142 121.14,72.0922 C121.14,69.5732 123.184,67.5292 125.704,67.5292 C128.227,67.5292 130.27,69.5732 130.27,72.0922 Z" id="Stroke-38" stroke="#D8D9E0" stroke-width="4.116" stroke-linecap="round" stroke-linejoin="round"></path>
                        <path d="M6.4614,57.81 C6.4614,59.349 5.2134,60.597 3.6744,60.597 C2.1354,60.597 0.8884,59.349 0.8884,57.81 C0.8884,56.271 2.1354,55.024 3.6744,55.024 C5.2134,55.024 6.4614,56.271 6.4614,57.81" id="Fill-40" fill="#D8D9E0"></path>
                        <path d="M139.1118,51.1069 C139.1118,52.6449 137.8648,53.8929 136.3258,53.8929 C134.7858,53.8929 133.5388,52.6449 133.5388,51.1069 C133.5388,49.5669 134.7858,48.3199 136.3258,48.3199 C137.8648,48.3199 139.1118,49.5669 139.1118,51.1069" id="Fill-42" fill="#D8D9E0"></path>
                        <path d="M22.7036,47.0785 C22.7036,48.6175 21.4556,49.8655 19.9166,49.8655 C18.3776,49.8655 17.1306,48.6175 17.1306,47.0785 C17.1306,45.5395 18.3776,44.2925 19.9166,44.2925 C21.4556,44.2925 22.7036,45.5395 22.7036,47.0785" id="Fill-44" fill="#D8D9E0"></path>
                        <path d="M125.2109,41.0873 C125.2109,42.6263 123.9629,43.8743 122.4239,43.8743 C120.8849,43.8743 119.6379,42.6263 119.6379,41.0873 C119.6379,39.5483 120.8849,38.3013 122.4239,38.3013 C123.9629,38.3013 125.2109,39.5483 125.2109,41.0873" id="Fill-46" fill="#D8D9E0"></path>
                        <path d="M46.4717,28.2416 L88.3547,28.2416" id="Stroke-48" stroke="#747790" stroke-width="4.654"></path>
                        <path d="M39.4912,56.1635 L95.3352,56.1635" id="Stroke-50" stroke="#747790" stroke-width="4.654"></path>
                        <path d="M39.4912,65.4711 L95.3352,65.4711" id="Stroke-52" stroke="#747790" stroke-width="4.654"></path>
                        <polygon id="Fill-54" fill="#E535AB" points="74.3936 109.6801 67.4136 105.0271 60.4326 109.6801 60.4326 91.0661 74.3936 91.0661"></polygon>
                        <polygon id="Fill-56" fill="#14CBC4" points="39.491 49.183 95.335 49.183 95.335 35.222 39.491 35.222"></polygon>
                        <path d="M111.2231,3.0463 C109.4051,1.2283 107.0241,0.3193 104.6421,0.3193 L39.4911,0.3193 C44.6311,0.3193 48.7991,4.4863 48.7991,9.6263 C48.7991,14.7673 44.6311,18.9343 39.4911,18.9343 L104.6421,18.9343 C107.0241,18.9343 109.4051,18.0253 111.2231,16.2073 C113.0411,14.3903 113.9501,12.0083 113.9501,9.6263 C113.9501,7.2453 113.0411,4.8633 111.2231,3.0463 Z" id="Stroke-58" stroke="#747790" stroke-width="4.654"></path>
                        <path d="M30.1841,84.0854 L20.8771,84.0854 C15.7371,84.0854 11.5691,88.2524 11.5691,93.3934 C11.5691,98.5324 15.7371,102.6994 20.8771,102.6994" id="Stroke-60" stroke="#747790" stroke-width="4.654"></path>
                        <path d="M79.0474,102.6996 L95.3354,102.6996 C97.7164,102.6996 100.0984,101.7916 101.9154,99.9726 C103.7344,98.1556 104.6424,95.7736 104.6424,93.3926 L104.6424,25.9146" id="Stroke-62" stroke="#747790" stroke-width="4.654"></path>
                        <path d="M55.7793,102.6996 L20.8773,102.6996 C23.2583,102.6996 25.6403,101.7916 27.4583,99.9726 C29.2753,98.1556 30.1843,95.7736 30.1843,93.3926 L30.1843,9.6266 C30.1843,7.2456 31.0923,4.8636 32.9093,3.0466 C34.7273,1.2276 37.1103,0.3196 39.4913,0.3196" id="Stroke-64" stroke="#747790" stroke-width="4.654"></path>
                        <path d="M69.7402,9.6264 L74.3932,9.6264" id="Stroke-66" stroke="#747790" stroke-width="4.654"></path>
                        <path d="M79.0474,9.6264 L83.7014,9.6264" id="Stroke-68" stroke="#747790" stroke-width="4.654"></path>
                        <path d="M88.355,9.6264 L93.008,9.6264" id="Stroke-70" stroke="#747790" stroke-width="4.654"></path>
                        <path d="M83.7012,84.0854 L88.3552,84.0854" id="Stroke-72" stroke="#747790" stroke-width="4.654"></path>
                        <path d="M46.4717,84.0854 L51.1257,84.0854" id="Stroke-74" stroke="#747790" stroke-width="4.654"></path>
                        <path d="M76.6128,82.0434 L78.6358,80.8754 L75.8058,75.9734 L73.7658,77.1484 C72.7648,76.2324 71.5688,75.5514 70.2438,75.1294 L70.2438,72.7634 L64.5828,72.7634 L64.5828,75.1294 C63.2578,75.5514 62.0618,76.2324 61.0608,77.1484 L59.0208,75.9734 L56.1898,80.8754 L58.2138,82.0434 C57.9008,83.4544 57.8988,84.7114 58.2138,86.1284 L56.1938,87.2954 L59.0248,92.1974 L61.0608,91.0234 C62.0618,91.9384 63.2578,92.6214 64.5828,93.0414 L64.5828,95.4074 L70.2438,95.4074 L70.2438,93.0414 C71.5688,92.6214 72.7648,91.9384 73.7658,91.0234 L75.8018,92.1974 L78.6328,87.2954 L76.6128,86.1284 C76.9278,84.7114 76.9258,83.4544 76.6128,82.0434" id="Fill-76" fill="#FFFFFF"></path>
                        <path d="M76.6128,82.0434 L78.6358,80.8754 L75.8058,75.9734 L73.7658,77.1484 C72.7648,76.2324 71.5688,75.5514 70.2438,75.1294 L70.2438,72.7634 L64.5828,72.7634 L64.5828,75.1294 C63.2578,75.5514 62.0618,76.2324 61.0608,77.1484 L59.0208,75.9734 L56.1898,80.8754 L58.2138,82.0434 C57.9008,83.4544 57.8988,84.7114 58.2138,86.1284 L56.1938,87.2954 L59.0248,92.1974 L61.0608,91.0234 C62.0618,91.9384 63.2578,92.6214 64.5828,93.0414 L64.5828,95.4074 L70.2438,95.4074 L70.2438,93.0414 C71.5688,92.6214 72.7648,91.9384 73.7658,91.0234 L75.8018,92.1974 L78.6328,87.2954 L76.6128,86.1284 C76.9278,84.7114 76.9258,83.4544 76.6128,82.0434 Z" id="Stroke-78" stroke="#220A82" stroke-width="2.327" stroke-linecap="round" stroke-linejoin="round"></path>
                        <path d="M71.1875,84.0854 C71.1875,86.1694 69.4975,87.8594 67.4135,87.8594 C65.3295,87.8594 63.6395,86.1694 63.6395,84.0854 C63.6395,82.0014 65.3295,80.3114 67.4135,80.3114 C69.4975,80.3114 71.1875,82.0014 71.1875,84.0854" id="Fill-80" fill="#FFFFFF"></path>
                        <path d="M71.1875,84.0854 C71.1875,86.1694 69.4975,87.8594 67.4135,87.8594 C65.3295,87.8594 63.6395,86.1694 63.6395,84.0854 C63.6395,82.0014 65.3295,80.3114 67.4135,80.3114 C69.4975,80.3114 71.1875,82.0014 71.1875,84.0854 Z" id="Stroke-82" stroke="#220A82" stroke-width="2.327" stroke-linecap="round" stroke-linejoin="round"></path>
                    </g>
                </g>
            </g>
        </g>
    </g>
</svg>