<svg xmlns="http://www.w3.org/2000/svg" width="102" height="23.25" viewBox="0 0 102 23.25">
  <defs>
    <style>
      .cls-1 {
        fill: #999;
        fill-rule: evenodd;
      }
    </style>
  </defs>
  <path class="cls-1" d="M580.255,72.216a6.554,6.554,0,0,1-3.174.819,5.507,5.507,0,0,1-1.981-.345,14.989,14.989,0,0,1-2.806,1.929,6.316,6.316,0,0,0,3.83,2.729,6.4,6.4,0,0,0,1.528.184,6.752,6.752,0,0,0,3.14-.794,6.248,6.248,0,0,0,.2-1.595A6.154,6.154,0,0,0,580.255,72.216Zm-1.08-7.825c-0.076-.019-0.147-0.051-0.224-0.068v0.009C579.028,64.344,579.1,64.374,579.175,64.39Zm-0.23-.01a6.012,6.012,0,0,1-1.508,3.187,3.985,3.985,0,0,1,.068.712,5.622,5.622,0,0,1-1.726,3.756,6.819,6.819,0,0,0,.825.052,6.393,6.393,0,0,0,3.9-1.323,6.3,6.3,0,0,0,2.385-3.995,6.745,6.745,0,0,0-3.715-2.379c-0.077-.016-0.147-0.046-0.225-0.06Zm-1.009-1.068A6.249,6.249,0,0,0,576.21,59h-0.092a5.868,5.868,0,0,0-4.035,1.6,5.967,5.967,0,0,1,1.559,4.248c0,0.123,0,.244-0.007.363a3.211,3.211,0,0,1,.776-0.1h0.069a3.074,3.074,0,0,1,2.552,1.412A6.162,6.162,0,0,0,577.936,63.312Zm-11.4-4.2a0.657,0.657,0,0,1-.217-0.018,6.162,6.162,0,0,0-1.652,4.2,0.1,0.1,0,0,1-.009.055l0.218,0a6.392,6.392,0,0,1,4.458,1.78,2.922,2.922,0,0,1,2.426,1.542,2.445,2.445,0,0,1,1.109-1.11c0-.07,0-0.143,0-0.215a6.177,6.177,0,0,0-2.13-4.664A6.369,6.369,0,0,0,566.532,59.112Zm1.971,6.134h0A0,0,0,0,1,568.5,65.245Zm-0.2-.032A6.429,6.429,0,0,0,560,66.893a6.207,6.207,0,0,0,2.354,3.913,6.058,6.058,0,0,1,3.657-2.326c0-.063,0-0.134,0-0.2A3.021,3.021,0,0,1,568.306,65.214Zm-5.571,7.016a6.106,6.106,0,0,0-.743,2.915,7.04,7.04,0,0,0,.214,1.69,6.4,6.4,0,0,0,3.042.766,6.6,6.6,0,0,0,1.544-.186,6.244,6.244,0,0,1,.956-5.37,6.3,6.3,0,0,1-1.614-2.749A6.282,6.282,0,0,0,562.735,72.23Zm5.358,5.8h0l-0.068.032h0Zm3.429,3.217a6.28,6.28,0,0,0,3.289-3.2,6.274,6.274,0,0,1-3.424-3.335,14.882,14.882,0,0,1-3.073-2.1,6.181,6.181,0,0,0-.706,2.862A6.015,6.015,0,0,0,568.16,78,6.38,6.38,0,0,0,571.522,81.248ZM568.16,78l-0.068.031h0Zm23.794-4.347-5.529,6.435h4.783a0.93,0.93,0,0,1,.934.921,0.948,0.948,0,0,1-.934.94h-6.954a1,1,0,0,1-.955-0.962,1.144,1.144,0,0,1,.254-0.69l5.509-6.437h-4.808a0.967,0.967,0,0,1-.955-0.942A0.947,0.947,0,0,1,584.254,72h6.838a1.047,1.047,0,0,1,1.1,1.034A0.9,0.9,0,0,1,591.954,73.653Zm11.088,4H595.83a2.933,2.933,0,0,0,3.057,2.69,4.323,4.323,0,0,0,3.034-1.265,0.751,0.751,0,0,1,.562-0.205,0.97,0.97,0,0,1,.744.369,0.9,0.9,0,0,1,.186.529,1.063,1.063,0,0,1-.327.735,6.1,6.1,0,0,1-4.269,1.724,5.289,5.289,0,0,1-5.344-5.265,5.227,5.227,0,0,1,5.273-5.264,5.062,5.062,0,0,1,5.135,5.218A0.785,0.785,0,0,1,603.042,77.651Zm-4.3-4.066a2.79,2.79,0,0,0-2.869,2.482h5.74A2.847,2.847,0,0,0,598.746,73.585Zm28.1,8.548a1.138,1.138,0,0,1-1.144-1.125v-0.53a3.753,3.753,0,0,1-3.336,1.748,5.269,5.269,0,0,1,0-10.529,3.736,3.736,0,0,1,3.336,1.771V67.54a1.145,1.145,0,0,1,2.288,0V81.008A1.136,1.136,0,0,1,626.848,82.133Zm-4.2-8.434a3.271,3.271,0,0,0,0,6.528A3.271,3.271,0,0,0,622.648,73.7ZM639.6,77.651h-7.215a2.937,2.937,0,0,0,3.06,2.69,4.327,4.327,0,0,0,3.035-1.265,0.75,0.75,0,0,1,.557-0.205,0.981,0.981,0,0,1,.749.369,0.917,0.917,0,0,1,.187.529,1.072,1.072,0,0,1-.328.735,6.106,6.106,0,0,1-4.269,1.724,5.291,5.291,0,0,1-5.346-5.265,5.228,5.228,0,0,1,5.275-5.264,5.065,5.065,0,0,1,5.136,5.218A0.787,0.787,0,0,1,639.6,77.651Zm-4.295-4.066a2.789,2.789,0,0,0-2.87,2.482h5.74A2.848,2.848,0,0,0,635.308,73.585Zm10.826,8.642a7.97,7.97,0,0,1-3.732-1.013,1.039,1.039,0,0,1-.563-0.874A0.935,0.935,0,0,1,641.934,80a0.8,0.8,0,0,1,.726-0.529,0.88,0.88,0,0,1,.463.139,5.765,5.765,0,0,0,2.874.8c1.142,0,2.38-.322,2.38-1.218,0-.691-0.629-0.943-3.013-1.747-1.957-.665-2.986-1.54-2.986-2.965,0-1.7,1.727-2.782,3.992-2.782a7.57,7.57,0,0,1,3.5.782,0.951,0.951,0,0,1,.63.851,0.785,0.785,0,0,1-.071.323,0.937,0.937,0,0,1-.886.6,0.755,0.755,0,0,1-.325-0.07,6.3,6.3,0,0,0-2.664-.619c-1.237,0-2,.278-2,1.01s0.605,0.9,2.355,1.447c2.125,0.693,3.619,1.4,3.619,3.128C650.524,80.823,648.961,82.226,646.134,82.226Zm14.857-.116a1.02,1.02,0,0,1-.818-0.345l-3.851-4.321-1.166.9v2.666a1.121,1.121,0,1,1-2.242,0V67.561a1.121,1.121,0,1,1,2.242,0v8.16l4.854-3.7a1.048,1.048,0,0,1,.631-0.228,1.117,1.117,0,0,1,.817.389,1.074,1.074,0,0,1,.255.643,1.04,1.04,0,0,1-.42.807L658,76.18l3.738,4.23a1.073,1.073,0,0,1,.254.69A1.024,1.024,0,0,1,660.991,82.11ZM610.659,71.652a4.75,4.75,0,0,0-4.834,4.762v4.71a1.116,1.116,0,0,0,1.139,1.12,1.134,1.134,0,0,0,1.159-1.12V76.484a2.548,2.548,0,1,1,5.073,0v4.639a1.136,1.136,0,0,0,1.162,1.12,1.113,1.113,0,0,0,1.135-1.12v-4.71A4.748,4.748,0,0,0,610.659,71.652Zm48.831-4.122a1.112,1.112,0,1,1,1.111,1.1A1.088,1.088,0,0,1,659.49,67.529Zm1.985,0a0.874,0.874,0,1,0-.874.877A0.854,0.854,0,0,0,661.475,67.529Zm-1.333.47V67.048a0.126,0.126,0,0,1,.14-0.132h0.4a0.375,0.375,0,0,1,.437.373,0.354,0.354,0,0,1-.21.338l0.175,0.315a0.164,0.164,0,0,1,.023.086,0.128,0.128,0,0,1-.129.12,0.143,0.143,0,0,1-.133-0.1l-0.215-.384h-0.193c-0.017,0-.017.012-0.017,0.023V68a0.136,0.136,0,0,1-.139.149A0.134,0.134,0,0,1,660.142,68Zm0.71-.711c0-.086-0.059-0.137-0.186-0.137h-0.228c-0.017,0-.017.005-0.017,0.023V67.4c0,0.017,0,.023.017,0.023h0.228C660.793,67.426,660.852,67.386,660.852,67.289Z" transform="translate(-560 -59)"/>
</svg>
