<?xml version="1.0" encoding="utf-8"?>
<!-- Generator: Adobe Illustrator 16.0.4, SVG Export Plug-In . SVG Version: 6.00 Build 0)  -->
<!DOCTYPE svg PUBLIC "-//W3C//DTD SVG 1.1//EN" "http://www.w3.org/Graphics/SVG/1.1/DTD/svg11.dtd">
<svg version="1.1" xmlns="http://www.w3.org/2000/svg" xmlns:xlink="http://www.w3.org/1999/xlink" x="0px" y="0px"
	 width="966.134px" height="331.561px" viewBox="0 0 966.134 331.561" enable-background="new 0 0 966.134 331.561"
	 xml:space="preserve">
<g id="Layer_1">
</g>
<g id="Layer_2">
	<g>
		<polygon fill="#112B49" points="195.073,114.38 170.762,114.38 135.661,205.478 157.651,205.478 163.388,190.046 196.554,190.046 
			190.549,172.972 168.714,172.972 182.918,133.774 208.187,205.478 230.174,205.478 		"/>
		<path fill="#112B49" d="M564.375,205.478V114.38h19.532v74.025h38.513v17.072H564.375z"/>
		<path fill="#112B49" d="M676.94,205.478V114.38h19.531v74.025h38.516v17.072H676.94z"/>
		<path fill="#112B49" d="M456.209,130.706c16.153,0,29.293,13.139,29.293,29.292c0,16.151-13.14,29.292-29.293,29.292
			c-16.151,0-29.291-13.141-29.291-29.292C426.918,143.845,440.058,130.706,456.209,130.706 M456.209,112.879
			c-26.023,0-47.119,21.096-47.119,47.119s21.096,47.12,47.119,47.12c26.023,0,47.12-21.097,47.12-47.12
			S482.232,112.879,456.209,112.879L456.209,112.879z"/>
		<path fill="#112B49" d="M824.773,130.706c16.153,0,29.293,13.139,29.293,29.292c0,16.151-13.141,29.292-29.293,29.292
			c-16.152,0-29.292-13.141-29.292-29.292C795.48,143.845,808.621,130.706,824.773,130.706 M824.773,112.879
			c-26.023,0-47.12,21.096-47.12,47.119s21.097,47.12,47.12,47.12c26.023,0,47.121-21.097,47.121-47.12
			S850.796,112.879,824.773,112.879L824.773,112.879z"/>
		<path fill="#112B49" d="M329.474,114.38h-23.083h-3.309h-16.085v91.098h19.395v-31.35h23.083c16.19,0,29.316-13.685,29.316-29.874
			C358.79,128.062,345.665,114.38,329.474,114.38z M329.474,156.299h-23.083v-24.091h23.083c6.335,0,11.488,5.711,11.488,12.046
			S335.809,156.299,329.474,156.299z"/>
		<g>
			<path fill="#112B49" d="M270.251,233.125c-1.688,0-3.178,0.836-4.088,2.118c0,0-4.375,4.991-6.734,7.353
				c-9.979,9.979-21.599,17.812-34.533,23.284c-13.387,5.663-27.612,8.534-42.282,8.534c-14.67,0-28.896-2.871-42.281-8.534
				c-12.936-5.472-24.554-13.305-34.533-23.284c-9.98-9.981-17.814-21.599-23.285-34.534c-5.662-13.387-8.533-27.613-8.533-42.282
				s2.872-28.895,8.533-42.282c5.471-12.935,13.305-24.553,23.285-34.532c9.979-9.98,21.598-17.813,34.533-23.285
				c13.386-5.663,27.611-8.534,42.281-8.534c14.67,0,28.895,2.871,42.282,8.534c9.422,3.985,18.141,9.23,26.041,15.639
				c-0.423,1.243-0.658,2.576-0.658,3.963c0,6.769,5.488,12.257,12.256,12.257c6.769,0,12.257-5.488,12.257-12.257
				c0-6.77-5.488-12.257-12.257-12.257c-1.681,0-3.283,0.339-4.743,0.953c-20.466-16.782-46.644-26.858-75.178-26.858
				c-65.534,0-118.661,53.125-118.661,118.66S117.08,284.44,182.614,284.44c36.659,0,69.42-16.636,91.185-42.758
				c0.906-0.907,1.468-2.16,1.468-3.543C275.266,235.368,273.021,233.125,270.251,233.125z"/>
		</g>
	</g>
</g>
</svg>
