<svg xmlns="http://www.w3.org/2000/svg" width="807.682" height="331.561" viewBox="0 0 807.682 331.561"><path fill="#333" d="M130.863 114.38h-24.31L71.45 205.477h21.99l5.737-15.432h33.166l-6.004-17.074H104.5l14.206-39.197 25.27 71.704h21.988M500.165 205.477V114.38h19.528v74.024h38.517v17.072h-58.045zM612.73 205.477V114.38h19.53v74.024h38.516v17.072H612.73zM391.998 130.705c16.152 0 29.293 13.14 29.293 29.292 0 16.15-13.14 29.292-29.292 29.292-16.15 0-29.292-13.142-29.292-29.293 0-16.155 13.14-29.292 29.292-29.292m0-17.825c-26.022 0-47.118 21.096-47.118 47.117 0 26.023 21.096 47.12 47.118 47.12s47.12-21.097 47.12-47.12c0-26.023-21.097-47.117-47.12-47.117zM760.56 130.705c16.155 0 29.296 13.14 29.296 29.292 0 16.15-13.14 29.292-29.295 29.292-16.15 0-29.29-13.142-29.29-29.293 0-16.155 13.14-29.292 29.29-29.292m0-17.825c-26.02 0-47.118 21.096-47.118 47.117 0 26.023 21.1 47.12 47.12 47.12 26.022 0 47.12-21.097 47.12-47.12 0-26.023-21.097-47.117-47.12-47.117zM265.263 114.38H222.786v91.1h19.396v-31.354h23.083c16.19 0 29.314-13.685 29.314-29.874 0-16.19-13.125-29.872-29.314-29.872zm0 41.918H242.18v-24.09h23.083c6.336 0 11.486 5.712 11.486 12.046 0 6.335-5.15 12.044-11.487 12.044z"/><path fill="#333" d="M206.038 233.124c-1.688 0-3.178.836-4.088 2.118 0 0-4.375 4.99-6.732 7.354-9.98 9.98-21.6 17.812-34.533 23.28-13.387 5.664-27.61 8.535-42.28 8.535-14.673 0-28.897-2.87-42.282-8.533-12.936-5.472-24.555-13.305-34.532-23.28-9.978-9.982-17.812-21.603-23.284-34.535-5.66-13.39-8.533-27.613-8.533-42.282s2.873-28.895 8.533-42.28c5.472-12.937 13.306-24.555 23.285-34.534s21.6-17.812 34.533-23.285c13.386-5.66 27.61-8.53 42.28-8.53 14.67 0 28.897 2.87 42.282 8.53 9.422 3.987 18.14 9.23 26.04 15.642-.42 1.243-.657 2.576-.657 3.963 0 6.77 5.488 12.258 12.256 12.258 6.77 0 12.258-5.488 12.258-12.258 0-6.77-5.487-12.257-12.258-12.257-1.68 0-3.283.34-4.742.953-20.467-16.78-46.645-26.857-75.178-26.857-65.535 0-118.66 53.125-118.66 118.66s53.125 118.66 118.66 118.66c36.658 0 69.42-16.635 91.185-42.757.904-.907 1.468-2.16 1.468-3.543-.002-2.776-2.246-5.02-5.02-5.02z"/></svg>