<svg xmlns="http://www.w3.org/2000/svg" width="10" height="6.969" viewBox="0 0 10 6.969">
  <defs>
    <style>
      .cls-1 {
        fill: #999;
        fill-rule: evenodd;
      }
    </style>
  </defs>
  <path id="Shape_111_copy_2" data-name="Shape 111 copy 2" class="cls-1" d="M1090.83,70.2l-3.39-3.063a0.52,0.52,0,0,0-.68,0,0.4,0.4,0,0,0,0,.612l2.58,2.325h-7.86a0.435,0.435,0,1,0,0,.865h7.85l-2.57,2.321a0.4,0.4,0,0,0,0,.612,0.487,0.487,0,0,0,.34.127,0.482,0.482,0,0,0,.33-0.126l3.4-3.06A0.4,0.4,0,0,0,1090.83,70.2Z" transform="translate(-1081 -67.031)"/>
</svg>
