<svg viewBox="0 0 1275 719" xmlns="http://www.w3.org/2000/svg">
  <path d="M930.77,537.420001 C901.460249,537.425522 877.695525,513.669752 877.690001,484.360001 C877.684479,455.05025 901.44025,431.285525 930.750001,431.280001 C960.059752,431.274479 983.824477,455.030249 983.83,484.34 C983.796958,513.633771 960.063757,537.375918 930.77,537.420001 M344.23,537.420001 C314.920249,537.425522 291.155525,513.669752 291.150001,484.360001 C291.144479,455.05025 314.90025,431.285525 344.210001,431.280001 C373.519752,431.274479 397.284477,455.030249 397.29,484.34 C397.262455,513.636051 373.526039,537.381415 344.23,537.420001 M949.8,217.77 L1055.85,34.09 C1059.796,27.2644409 1059.80086,18.8521987 1055.86275,12.022084 C1051.92464,5.19196918 1044.64186,0.981638794 1036.75775,0.977083595 C1028.87364,0.972528396 1021.586,5.17444043 1017.64,12 L910.25,198 C828.13,160.52 735.9,139.65 637.49,139.65 C539.08,139.65 446.86,160.55 364.74,198 L257.36,12 C253.419361,5.17265436 246.135714,0.96525387 238.25274,0.96525387 C230.369765,0.96525387 223.085074,5.16888747 219.142739,11.9952542 C215.200405,18.8216209 215.19936,27.2326546 219.14,34.06 L325.2,217.77 C143.09,316.82 18.53,501.18 0.31,719 L1274.69,719 C1256.45,501.18 1131.9,316.82 949.8,217.77"></path>
</svg>
