<svg viewBox="0 0 132 141" xmlns="http://www.w3.org/2000/svg">
  <path d="M13.5045109,110.164713 C14.5211497,87.7943599 33.2548135,70.4062584 55.5583752,70.969509 L56.117,70.988 L75.882,70.988 L76.4416248,70.969509 C98.519898,70.4119478 117.100028,87.4449167 118.459273,109.488362 L118.495489,110.164713 C118.605184,112.578467 116.737375,114.624127 114.32362,114.733822 C111.909866,114.843517 109.864206,112.975708 109.754511,110.561954 C108.954455,92.9573342 94.2117717,79.2735578 76.6597144,79.7168146 L76.1269855,79.7345813 L75.9458333,79.7383333 L56.0541667,79.7383333 L55.8730145,79.7345813 C38.0874828,78.9975179 23.0536267,92.7795098 22.2454891,110.561954 C22.1357941,112.975708 20.0901341,114.843517 17.6763796,114.733822 C15.2626251,114.624127 13.3948159,112.578467 13.5045109,110.164713 Z"></path>
  <path d="M66,35.9883333 C68.3451797,35.9883333 70.2593834,37.8335611 70.3699549,40.1513606 L70.375,40.3633333 L70.375,110.363333 C70.375,112.779579 68.4162458,114.738333 66,114.738333 C63.6548203,114.738333 61.7406166,112.893106 61.6300451,110.575306 L61.625,110.363333 L61.625,40.3633333 C61.625,37.9470876 63.5837542,35.9883333 66,35.9883333 Z"></path>
  <path d="M66,0.988333333 C61.5299453,0.988333333 57.3730436,2.3291006 53.9095121,4.63041784 L53.3539962,5.01196409 C47.7692622,8.97539712 44.125,15.4937837 44.125,22.8633333 C44.125,34.9445622 53.9187711,44.7383333 66,44.7383333 C78.0812289,44.7383333 87.875,34.9445622 87.875,22.8633333 C87.875,15.4937837 84.2307378,8.97539712 78.6460038,5.01196409 L78.0904879,4.63041784 C74.6269564,2.3291006 70.4700547,0.988333333 66,0.988333333 Z M66,9.73833333 C73.2487373,9.73833333 79.125,15.614596 79.125,22.8633333 C79.125,30.1120707 73.2487373,35.9883333 66,35.9883333 C58.7512627,35.9883333 52.875,30.1120707 52.875,22.8633333 C52.875,15.614596 58.7512627,9.73833333 66,9.73833333 Z"></path>
  <path d="M17.875,105.988333 C8.21001688,105.988333 0.375,113.82335 0.375,123.488333 C0.375,133.153316 8.21001688,140.988333 17.875,140.988333 C27.5399831,140.988333 35.375,133.153316 35.375,123.488333 C35.375,113.82335 27.5399831,105.988333 17.875,105.988333 Z M17.875,114.738333 C22.7074916,114.738333 26.625,118.655842 26.625,123.488333 C26.625,128.320825 22.7074916,132.238333 17.875,132.238333 C13.0425084,132.238333 9.125,128.320825 9.125,123.488333 C9.125,118.655842 13.0425084,114.738333 17.875,114.738333 Z"></path>
  <path d="M66,105.988333 C56.3350169,105.988333 48.5,113.82335 48.5,123.488333 C48.5,133.153316 56.3350169,140.988333 66,140.988333 C75.6649831,140.988333 83.5,133.153316 83.5,123.488333 C83.5,113.82335 75.6649831,105.988333 66,105.988333 Z M66,114.738333 C70.8324916,114.738333 74.75,118.655842 74.75,123.488333 C74.75,128.320825 70.8324916,132.238333 66,132.238333 C61.1675084,132.238333 57.25,128.320825 57.25,123.488333 C57.25,118.655842 61.1675084,114.738333 66,114.738333 Z"></path>
  <path d="M114.125,105.988333 C104.460017,105.988333 96.625,113.82335 96.625,123.488333 C96.625,133.153316 104.460017,140.988333 114.125,140.988333 C123.789983,140.988333 131.625,133.153316 131.625,123.488333 C131.625,113.82335 123.789983,105.988333 114.125,105.988333 Z M114.125,114.738333 C118.957492,114.738333 122.875,118.655842 122.875,123.488333 C122.875,128.320825 118.957492,132.238333 114.125,132.238333 C109.292508,132.238333 105.375,128.320825 105.375,123.488333 C105.375,118.655842 109.292508,114.738333 114.125,114.738333 Z"></path>
</svg>
