<svg viewBox="0 0 140 140" xmlns="http://www.w3.org/2000/svg">
  <path d="M67.3750467,25.0488107 C69.607489,24.1241805 72.1667937,25.1844583 73.0912899,27.4169561 C80.715503,45.8281081 71.7161733,62.9744089 52.5006299,72.1611221 L52.4998552,118.124468 L70.7470319,118.12555 C70.2958985,116.849358 70.0365402,115.482568 70.0035846,114.059807 L70,113.75 L70,109.375 C70,102.229816 75.7095687,96.4181733 82.8151932,96.2535846 L83.125,96.25 L95.537,96.2495763 L101.26,73.1235763 L101.30125,72.927917 C103.00773,65.2274957 110.436753,60.1632941 118.259124,61.4330313 C126.082923,62.7030004 131.529225,69.8594318 130.703133,77.7574937 L130.666197,78.078079 L126.864802,105.552667 C128.381161,105.943098 129.857153,106.540394 131.25,107.344555 C136.664519,110.470629 140,116.247852 140,122.499999 C140,132.164983 132.164983,139.999999 122.5,139.999999 C114.345709,139.999999 107.494024,134.422878 105.551331,126.875017 L51.9486689,126.875018 C50.0059756,134.422878 43.1542911,140 35,140 C25.3350169,140 17.5,132.164983 17.5,122.5 C17.5,112.835017 25.3350169,105 35,105 C38.1875474,105 41.1760484,105.852219 43.7500845,107.341237 L43.7499458,75.5371798 C24.7572744,81.164668 7.60394224,75.1097387 0.33287681,57.5513773 C-0.59154083,55.3190691 0.468627324,52.760029 2.70088003,51.8354773 L2.70088003,51.8354773 Z M35,113.75 C30.1675084,113.75 26.25,117.667508 26.25,122.5 C26.25,127.332492 30.1675084,131.25 35,131.25 C39.8324916,131.25 43.75,127.332492 43.75,122.5 C43.75,117.667508 39.8324916,113.75 35,113.75 Z M126.875,114.922277 C124.167741,113.35924 120.832259,113.35924 118.125,114.922277 C115.417741,116.485314 113.75,119.373926 113.75,122.5 C113.75,127.332492 117.667508,131.249999 122.5,131.249999 C127.332492,131.249999 131.25,127.332492 131.25,122.5 C131.25,119.373926 129.582259,116.485314 126.875,114.922277 Z M109.864913,74.7302818 L109.771943,75.1515945 L103.209443,101.675761 C102.743583,103.558663 101.097562,104.901287 99.1769817,104.994788 L98.9625,105 L83.125,105 C80.7798203,105 78.8656166,106.845228 78.7550451,109.163027 L78.75,109.375 L78.75,113.75 C78.75,116.09518 80.5952278,118.009383 82.9130273,118.119955 L83.125,118.125 L105.555391,118.124564 C106.714736,113.635602 109.630695,109.722837 113.75,107.344555 L113.75,107.344555 L114.09729,107.149264 C115.353811,106.461329 116.673884,105.93854 118.026997,105.580896 L121.991714,76.9322547 C122.406436,73.6356259 120.136849,70.6023499 116.857162,70.069987 C113.653747,69.5500046 110.609825,71.5982785 109.864913,74.7302818 Z M66.365,34.9375763 L10.407,58.1135763 L10.4543093,58.1921902 C17.2397214,69.0975195 30.4608156,71.7304883 45.685866,65.6021296 L45.685866,65.6021296 L46.1998226,65.3922368 C61.6415513,58.9955978 69.330416,47.6760616 66.3862128,35.0258168 L66.3862128,35.0258168 L66.365,34.9375763 Z M42.6735963,19.4343883 C44.3146801,21.2078277 44.2073846,23.9758458 42.4339451,25.6169296 C40.7177133,27.2050752 38.0700344,27.1558209 36.4136651,25.5436975 L36.2514037,25.3772784 C34.4168591,23.3947752 31.589759,22.6928836 29.0518349,23.567012 L28.887,23.6275763 L28.7435264,23.6944164 C26.4092091,24.8334106 24.9274365,27.2068464 24.9290825,29.8042186 L24.9342152,30.0646649 C25.0278285,32.4790965 23.1464335,34.5122686 20.7320018,34.6058819 C18.3175701,34.6994952 16.284398,32.8181001 16.1907848,30.4036685 C15.948241,24.1480876 19.4802718,18.3698404 25.1292253,15.724078 L25.4452234,15.5803308 L25.6259461,15.5053108 C31.576168,13.189905 38.3370897,14.7481365 42.6735963,19.4343883 Z M50.4579466,8.05299442 C52.2024331,9.72482291 52.2613341,12.4942934 50.5895056,14.2387799 C48.9176771,15.9832664 46.1482066,16.0421674 44.4037201,14.3703389 C38.8645426,9.06186871 30.7904424,7.39122721 23.6142208,10.0378311 L23.316,10.1505763 L23.0371159,10.276238 C16.1985262,13.4222662 11.6970939,20.1385466 11.3862755,27.6596632 L11.3739454,28.04939 C11.3208947,30.4650534 9.31960662,32.3803294 6.9039433,32.3272787 C4.48827997,32.2742281 2.57300398,30.27294 2.62605463,27.8572766 C2.86917349,16.7868503 9.43572211,6.85028967 19.4916712,2.27605655 L19.8904225,2.09828949 L20.0459608,2.03388392 C30.4901037,-2.05726731 42.359583,0.291928444 50.4579466,8.05299442 Z"></path>
</svg>