<svg xmlns="http://www.w3.org/2000/svg" width="2000" height="2000" viewBox="0 0 2000 2000"><circle opacity=".05" fill="none" stroke="#FFF" stroke-miterlimit="10" cx="1000.001" cy="1000.001" r="541.364"/><circle opacity=".05" fill="none" stroke="#FFF" stroke-miterlimit="10" cx="1000.003" cy="1000.001" r="567.941"/><path opacity=".05" fill="none" stroke="#FFF" stroke-miterlimit="10" d="M1594.518 1000c0 328.345-266.178 594.516-594.516 594.516-328.342 0-594.514-266.17-594.514-594.515 0-328.344 266.172-594.516 594.514-594.516 328.338 0 594.516 266.172 594.516 594.517z"/><path opacity=".05" fill="none" stroke="#FFF" stroke-miterlimit="10" d="M1605.064 1000c0 334.17-270.896 605.063-605.062 605.063S394.942 1334.168 394.942 1000c0-334.17 270.894-605.062 605.06-605.062S1605.064 665.83 1605.064 1000z"/><path opacity=".05" fill="none" stroke="#FFF" stroke-miterlimit="10" d="M1634.768 1000c0 350.572-284.193 634.767-634.766 634.767-350.57 0-634.768-284.194-634.768-634.766 0-350.573 284.197-634.767 634.768-634.767 350.572 0 634.766 284.194 634.766 634.768z"/><path opacity=".05" fill="none" stroke="#FFF" stroke-miterlimit="10" d="M1664.47 1000c0 366.978-297.493 664.472-664.468 664.472-366.98 0-664.467-297.494-664.467-664.47s297.488-664.474 664.467-664.474c366.975 0 664.47 297.496 664.47 664.473z"/><circle opacity=".05" fill="none" stroke="#FFF" stroke-miterlimit="10" cx="1000" cy="1000.001" r="644.054"/><circle opacity=".05" fill="none" stroke="#FFF" stroke-miterlimit="10" cx="1000.003" cy="1000.001" r="816.55"/><circle opacity=".05" fill="none" stroke="#FFF" stroke-miterlimit="10" cx="1000.003" cy="1000.001" r="839.516"/><path opacity=".05" fill="none" stroke="#FFF" stroke-miterlimit="10" d="M1752.354 1000c0 415.51-336.84 752.35-752.352 752.35S247.647 1415.51 247.647 1000s336.844-752.353 752.355-752.353c415.51 0 752.352 336.844 752.352 752.354z"/><circle opacity=".05" fill="none" stroke="#FFF" stroke-miterlimit="10" cx="1000.003" cy="1000.001" r="773.514"/><path opacity=".05" fill="none" stroke="#FFF" stroke-miterlimit="10" d="M1520.557 1000c0 287.494-233.064 520.553-520.555 520.553-287.497 0-520.557-233.06-520.557-520.552 0-287.493 233.06-520.553 520.557-520.553 287.49 0 520.555 233.06 520.555 520.554z"/><path opacity=".05" fill="none" stroke="#FFF" stroke-miterlimit="10" d="M1535.2 1000c0 295.58-239.618 535.195-535.198 535.195-295.584 0-535.193-239.614-535.193-535.194S704.417 464.806 1000 464.806c295.58 0 535.198 239.616 535.198 535.196z"/><path opacity=".05" fill="none" stroke="#FFF" stroke-miterlimit="10" d="M1493.12 1000c0 272.34-220.78 493.12-493.118 493.12S506.88 1272.34 506.88 1000c0-272.343 220.784-493.12 493.122-493.12S1493.12 727.658 1493.12 1000z"/><path opacity=".05" fill="none" stroke="#FFF" stroke-miterlimit="10" d="M1394.115 1000c0 217.66-176.453 394.108-394.113 394.108-217.662 0-394.112-176.447-394.112-394.107 0-217.663 176.45-394.116 394.112-394.116 217.66 0 394.113 176.453 394.113 394.117z"/><circle opacity=".05" fill="none" stroke="#FFF" stroke-miterlimit="10" cx="1000.002" cy="1000.001" r="413.46"/><path opacity=".05" fill="none" stroke="#FFF" stroke-miterlimit="10" d="M1378.97 1000c0 209.3-169.672 378.964-378.968 378.964-209.3 0-378.966-169.664-378.966-378.963 0-209.294 169.667-378.964 378.966-378.964 209.296 0 378.968 169.67 378.968 378.965z"/><circle opacity=".05" fill="none" stroke="#FFF" stroke-miterlimit="10" cx="1000.003" cy="1000.001" r="389.622"/><circle opacity=".05" fill="none" stroke="#FFF" stroke-miterlimit="10" cx="1000.003" cy="1000.001" r="324.904"/><circle opacity=".05" fill="none" stroke="#FFF" stroke-miterlimit="10" cx="1000.003" cy="1000.001" r="358.991"/><path opacity=".05" fill="none" stroke="#FFF" stroke-miterlimit="10" d="M1903.153 1000c0 498.794-404.365 903.142-903.154 903.142-498.798 0-903.15-404.348-903.15-903.14 0-498.79 404.353-903.144 903.15-903.144 498.788 0 903.153 404.354 903.153 903.143z"/><path opacity=".05" fill="none" stroke="#FFF" stroke-miterlimit="10" d="M1928.55 1000c0 512.825-415.73 928.548-928.548 928.548-512.826 0-928.55-415.723-928.55-928.547 0-512.818 415.724-928.55 928.55-928.55 512.818 0 928.548 415.732 928.548 928.55z"/><path opacity=".05" fill="none" stroke="#FFF" stroke-miterlimit="10" d="M2000 1000c0 552.285-447.72 1000-999.998 1000C447.714 2000 0 1552.285 0 1000 0 447.72 447.714 0 1000.002 0 1552.282 0 2000 447.72 2000 1000z"/><path opacity=".05" fill="none" stroke="#FFF" stroke-miterlimit="10" d="M1832.14 1000c0 459.577-372.562 832.134-832.138 832.134-459.582 0-832.137-372.557-832.137-832.133 0-459.574 372.555-832.134 832.137-832.134 459.576 0 832.137 372.56 832.137 832.135z"/><path opacity=".05" fill="none" stroke="#FFF" stroke-miterlimit="10" d="M1855.548 1000c0 472.503-383.042 855.547-855.546 855.547S144.46 1472.503 144.46 1000 527.497 144.457 1000 144.457 1855.548 527.5 1855.548 1000z"/><circle opacity=".05" fill="none" stroke="#FFF" stroke-miterlimit="10" cx="998.198" cy="1000.001" r="187.992"/><circle opacity=".05" fill="none" stroke="#FFF" stroke-miterlimit="10" cx="998.198" cy="1000.001" r="277.29"/><circle opacity=".05" fill="none" stroke="#FFF" stroke-miterlimit="10" cx="998.197" cy="1000.001" r="258.236"/><path opacity=".05" fill="none" stroke="#FFF" stroke-miterlimit="10" d="M1305.223 1000c0 169.565-137.463 307.025-307.025 307.025-169.566 0-307.025-137.46-307.025-307.024s137.46-307.025 307.025-307.025c169.562 0 307.025 137.462 307.025 307.026z"/><circle opacity=".05" fill="none" stroke="#FFF" stroke-miterlimit="10" cx="998.197" cy="1000.001" r="226.863"/><circle opacity=".05" fill="none" stroke="#FFF" stroke-miterlimit="10" cx="998.2" cy="1000.001" r="242.843"/><g opacity=".5" fill="none" stroke-miterlimit="10"><path stroke="#2CA699" stroke-linecap="round" stroke-dasharray="0.2,6" d="M1712.54 1000c0 393.525-319.013 712.543-712.538 712.543-393.522 0-712.545-319.018-712.545-712.542 0-393.525 319.022-712.542 712.545-712.542 393.525 0 712.538 319.017 712.538 712.543z"/><circle stroke="#BDA671" stroke-width="2" stroke-linecap="round" stroke-dasharray="0.2,6" cx="1000.004" cy="1000.001" r="886.187"/><circle opacity=".4" stroke="#DE4F4F" cx="1000" cy="1000.001" r="673.368"/><path opacity=".4" stroke="#BDA671" d="M1479.628 1000c0 264.893-214.737 479.628-479.626 479.628-264.896 0-479.627-214.735-479.627-479.627 0-264.89 214.73-479.628 479.627-479.628 264.89 0 479.626 214.738 479.626 479.63z"/><path opacity=".4" stroke="#565999" d="M1446.3 1000c0 246.48-199.82 446.298-446.298 446.298-246.49 0-446.3-199.816-446.3-446.297 0-246.48 199.81-446.298 446.3-446.298 246.477 0 446.297 199.817 446.297 446.3z"/><circle opacity=".4" stroke="#BDA671" cx="1000" cy="1000.001" r="349.17"/><path stroke="#565999" stroke-width="1.5" stroke-dasharray="6,4" d="M1961.288 1000c0 530.905-430.38 961.29-961.286 961.29-530.91 0-961.285-430.385-961.285-961.29 0-530.904 430.375-961.29 961.285-961.29 530.905 0 961.286 430.386 961.286 961.29z"/><circle stroke="#BDA671" stroke-width="2" stroke-linecap="round" stroke-dasharray="0.2,6" cx="998.198" cy="1000.001" r="170.915"/><circle stroke="#565999" stroke-width="1.5" stroke-dasharray="6,4" cx="998.197" cy="1000.001" r="295.138"/></g></svg>