<svg xmlns="http://www.w3.org/2000/svg" width="1100" height="1100" viewBox="0 0 1100 1100"><linearGradient id="a" gradientUnits="userSpaceOnUse" x1="770.536" y1="931.981" x2="329.462" y2="168.018"><stop offset="0" stop-color="#E2DFF2" stop-opacity="0"/><stop offset="1" stop-color="#E2DFF2"/></linearGradient><circle opacity=".3" fill="url(#a)" cx="550" cy="550" r="441"/><path fill="#BDA671" d="M866.298 708.913h-.2c-.553 0-1-.447-1-1s.447-1 1-1h.2c.553 0 1 .447 1 1s-.447 1-1 1zm-6.2-.018h-.202c-.553 0-1-.448-1-1s.447-1 1-1h.216c.553.008.993.463.985 1.015-.007.546-.453.985-1 .985zm12.2-.008c-.546 0-.992-.438-1-.985-.008-.552.434-1.007.985-1.015l.215-.002c.553 0 1 .448 1 1 0 .553-.447 1-1 1l-.186.002h-.014zm-18.4-.056h-.016l-.2-.002c-.553-.008-.993-.463-.985-1.015.008-.547.454-.985 1-.985h.015l.2.003c.552.01.993.463.985 1.016-.007.547-.454.985-1 .985zm24.6-.018c-.547 0-.993-.438-1-.985-.01-.552.433-1.007.984-1.015l.2-.003h.015c.546 0 .992.437 1 .984.008.553-.434 1.007-.985 1.015l-.2.002h-.015zm-30.8-.09h-.03l-.186-.003c-.552-.01-.993-.464-.985-1.016s.447-.964 1.015-.985l.215.003c.552.017.986.477.97 1.03-.016.54-.46.97-1 .97zm37-.033c-.54 0-.984-.43-1-.972-.017-.552.418-1.013.97-1.03l.215-.004h.015c.546 0 .992.438 1 .985.008.552-.434 1.006-.985 1.014l-.186.005h-.03zm-43.198-.117h-.03l-.2-.006c-.552-.017-.986-.478-.97-1.03.016-.552.517-.99 1.028-.97l.2.006c.552.017.986.477.97 1.03-.016.542-.46.97-.998.97zm49.395-.057c-.538 0-.982-.43-1-.97-.015-.553.42-1.014.972-1.03l.187-.006c.557-.03 1.02.404 1.042.956.024.55-.404 1.018-.956 1.042l-.214.008h-.03zm-55.592-.135h-.044l-.188-.006c-.552-.017-.986-.478-.97-1.03.017-.55.478-.975 1.028-.97l.215.008c.552.023.98.49.955 1.042-.023.537-.465.957-.997.957zm61.787-.093c-.532 0-.975-.42-.998-.956-.024-.55.403-1.018.955-1.042l.215-.01c.54-.024 1.013.42 1.03.972.015.553-.42 1.013-.972 1.03l-.186.006h-.044zm-67.984-.138h-.03l-.215-.01c-.55-.024-.978-.49-.954-1.043.023-.537.467-.956.998-.956.016 0 .03 0 .045.002l.185.007c.552.016.986.476.97 1.028-.015.543-.46.97-1 .97zm74.18-.145c-.533 0-.976-.42-1-.956-.023-.553.404-1.02.956-1.044l.187-.01c.547-.014 1.023.39 1.055.94.032.552-.39 1.025-.94 1.057l-.214.01c-.015.002-.03.002-.045.002zm-80.374-.125c-.02 0-.04 0-.06-.002l-.186-.01c-.552-.023-.98-.49-.955-1.042.025-.55.52-1 1.044-.955l.214.012c.552.03.973.505.94 1.056-.03.532-.47.942-.996.942zm86.564-.215c-.525 0-.966-.41-.997-.94-.033-.552.387-1.025.938-1.058l.2-.012c.543-.027 1.023.39 1.056.94s-.388 1.023-.94 1.056l-.198.013-.06.002zm-92.755-.095h-.043l-.216-.013c-.55-.032-.97-.506-.938-1.057s.5-.958 1.057-.94l.184.01c.553.024.98.492.956 1.043-.025.537-.467.957-1 .957zm98.942-.303c-.52 0-.958-.4-.996-.927-.04-.55.373-1.03.924-1.07l.214-.015c.542-.035 1.024.39 1.057.94s-.387 1.023-.938 1.056l-.185.014-.075.003zm-105.134-.044c-.02 0-.04 0-.06-.002l-.2-.01c-.55-.033-.97-.507-.938-1.058s.508-.963 1.057-.94l.2.013c.55.032.97.506.938 1.057-.03.53-.47.94-.997.94zm-6.188-.382c-.024 0-.05 0-.074-.002l-.185-.012c-.55-.032-.97-.506-.938-1.057s.512-.963 1.057-.94l.213.014c.55.04.965.52.924 1.07-.04.526-.48.927-.997.927zm117.507-.034c-.52 0-.958-.4-.996-.927-.04-.552.374-1.03.925-1.07l.185-.016c.56-.045 1.036.358 1.084.908.05.55-.358 1.035-.908 1.084l-.214.017-.075.003zm-123.694-.385h-.06l-.214-.016c-.552-.04-.966-.52-.925-1.07.04-.552.513-.974 1.07-.924l.185.013c.552.032.973.506.94 1.057-.03.53-.47.94-.997.94zm129.87-.14c-.512 0-.948-.392-.994-.912-.05-.55.357-1.035.907-1.084l.2-.018c.56-.042 1.034.357 1.083.908.05.55-.358 1.035-.908 1.084l-.2.018c-.03.003-.058.004-.088.004zm-136.052-.312c-.028 0-.058 0-.088-.004l-.185-.015c-.55-.04-.965-.52-.924-1.07.04-.552.506-.963 1.07-.925l.214.017c.55.05.957.534.908 1.084-.045.52-.482.912-.994.912zm142.226-.28c-.507 0-.94-.384-.994-.898-.057-.55.344-1.04.893-1.098l.2-.02c.553-.052 1.04.342 1.097.892.057.55-.344 1.04-.893 1.098l-.2.02c-.035.003-.07.005-.104.005zm-148.407-.208c-.025 0-.05 0-.075-.003l-.214-.018c-.55-.05-.956-.535-.907-1.085.048-.55.53-.966 1.084-.908l.185.016c.55.04.965.52.924 1.07-.04.526-.478.927-.997.927zm154.57-.457c-.5 0-.932-.374-.99-.883-.065-.55.327-1.046.875-1.11l.214-.024c.556-.05 1.04.343 1.097.893.057.55-.344 1.04-.893 1.097l-.185.02c-.04.004-.08.006-.12.006zm-160.75-.065c-.028 0-.058 0-.088-.004l-.2-.018c-.55-.05-.956-.534-.907-1.084s.53-.966 1.084-.908l.198.018c.55.05.957.534.908 1.084-.045.52-.482.912-.995.912zm-6.173-.554c-.034 0-.068-.002-.104-.005l-.185-.02c-.55-.048-.957-.533-.908-1.083.05-.55.525-.953 1.084-.908l.214.02c.55.056.95.547.893 1.097-.053.514-.487.897-.993.897zm173.08-.118c-.493 0-.923-.366-.99-.87-.07-.546.313-1.05.86-1.12l.212-.028c.557-.072 1.045.326 1.11.875.065.548-.326 1.046-.875 1.11l-.186.024c-.045.006-.09.01-.132.01zm-179.253-.47c-.03 0-.06 0-.09-.003l-.213-.02c-.548-.058-.948-.55-.892-1.1.058-.548.538-.93 1.098-.892l.185.02c.55.05.958.534.91 1.084-.047.522-.484.913-.996.913zm185.4-.345c-.494 0-.924-.365-.99-.868-.072-.547.312-1.05.86-1.122l.182-.025c.55-.074 1.055.297 1.137.842.08.546-.296 1.055-.842 1.137l-.214.03c-.044.004-.09.007-.132.007zm-191.57-.272c-.034 0-.068-.002-.104-.005l-.2-.02c-.548-.058-.947-.55-.892-1.1.058-.548.54-.93 1.098-.892l.2.022c.548.057.948.548.892 1.098-.054.515-.487.898-.994.898zm197.705-.625c-.488 0-.915-.356-.99-.853-.08-.546.296-1.055.843-1.137l.188-.028c.55-.095 1.06.285 1.146.83s-.284 1.058-.83 1.145l-.208.032c-.05.007-.1.01-.15.01zm-203.873-.024c-.04 0-.078-.003-.118-.008l-.186-.02c-.55-.057-.95-.548-.893-1.098.06-.55.54-.928 1.1-.893l.213.024c.548.064.94.562.876 1.11-.06.51-.493.885-.993.885zm-6.16-.68c-.035 0-.07-.003-.105-.006l-.214-.024c-.548-.064-.94-.562-.876-1.11s.563-.944 1.11-.876l.185.02c.55.058.948.55.893 1.1-.054.512-.488.895-.994.895zm216.154-.28c-.48 0-.904-.348-.984-.838-.09-.545.28-1.06.824-1.148l.186-.03c.54-.105 1.063.266 1.158.81.097.544-.267 1.062-.81 1.158l-.21.036c-.055.008-.11.012-.163.012zm-222.316-.432c-.04 0-.08-.002-.12-.007l-.196-.022c-.548-.064-.94-.562-.876-1.11.064-.548.552-.947 1.11-.876l.2.023c.548.065.94.563.874 1.11-.06.51-.492.883-.992.883zm228.422-.644c-.476 0-.896-.34-.983-.823-.098-.543.265-1.062.808-1.16l.184-.033c.543-.107 1.066.25 1.172.79.105.543-.25 1.068-.79 1.173l-.21.04c-.06.01-.12.014-.18.014zm-234.578-.095c-.044 0-.09-.004-.134-.01l-.183-.022c-.547-.064-.94-.562-.875-1.11.064-.548.562-.948 1.11-.876l.214.026c.547.073.93.577.857 1.124-.066.503-.496.867-.99.867zm-6.15-.77c-.04 0-.08-.003-.12-.008l-.21-.027c-.55-.072-.934-.575-.86-1.122s.574-.937 1.12-.86l.187.023c.55.065.94.563.875 1.11-.06.51-.493.883-.993.883zm246.816-.308c-.47 0-.888-.332-.98-.81-.105-.542.25-1.066.79-1.172l.184-.036c.533-.118 1.07.233 1.183.774.114.54-.232 1.07-.773 1.183l-.21.043c-.066.013-.13.02-.193.02zm-252.966-.49c-.044 0-.09-.003-.134-.01l-.196-.025c-.548-.072-.933-.575-.86-1.122s.57-.93 1.122-.86l.2.026c.548.074.932.578.858 1.125-.067.502-.496.867-.99.867zm259.034-.787c-.458 0-.87-.316-.975-.78-.12-.54.218-1.075.757-1.195l.207-.046c.54-.116 1.072.23 1.187.77s-.23 1.07-.77 1.187l-.185.04c-.075.018-.148.025-.22.025zm-265.178-.04c-.05 0-.1-.004-.148-.01l-.182-.026c-.548-.073-.933-.576-.86-1.123.072-.548.584-.934 1.122-.86l.215.03c.548.08.924.59.843 1.136-.075.496-.502.852-.99.852zm-6.143-.854c-.043 0-.088-.002-.133-.008l-.21-.03c-.548-.08-.925-.588-.845-1.135.08-.546.577-.928 1.135-.844l.186.026c.548.072.932.576.858 1.123-.066.504-.496.868-.99.868zm277.365-.49c-.45 0-.86-.308-.97-.766-.13-.536.198-1.077.735-1.207l.197-.048c.538-.125 1.078.202 1.205.74.128.536-.203 1.076-.74 1.204l-.19.046c-.08.02-.16.03-.237.03zm-283.5-.39c-.048 0-.098-.004-.147-.01l-.196-.03c-.547-.08-.924-.59-.844-1.135s.585-.932 1.135-.844l.2.03c.546.082.923.59.842 1.137-.075.497-.502.853-.99.853zm-6.133-.91c-.054 0-.108-.003-.163-.013l-.183-.027c-.546-.08-.924-.588-.844-1.135.08-.546.57-.93 1.135-.844l.215.033c.545.09.914.604.825 1.15-.08.49-.505.838-.986.838zm295.648-.204c-.445 0-.852-.3-.968-.75-.138-.535.185-1.08.72-1.22l.18-.046c.53-.144 1.082.17 1.228.702.146.532-.17 1.082-.702 1.228l-.207.055c-.083.02-.167.03-.25.03zm-301.778-.733c-.053 0-.106-.004-.16-.013l-.186-.028c-.547-.082-.923-.59-.842-1.137.082-.545.59-.914 1.137-.842l.21.032c.546.088.916.602.828 1.147-.08.492-.504.84-.986.84zm307.76-.897c-.434 0-.834-.285-.96-.724-.153-.53.153-1.085.685-1.237l.202-.058c.523-.145 1.082.164 1.23.697.146.532-.166 1.083-.698 1.23l-.183.052c-.093.027-.187.04-.278.04zm-313.885-.066c-.048 0-.098-.003-.146-.01l-.213-.035c-.545-.09-.914-.604-.824-1.148.09-.545.596-.927 1.148-.824l.182.028c.546.08.924.59.844 1.136-.074.497-.5.854-.99.854zm-6.12-.988c-.053 0-.106-.004-.16-.013l-.2-.033c-.545-.09-.914-.604-.824-1.15.09-.545.596-.92 1.148-.823l.196.03c.545.09.915.603.827 1.148-.08.49-.504.84-.986.84zm325.95-.713c-.43 0-.824-.277-.957-.707-.162-.527.134-1.087.662-1.25l.182-.057c.53-.168 1.09.124 1.257.65.168.525-.123 1.088-.65 1.256l-.2.062c-.098.032-.197.045-.294.045zm-332.067-.302c-.058 0-.116-.005-.175-.016l-.186-.03c-.546-.09-.915-.605-.825-1.15.09-.544.603-.916 1.148-.824l.21.036c.543.096.906.614.81 1.158-.085.485-.507.826-.983.826zm-6.112-1.04c-.053 0-.106-.004-.16-.013l-.214-.037c-.544-.098-.906-.617-.81-1.16s.61-.906 1.162-.81l.18.032c.546.088.916.602.828 1.147-.078.492-.503.84-.986.84zm344.074-.57c-.417 0-.807-.263-.947-.68-.177-.522.104-1.09.627-1.268l.185-.062c.522-.182 1.09.098 1.27.62s-.097 1.092-.62 1.27l-.193.067c-.108.037-.215.053-.322.053zm-350.182-.495c-.058 0-.116-.005-.175-.016l-.2-.035c-.543-.098-.905-.617-.808-1.16.098-.544.61-.908 1.16-.81l.195.036c.544.096.907.614.81 1.158-.084.486-.506.827-.982.827zm-6.104-1.093c-.058 0-.116-.005-.175-.016l-.2-.035c-.542-.1-.904-.618-.807-1.162.098-.543.607-.91 1.16-.808l.195.035c.544.096.907.614.81 1.158-.083.486-.505.827-.982.827zm362.13-.482c-.406 0-.787-.247-.938-.648-.193-.518.068-1.094.585-1.288l.2-.074c.52-.187 1.094.083 1.28.604.187.52-.083 1.092-.604 1.28l-.175.063c-.114.042-.233.063-.35.063zm-368.23-.633c-.063 0-.127-.006-.19-.02l-.184-.032c-.543-.098-.905-.617-.808-1.16.097-.544.617-.907 1.16-.81l.21.04c.543.104.897.63.792 1.172-.093.478-.51.81-.98.81zm-6.094-1.14c-.06 0-.118-.006-.178-.017l-.21-.04c-.542-.105-.896-.63-.79-1.172s.63-.895 1.17-.79l.184.033c.543.097.905.616.808 1.16-.087.485-.508.824-.984.824zm380.103-.47c-.393 0-.766-.23-.925-.617-.21-.51.033-1.096.543-1.307l.203-.08c.515-.204 1.095.052 1.296.566s-.054 1.095-.567 1.296l-.168.068c-.126.05-.255.076-.382.076zm-386.193-.695c-.063 0-.127-.006-.19-.02l-.197-.037c-.542-.104-.896-.63-.79-1.172s.633-.894 1.17-.79l.197.038c.542.104.896.63.79 1.172-.092.478-.51.81-.98.81zm-6.085-1.19c-.067 0-.137-.006-.206-.02l-.18-.036c-.543-.105-.897-.63-.792-1.172s.632-.894 1.172-.79l.21.04c.54.113.888.644.774 1.184-.098.47-.513.795-.977.795zm397.982-.543c-.383 0-.746-.22-.913-.59-.228-.502-.004-1.094.5-1.32l.187-.086c.505-.223 1.096.004 1.32.51.224.504-.003 1.095-.508 1.32l-.178.078c-.132.06-.273.09-.41.09zm-404.063-.67c-.067 0-.137-.007-.205-.02l-.183-.037c-.543-.105-.897-.63-.792-1.172s.633-.894 1.172-.79l.21.04c.54.113.888.644.774 1.184-.098.47-.513.795-.977.795zm-6.075-1.237c-.063 0-.127-.006-.19-.02l-.21-.042c-.542-.112-.89-.643-.775-1.183.112-.54.64-.894 1.183-.774l.183.038c.542.104.896.63.79 1.172-.093.478-.51.81-.98.81zm415.748-.726c-.37 0-.725-.205-.898-.56-.243-.495-.04-1.094.456-1.338l.174-.086c.495-.244 1.094-.047 1.342.447.247.494.047 1.095-.447 1.342l-.186.09c-.14.07-.293.104-.44.104zm-421.82-.533c-.07 0-.14-.006-.21-.02l-.19-.04c-.542-.113-.89-.644-.775-1.184.113-.54.638-.89 1.183-.774l.198.04c.54.116.886.647.77 1.187-.1.47-.515.79-.977.79zm-6.067-1.283c-.073 0-.148-.008-.223-.024l-.178-.04c-.54-.11-.888-.642-.774-1.182s.644-.89 1.183-.773l.214.045c.538.123.876.66.753 1.197-.105.462-.518.777-.974.777zm433.387-1.038c-.353 0-.695-.188-.877-.52-.267-.483-.09-1.092.395-1.357l.187-.102c.49-.26 1.094-.074 1.353.412.26.487.076 1.093-.41 1.354l-.165.09c-.155.083-.32.123-.483.123zm-439.447-.27c-.068 0-.14-.008-.208-.022l-.207-.046c-.54-.12-.878-.655-.757-1.194.12-.537.653-.877 1.195-.757l.184.04c.54.116.885.647.77 1.188-.1.47-.515.79-.977.79zm-6.055-1.333c-.07 0-.14-.007-.21-.02l-.205-.047c-.54-.12-.878-.655-.757-1.194.12-.537.65-.878 1.194-.757l.184.04c.54.114.886.645.77 1.185-.098.47-.514.792-.976.792zm-6.052-1.352c-.073 0-.148-.008-.223-.024l-.192-.043c-.538-.12-.877-.655-.756-1.194.12-.538.655-.88 1.194-.757l.198.045c.538.123.876.658.754 1.197-.105.463-.518.778-.974.778zm456.92-.145c-.335 0-.66-.168-.85-.473-.292-.47-.148-1.086.32-1.377l.19-.115c.47-.28 1.085-.126 1.37.35.28.476.124 1.09-.352 1.37l-.153.095c-.16.1-.344.15-.524.15zM583.9 673.31c-.077 0-.156-.01-.235-.028l-.18-.04c-.538-.12-.877-.656-.756-1.195.12-.538.65-.88 1.193-.757l.212.05c.537.13.866.67.736 1.206-.108.457-.518.764-.97.764zm-6.04-1.4c-.072 0-.147-.008-.222-.024l-.206-.05c-.537-.127-.868-.667-.74-1.204s.67-.866 1.205-.74l.185.044c.538.122.876.657.754 1.196-.106.464-.52.778-.975.778zm474.21-.732c-.317 0-.628-.15-.822-.43-.315-.452-.204-1.075.25-1.39l.18-.126c.462-.306 1.082-.183 1.388.277.307.46.183 1.08-.277 1.386l-.15.102c-.174.12-.373.18-.57.18zm-480.244-.69c-.072 0-.146-.01-.22-.025l-.21-.05c-.538-.13-.867-.67-.737-1.207.13-.538.67-.87 1.206-.736l.178.042c.54.12.878.655.757 1.194-.104.465-.516.78-.974.78zm-6.03-1.445c-.076 0-.154-.01-.232-.027l-.197-.048c-.537-.13-.866-.67-.736-1.207.13-.536.676-.867 1.208-.735l.19.046c.538.13.87.67.74 1.206-.11.458-.52.767-.97.767zm-6.024-1.465c-.082 0-.164-.01-.247-.03l-.184-.046c-.536-.13-.865-.67-.735-1.207s.672-.868 1.207-.736l.205.05c.535.136.86.68.723 1.215-.114.45-.52.753-.968.753zm497.3-.053c-.3 0-.593-.133-.79-.386-.34-.438-.26-1.065.175-1.404l.158-.123c.438-.34 1.065-.26 1.403.175.34.437.26 1.064-.175 1.403l-.158.124c-.182.143-.4.21-.613.21zm-503.32-1.435c-.076 0-.154-.01-.232-.027l-.21-.053c-.536-.138-.858-.684-.72-1.218.137-.535.69-.856 1.217-.72l.178.045c.537.128.868.668.74 1.205-.11.46-.52.768-.972.768zm-6.012-1.512c-.077 0-.155-.01-.233-.027l-.21-.052c-.536-.138-.858-.684-.72-1.218.137-.535.69-.854 1.217-.72l.178.045c.537.128.868.668.74 1.205-.11.46-.52.768-.972.768zm514.09-1.015c-.277 0-.553-.114-.75-.34-.366-.413-.327-1.045.088-1.41l.66.75-.59-.812.078-.07c.414-.363 1.046-.325 1.412.09.365.414.326 1.046-.088 1.41l-.15.134c-.19.167-.426.25-.66.25zm-520.1-.517c-.082 0-.166-.01-.25-.03l-.192-.05c-.535-.14-.857-.685-.72-1.22.138-.534.69-.856 1.218-.72l.193.05c.534.14.856.685.72 1.22-.117.45-.523.75-.97.75zm-6-1.555c-.09 0-.177-.01-.265-.034l-.18-.047c-.535-.14-.857-.685-.72-1.22.138-.534.69-.854 1.218-.72l.207.056c.533.146.848.695.702 1.228-.12.445-.524.737-.963.737zm-5.997-1.575c-.088 0-.176-.012-.264-.035l-.18-.047c-.536-.138-.858-.684-.72-1.218.137-.535.69-.854 1.217-.72l.207.055c.533.146.848.695.702 1.228-.12.445-.523.737-.963.737zm536.556-.645c-.25 0-.5-.093-.693-.278-.398-.382-.41-1.016-.03-1.414l.14-.145c.383-.4 1.017-.41 1.414-.03.4.384.412 1.017.03 1.415l-.14.145c-.196.203-.458.307-.72.307zm-542.547-.953c-.083 0-.167-.01-.25-.03l-.207-.057c-.533-.146-.848-.695-.702-1.228.146-.534.7-.85 1.228-.702l.18.048c.535.138.857.684.72 1.218-.117.452-.524.75-.97.75zm-5.986-1.62c-.09 0-.18-.012-.268-.036l-.19-.05c-.532-.147-.847-.696-.7-1.23.144-.533.698-.847 1.227-.7l.196.053c.532.147.845.698.697 1.23-.123.444-.526.734-.963.734zm-5.976-1.64c-.087 0-.177-.012-.266-.036l-.188-.05c-.533-.147-.848-.696-.702-1.23.145-.533.693-.85 1.228-.7l.196.053c.532.147.845.698.697 1.23-.123.444-.525.734-.964.734zm558.605-.426c-.22 0-.443-.072-.63-.223-.428-.348-.493-.978-.145-1.406l.126-.154c.347-.43.976-.495 1.406-.146.43.348.494.978.146 1.406l-.126.155c-.197.245-.486.37-.777.37zm-564.565-1.233c-.093 0-.187-.013-.28-.04l-.175-.05c-.533-.145-.848-.694-.702-1.227.145-.534.696-.85 1.23-.702l.208.06c.53.154.836.71.68 1.24-.128.436-.526.72-.96.72zm-5.946-1.677c-.087 0-.175-.01-.263-.035l-.208-.06c-.53-.155-.835-.71-.68-1.24.155-.53.71-.834 1.24-.68l.174.05c.533.146.848.695.702 1.228-.12.445-.524.737-.964.737zm-5.96-1.706c-.093 0-.187-.013-.28-.04l-.188-.055c-.53-.153-.837-.708-.685-1.238.154-.53.708-.834 1.238-.685l.196.057c.53.155.835.71.68 1.24-.128.436-.526.72-.96.72zm580.132-.37c-.19 0-.383-.054-.554-.167-.46-.307-.584-.927-.277-1.387l.104-.157c.3-.463.92-.595 1.382-.294.464.3.596.92.295 1.383l-.117.177c-.193.288-.51.445-.834.445zm-586.086-1.36c-.094 0-.188-.012-.28-.04l-.192-.055c-.53-.156-.834-.71-.68-1.24.155-.53.71-.834 1.24-.68l-.28.96.374-.934.098.028c.53.155.835.71.68 1.24-.13.438-.527.72-.96.72zm-5.95-1.75c-.095 0-.192-.014-.29-.043l-.18-.053c-.53-.155-.836-.71-.68-1.24.154-.53.708-.835 1.24-.68l.2.06c.528.16.827.72.667 1.247-.13.432-.527.71-.956.71zm-5.94-1.77c-.092 0-.186-.014-.277-.04l-.21-.062c-.527-.163-.823-.723-.66-1.25.162-.526.722-.824 1.25-.662l.173.053c.53.152.838.707.685 1.237-.126.438-.526.723-.96.723zm601.126-.44c-.156 0-.315-.037-.464-.114-.49-.257-.678-.86-.42-1.35l.09-.173c.253-.49.856-.68 1.347-.43.49.254.682.857.43 1.348l-.097.184c-.18.34-.526.534-.887.534zm-607.062-1.353c-.096 0-.193-.013-.29-.042l-.195-.06c-.53-.163-.825-.723-.663-1.25.163-.526.723-.824 1.25-.662l.188.058c.528.16.827.72.667 1.247-.132.432-.53.71-.958.71zm-5.93-1.816c-.095 0-.192-.014-.29-.043l-.194-.06c-.528-.162-.824-.722-.662-1.25.163-.525.722-.824 1.25-.66l.188.057c.528.16.827.72.667 1.247-.132.432-.528.71-.958.71zm-5.92-1.84c-.102 0-.203-.014-.304-.046l-.183-.057c-.528-.162-.824-.722-.662-1.25.163-.525.722-.825 1.25-.66l.2.06c.526.17.817.73.65 1.258-.134.426-.528.697-.952.697zm621.487-.622c-.122 0-.247-.022-.368-.07-.513-.204-.764-.785-.56-1.3l.93.37-.895-.46.037-.095c.204-.513.786-.763 1.3-.56.512.203.763.784.56 1.298l-.073.186c-.155.393-.53.632-.93.632zm-627.402-1.237c-.097 0-.196-.014-.294-.044l-.204-.064c-.525-.17-.813-.733-.644-1.26.17-.523.73-.812 1.26-.643l.176.056c.528.162.824.722.662 1.25-.133.43-.528.705-.956.705zm-5.908-1.882c-.102 0-.205-.016-.308-.05l-.19-.06c-.525-.17-.813-.734-.644-1.26.17-.524.73-.813 1.26-.644l.19.06c.524.17.812.734.643 1.26-.136.424-.528.693-.95.693zm-5.9-1.904c-.103 0-.206-.017-.31-.05l-.19-.062c-.524-.17-.812-.733-.643-1.26.17-.523.73-.814 1.26-.643l.19.062c.524.17.812.733.643 1.26-.137.422-.53.692-.95.692zm641.113-.733c-.087 0-.175-.01-.263-.035-.533-.146-.848-.695-.702-1.228l.053-.193c.147-.533.702-.85 1.23-.7.532.145.847.694.7 1.227l-.052.193c-.12.445-.525.737-.965.737zm-647.008-1.196c-.107 0-.218-.017-.325-.054l-.172-.057c-.525-.17-.813-.734-.644-1.26.17-.524.732-.812 1.26-.644l.206.068c.522.18.8.748.62 1.27-.142.416-.53.677-.945.677zm-5.886-1.95c-.105 0-.21-.015-.313-.05l-.198-.065c-.524-.177-.805-.745-.628-1.268.177-.523.746-.805 1.268-.627l.18.06c.526.173.812.738.64 1.263-.14.42-.53.688-.95.688zm-5.88-1.97c-.106 0-.217-.02-.324-.056l-.185-.062c-.522-.177-.803-.745-.626-1.268.178-.523.746-.804 1.268-.627l.194.066c.522.18.8.748.62 1.27-.142.416-.53.676-.945.676zm660.057-.947c-.05 0-.1-.004-.148-.01-.548-.083-.924-.592-.843-1.138l.032-.21c.087-.544.588-.92 1.146-.827.545.088.915.602.827 1.147l-.028.185c-.074.497-.5.853-.988.853zm-665.926-1.05c-.106 0-.217-.02-.324-.056l-.185-.062c-.522-.177-.803-.745-.626-1.268.178-.523.75-.804 1.268-.627l.194.066c.522.18.8.748.62 1.27-.142.416-.53.676-.945.676zm-5.863-2.018c-.112 0-.227-.02-.338-.06l-.138-.047.61-1.904-.324.945.362-.934.164.057c.52.188.79.76.604 1.28-.147.408-.53.662-.94.662zm-5.855-2.042c-.106 0-.214-.017-.32-.053l-.206-.072c-.52-.188-.79-.76-.604-1.28.188-.52.76-.79 1.28-.603l.17.06c.523.178.804.746.627 1.27-.14.415-.53.678-.948.678zm678.25-1.056h-.045c-.552-.025-.98-.492-.955-1.044l.01-.2c.023-.55.52-.992 1.042-.954.552.023.98.49.955 1.042l-.01.2c-.023.536-.465.955-.998.955zm-684.096-1.01c-.11 0-.224-.02-.334-.058l-.192-.07c-.52-.187-.79-.76-.604-1.278.188-.52.76-.79 1.28-.604l.184.066c.52.184.793.755.608 1.276-.144.41-.53.667-.942.667zm-5.838-2.088c-.11 0-.224-.02-.334-.06l-.192-.067c-.52-.188-.79-.76-.604-1.28.187-.52.76-.79 1.28-.603l.184.066c.52.184.793.755.608 1.276-.144.412-.53.667-.942.667zm-5.83-2.113c-.117 0-.235-.02-.352-.063l-.174-.063c-.52-.187-.79-.76-.604-1.278.187-.52.76-.792 1.28-.604l.2.073c.517.195.778.772.585 1.29-.15.4-.53.647-.935.647zm695.713-.976c-.524 0-.965-.41-.996-.94l-.012-.2c-.032-.55.388-1.023.94-1.056.55-.013 1.022.39 1.056.94l.012.198c.032.55-.388 1.024-.94 1.057h-.06zm-701.532-1.16c-.112 0-.227-.018-.338-.058l-.2-.074c-.518-.194-.78-.77-.586-1.288s.77-.776 1.288-.585l.174.064c.52.187.79.76.604 1.278-.15.41-.532.663-.942.663zm-5.814-2.158c-.117 0-.235-.02-.352-.063l-.188-.07c-.517-.195-.778-.772-.585-1.29s.77-.774 1.287-.584l.188.07c.517.194.778.77.585 1.287-.15.402-.532.65-.936.65zm-5.802-2.184c-.12 0-.244-.02-.364-.068l-.175-.066c-.517-.194-.778-.77-.585-1.288s.77-.776 1.288-.585l.2.077c.514.2.77.78.567 1.296-.153.393-.53.635-.93.635zm712.492-.638c-.487 0-.914-.356-.988-.853l-.028-.186c-.088-.544.282-1.058.828-1.145.547-.092 1.06.283 1.146.827l.032.21c.08.546-.296 1.055-.842 1.137-.05.006-.1.01-.148.01zm-718.288-1.57c-.123 0-.248-.022-.37-.07l-.168-.064c-.517-.194-.778-.77-.585-1.287.194-.52.77-.777 1.288-.587l.205.078c.513.205.764.786.56 1.3-.155.39-.53.63-.93.63zm-5.784-2.234c-.118 0-.24-.02-.356-.065l-.194-.074c-.514-.2-.77-.78-.567-1.296s.78-.768 1.296-.567l.18.07c.516.195.774.773.578 1.29-.154.398-.533.643-.936.643zm-5.774-2.257c-.123 0-.248-.023-.37-.07l-.18-.072c-.515-.2-.77-.78-.568-1.296.2-.514.778-.77 1.296-.567l.19.075c.514.204.765.785.562 1.3-.157.39-.533.63-.93.63zm728.64-.002c-.45 0-.86-.307-.97-.765l-.05-.197c-.127-.537.204-1.077.74-1.205.542-.125 1.078.204 1.206.74l.046.192c.13.536-.2 1.077-.736 1.207-.078.02-.157.028-.236.028zm-734.407-2.28c-.125 0-.252-.024-.375-.074l-.18-.07c-.512-.205-.763-.786-.56-1.3.204-.513.787-.764 1.3-.56l.19.076c.513.208.76.79.552 1.303-.157.39-.53.624-.926.624zm-5.754-2.31c-.12 0-.244-.02-.364-.067l-.203-.08c-.51-.212-.754-.797-.544-1.308.21-.51.798-.75 1.307-.543l.168.067c.515.2.77.78.568 1.296-.154.395-.532.636-.932.636zm738.473-1.358c-.423 0-.815-.27-.952-.692l-.062-.19c-.17-.525.118-1.09.644-1.26.53-.17 1.09.12 1.26.645l.06.19c.17.525-.117 1.09-.643 1.26-.103.03-.206.047-.308.047zm-744.218-.974c-.126 0-.253-.023-.376-.073l-.19-.078c-.51-.21-.754-.796-.544-1.307.21-.512.8-.748 1.307-.543l.18.074c.51.207.758.79.55 1.302-.16.39-.533.624-.928.624zm-5.735-2.36c-.128 0-.257-.023-.382-.074l-.185-.076c-.51-.21-.753-.796-.543-1.307.21-.513.8-.75 1.307-.544l.185.076c.51.21.752.796.542 1.307-.16.385-.533.617-.925.617zm-5.724-2.384c-.132 0-.266-.025-.394-.08l-.174-.072c-.51-.21-.753-.796-.543-1.307.212-.51.8-.75 1.307-.543l.196.083c.508.218.743.806.525 1.312-.16.38-.53.607-.917.607zm752.632-.73l.93-.368-.958.297-.048-.117c-.202-.515.053-1.095.566-1.296.516-.203 1.095.053 1.296.567l.04.1-.897.45-.93.37zm-758.345-1.68c-.13 0-.26-.025-.387-.08l-.19-.08c-.508-.218-.743-.806-.525-1.312.218-.51.81-.745 1.312-.525l.177.075c.51.213.75.8.535 1.31-.16.38-.53.61-.922.61zm-5.7-2.438c-.134 0-.27-.026-.4-.083l-.177-.076c-.508-.218-.743-.806-.525-1.312.218-.51.808-.744 1.312-.525l.19.08c.505.222.737.81.517 1.317-.164.375-.53.6-.917.6zm762.493-.92c-.377 0-.737-.214-.907-.577l-.077-.163c-.245-.496-.04-1.095.455-1.34.496-.24 1.096-.037 1.34.457l.094.2c.232.5.017 1.095-.483 1.33-.138.063-.282.093-.424.093zm-768.184-1.546c-.14 0-.278-.028-.412-.09l-.165-.07c-.508-.22-.743-.807-.525-1.313.217-.508.804-.747 1.312-.525l.2.088c.505.228.73.82.5 1.322-.166.37-.53.588-.91.588zm-5.68-2.492c-.13 0-.265-.025-.393-.08l-.2-.09c-.504-.228-.728-.82-.5-1.322.228-.504.822-.728 1.322-.5l.164.073c.508.218.743.806.525 1.312-.162.38-.53.606-.92.606zm771.064-1.49c-.357 0-.703-.19-.884-.528l-.088-.164c-.267-.484-.09-1.093.395-1.358.483-.266 1.092-.09 1.357.395l.1.188c.262.487.077 1.093-.41 1.354-.15.077-.31.115-.47.115zm-776.73-1.03c-.135 0-.272-.026-.404-.085l-.188-.084c-.504-.227-.728-.82-.5-1.323.227-.5.82-.728 1.322-.5l.178.08c.505.225.73.815.508 1.32-.166.373-.53.594-.915.594zm-5.652-2.548c-.142 0-.285-.03-.423-.094l-.17-.078c-.504-.228-.728-.82-.5-1.322.228-.504.822-.728 1.322-.5l.194.088c.5.234.716.83.482 1.33-.17.363-.53.576-.906.576zm779.308-1.8c-.34 0-.67-.17-.857-.482l-.1-.167c-.29-.472-.14-1.087.332-1.375.47-.29 1.086-.14 1.374.333l.105.175c.285.473.133 1.087-.34 1.373-.16.098-.34.143-.515.143zm-784.948-.776c-.138 0-.277-.028-.41-.09l-.194-.088c-.5-.234-.716-.83-.482-1.33.234-.5.826-.716 1.33-.48l.17.077c.503.23.727.82.5 1.323-.17.37-.533.59-.914.59zm-5.626-2.605c-.142 0-.286-.03-.423-.094l-.182-.085c-.5-.234-.715-.83-.48-1.33.233-.5.826-.715 1.33-.482l.18.085c.5.235.717.83.483 1.33-.17.364-.53.577-.907.577zm787.264-1.855c-.323 0-.64-.156-.833-.445l-.117-.178c-.3-.464-.17-1.083.294-1.384.466-.3 1.083-.17 1.384.294l.104.157c.307.46.183 1.08-.277 1.387-.173.114-.365.168-.555.168zm-792.877-.78c-.147 0-.3-.032-.44-.102l-.163-.077c-.5-.234-.716-.83-.482-1.33.234-.5.83-.714 1.33-.482l.198.096c.495.244.7.843.456 1.34-.175.352-.53.557-.9.557zm-5.6-2.665c-.143 0-.29-.03-.428-.097l-.187-.09c-.497-.24-.705-.84-.465-1.336.24-.495.837-.704 1.336-.465l.174.083c.498.237.71.834.474 1.333-.17.36-.53.57-.904.57zm794.958-1.655c-.31 0-.613-.143-.81-.412l-.127-.18c-.316-.452-.204-1.075.25-1.39.45-.316 1.075-.205 1.39.248l.105.146c.325.446.227 1.07-.22 1.396-.178.13-.383.192-.587.192zm-800.542-1.04c-.146 0-.294-.032-.435-.1l-.186-.09c-.495-.245-.7-.844-.456-1.34.244-.495.843-.7 1.34-.456l.174.085c.497.242.705.84.465 1.337-.173.357-.53.565-.902.565zm-5.57-2.725c-.15 0-.302-.034-.445-.105l-.174-.086c-.496-.244-.7-.843-.457-1.34.243-.494.842-.7 1.34-.455l.185.093c.494.247.694.848.447 1.342-.176.35-.53.552-.896.552zm802.413-1.208c-.298 0-.592-.134-.79-.387l-.13-.168c-.333-.44-.247-1.067.193-1.4.438-.333 1.066-.25 1.4.19l.115.15c.34.436.26 1.063-.175 1.402-.18.144-.398.212-.612.212zm-807.966-1.55c-.148 0-.3-.034-.44-.104l-.19-.096c-.492-.25-.688-.853-.438-1.345s.85-.688 1.345-.438l.168.084c.495.245.7.844.456 1.34-.175.354-.53.56-.9.56zm-5.537-2.79c-.152 0-.307-.034-.452-.107l-.18-.09c-.49-.25-.687-.854-.437-1.346.25-.49.85-.688 1.345-.438l.18.09c.49.25.687.853.437 1.345-.177.346-.53.546-.893.546zm809.643-.51c-.29 0-.58-.126-.777-.37l-.114-.138c-.357-.422-.305-1.053.117-1.41.42-.354 1.05-.304 1.41.117l.14.17c.347.43.28 1.06-.147 1.406-.187.15-.41.224-.63.224zm-815.165-2.312c-.158 0-.32-.038-.47-.117l-.16-.082c-.492-.25-.688-.853-.438-1.345s.85-.688 1.345-.438l.195.1c.487.262.672.867.412 1.355-.182.335-.528.528-.885.528zm811.162-2.422c-.276 0-.552-.114-.75-.338l-.145-.167c-.356-.42-.304-1.05.118-1.408.42-.354 1.052-.305 1.41.118l.116.134c.365.415.326 1.047-.088 1.412-.19.168-.426.25-.66.25zm-816.667-.432c-.152 0-.307-.035-.452-.108l-.194-.102c-.487-.26-.672-.866-.412-1.354.26-.486.863-.672 1.354-.41l.16.082c.49.25.687.853.437 1.345-.177.347-.53.547-.893.547zm-5.487-2.89c-.156 0-.315-.036-.464-.113l-.184-.097c-.487-.26-.672-.865-.412-1.353.26-.486.863-.67 1.354-.412l.17.09c.49.258.68.862.422 1.352-.18.34-.526.535-.887.535zm818.025-1.303c-.27 0-.54-.107-.736-.322l-.14-.154c-.37-.41-.34-1.043.07-1.412.41-.37 1.043-.34 1.413.072l.13.14c.373.407.346 1.04-.06 1.414-.192.176-.435.263-.677.263zm-823.492-1.618c-.163 0-.328-.04-.48-.124l-.165-.088c-.486-.26-.67-.866-.41-1.354.26-.487.864-.67 1.353-.412l.187.102c.484.266.66.874.395 1.358-.184.33-.527.518-.88.518zm819.25-2.903c-.262 0-.524-.105-.72-.31l-.14-.144c-.382-.398-.37-1.03.03-1.414.395-.38 1.03-.37 1.413.03l.138.144c.383.398.37 1.032-.03 1.414-.193.187-.442.28-.69.28zm-824.7-.058c-.158 0-.32-.038-.47-.118l-.187-.102c-.485-.266-.662-.874-.396-1.357.266-.484.873-.66 1.358-.395l.164.09c.487.26.672.865.41 1.353-.177.336-.522.53-.88.53zm-5.43-2.994c-.17 0-.34-.043-.498-.134l-.158-.088c-.483-.266-.66-.874-.394-1.357.266-.484.874-.662 1.357-.396l.192.107c.48.276.644.888.367 1.366-.184.322-.52.502-.866.502zm825.788-1.373c-.256 0-.512-.098-.707-.293l-.142-.142c-.39-.39-.39-1.023 0-1.414s1.023-.39 1.414 0l.14.142c.392.39.392 1.023 0 1.414-.194.195-.45.293-.706.293zm-831.197-1.66c-.163 0-.328-.04-.48-.123l-.19-.108c-.48-.275-.645-.887-.368-1.365.274-.48.885-.645 1.364-.368l.156.09c.484.265.66.873.395 1.357-.183.33-.526.516-.878.516zm826.76-2.672c-.25 0-.498-.093-.692-.278l-.145-.14c-.398-.382-.41-1.015-.03-1.413.383-.4 1.018-.41 1.415-.03l.145.14c.398.382.41 1.016.03 1.414-.197.203-.46.307-.723.307zm-832.147-.397c-.167 0-.336-.042-.492-.13l-.18-.104c-.48-.275-.644-.887-.367-1.365.275-.48.888-.645 1.366-.367l.168.096c.48.272.65.883.377 1.363-.183.324-.522.506-.87.506zm-5.366-3.11c-.174 0-.35-.044-.51-.14l-.16-.094c-.48-.275-.645-.887-.368-1.365.274-.48.887-.645 1.365-.367l.185.106c.476.282.632.896.35 1.37-.188.316-.52.49-.86.49zm832.994-.738c-.242 0-.485-.087-.677-.264l-.147-.137c-.406-.374-.432-1.007-.058-1.413.375-.405 1.007-.43 1.413-.058l.146.135c.407.375.434 1.008.06 1.414-.197.216-.467.324-.736.324zm-838.335-2.41c-.176 0-.354-.046-.516-.144l-.165-.1c-.476-.28-.632-.895-.35-1.37.28-.476.897-.63 1.37-.35l.178.106c.473.285.625.9.34 1.373-.188.313-.518.485-.857.485zm833.74-1.752c-.236 0-.473-.082-.662-.25l-.157-.14c-.41-.37-.442-1.003-.072-1.413.37-.41 1.003-.443 1.413-.072l.14.126c.416.365.455.997.09 1.412-.2.224-.475.338-.75.338zm-839.058-1.438c-.178 0-.357-.047-.52-.146l-.167-.1c-.473-.286-.625-.9-.34-1.374.285-.474.9-.626 1.373-.34l.176.106c.472.287.62.903.333 1.374-.19.31-.518.48-.855.48zm834.39-2.645c-.232 0-.465-.08-.654-.244l-.15-.13c-.417-.36-.464-.993-.103-1.41.36-.42.99-.466 1.41-.105l.152.132c.417.36.462.992.1 1.41-.196.23-.476.346-.755.346zm-839.682-.588c-.176 0-.354-.046-.516-.144l-.18-.11c-.47-.29-.614-.908-.323-1.377.292-.47.908-.612 1.377-.322l.16.1c.473.285.625.9.34 1.372-.188.312-.518.483-.857.483zm-5.265-3.275c-.187 0-.375-.052-.544-.16l-.15-.097c-.47-.29-.614-.908-.323-1.377.292-.468.91-.612 1.378-.322l.187.117c.463.302.595.92.294 1.385-.194.295-.515.455-.842.455zm840.217-.146c-.228 0-.457-.078-.645-.236l-.138-.115c-.43-.348-.495-.978-.146-1.406.347-.43.976-.495 1.406-.146l.17.142c.42.357.474.988.117 1.41-.2.23-.48.352-.765.352zM169.98 511.51c-.18 0-.362-.05-.526-.15l-.186-.118c-.463-.3-.595-.92-.294-1.384.3-.463.92-.596 1.384-.294l.15.097c.47.292.613.91.322 1.378-.188.304-.515.472-.85.472zm840.664-.764c-.22 0-.443-.073-.63-.224l-.154-.126c-.43-.348-.495-.978-.146-1.406.348-.43.977-.495 1.406-.146l.155.126c.43.348.495.978.146 1.406-.196.244-.485.37-.776.37zm-845.87-2.602c-.19 0-.384-.055-.555-.168l-.158-.103c-.463-.3-.595-.92-.294-1.383.3-.464.92-.597 1.384-.295l.177.116c.46.308.583.928.276 1.388-.192.29-.51.446-.833.446zm841.025-1.267c-.215 0-.432-.068-.614-.21l-.173-.138c-.43-.35-.495-.98-.146-1.407.348-.43.977-.495 1.406-.146l.142.11c.436.34.514.968.175 1.404-.198.254-.493.387-.79.387zm-846.202-2.148c-.193 0-.39-.057-.56-.174l-.16-.106c-.46-.307-.584-.928-.277-1.387.307-.46.926-.584 1.388-.277l.173.116c.458.31.577.932.267 1.39-.195.284-.51.437-.83.437zm841.304-1.658c-.214 0-.43-.068-.613-.21l-.15-.115c-.44-.334-.525-.962-.19-1.4.333-.44.96-.526 1.4-.193l.168.13c.436.34.515.967.175 1.403-.198.252-.493.385-.79.385zm-846.448-1.807c-.194 0-.39-.057-.563-.175l-.16-.11c-.458-.31-.577-.932-.267-1.39s.933-.574 1.39-.265l.167.114c.456.31.573.933.26 1.39-.193.282-.507.435-.826.435zm841.505-1.934c-.21 0-.418-.063-.598-.197l-.167-.125c-.44-.334-.526-.962-.192-1.4.335-.44.963-.525 1.4-.193l.154.115c.442.33.534.957.204 1.4-.195.262-.495.4-.8.4zm-846.614-1.58c-.197 0-.396-.06-.57-.18l-.164-.115c-.453-.315-.564-.938-.25-1.392s.94-.568 1.393-.25l.164.115c.452.315.563.938.248 1.392-.195.28-.506.43-.822.43zm841.623-2.103c-.205 0-.41-.062-.588-.19l-.17-.126c-.443-.33-.535-.956-.205-1.398s.956-.533 1.4-.204l.15.11c.447.326.546.95.22 1.397-.194.27-.5.412-.808.412zm-846.696-1.464c-.2 0-.4-.06-.577-.185l-.166-.118c-.448-.32-.553-.945-.23-1.395.32-.45.945-.554 1.394-.232l.16.114c.45.32.557.943.237 1.394-.194.276-.502.423-.816.423zm-5.033-3.623c-.207 0-.416-.064-.596-.198l-.15-.11c-.448-.325-.547-.95-.222-1.397.323-.447.95-.546 1.396-.22l.17.124c.443.33.535.956.205 1.398-.195.263-.496.402-.802.402zm-4.99-3.68c-.21 0-.422-.067-.603-.204l-.153-.115c-.442-.33-.534-.956-.204-1.398s.956-.534 1.4-.204l.166.125c.44.334.525.962.192 1.4-.196.26-.495.396-.797.396zm-4.946-3.74c-.21 0-.423-.066-.604-.203l-.168-.13c-.436-.34-.515-.967-.175-1.403.34-.435.967-.515 1.403-.175l.148.113c.44.334.526.962.192 1.4-.196.26-.495.397-.796.397zm-4.898-3.803c-.22 0-.443-.073-.63-.224l-.14-.11c-.437-.34-.516-.968-.176-1.404.34-.437.967-.517 1.403-.176l.173.137c.43.35.495.98.146 1.407-.196.244-.485.37-.776.37zm-4.846-3.866c-.22 0-.443-.072-.63-.223l-.154-.126c-.43-.347-.495-.977-.146-1.405.347-.43.976-.495 1.406-.146l.155.125c.43.348.496.978.147 1.406-.197.245-.486.37-.777.37zm-4.794-3.934c-.22 0-.443-.073-.63-.224l-.168-.14c-.422-.358-.475-.99-.118-1.41.356-.422.987-.477 1.41-.118l.137.115c.43.347.495.977.146 1.405-.197.245-.486.37-.777.37zm-4.732-4.005c-.23 0-.464-.08-.653-.242l-.15-.132c-.42-.36-.464-.992-.103-1.41s.992-.463 1.41-.102l.15.13c.418.36.465.992.104 1.41-.196.23-.476.347-.756.347zm-4.67-4.08c-.238 0-.478-.084-.67-.257l-.14-.125c-.415-.365-.454-.997-.09-1.412.368-.414 1-.453 1.412-.088l.158.14c.41.37.442 1.003.072 1.413-.196.22-.468.33-.74.33zm-4.597-4.158c-.242 0-.485-.088-.678-.265l-.147-.135c-.406-.374-.434-1.007-.06-1.413.375-.408 1.01-.434 1.413-.06l.148.136c.406.374.432 1.007.058 1.413-.197.214-.466.322-.735.322zm-4.524-4.24c-.25 0-.5-.093-.692-.278l-.144-.14c-.398-.382-.412-1.015-.03-1.413.384-.396 1.016-.41 1.415-.028l.146.14c.398.382.41 1.015.03 1.413-.197.204-.46.307-.723.307zm-4.44-4.328c-.255 0-.51-.098-.706-.293l-.142-.14c-.39-.392-.39-1.024 0-1.415s1.023-.39 1.414 0l.14.142c.392.39.392 1.023 0 1.414-.195.196-.45.294-.706.294zm-4.347-4.42c-.263 0-.525-.103-.722-.308l-.14-.145c-.38-.397-.368-1.03.03-1.413.398-.38 1.03-.368 1.414.03l.14.144c.38.4.368 1.032-.03 1.415-.193.186-.443.28-.692.28zm-4.246-4.518c-.273 0-.545-.11-.742-.33l-.13-.14c-.372-.407-.347-1.04.06-1.414.406-.373 1.04-.348 1.414.06l.14.154c.37.41.34 1.043-.07 1.412-.194.173-.433.258-.672.258zm-4.134-4.62c-.284 0-.566-.12-.765-.355l-.116-.133c-.365-.415-.326-1.047.088-1.412s1.045-.326 1.412.09l.145.165c.355.42.303 1.052-.12 1.41-.187.157-.416.235-.644.235zm-4.008-4.73c-.284 0-.566-.12-.765-.353l-.14-.17c-.35-.43-.282-1.06.146-1.406.43-.35 1.06-.283 1.405.146l.114.14c.355.42.303 1.05-.118 1.408-.187.158-.416.237-.644.237zm-3.866-4.844c-.302 0-.6-.136-.798-.396l-.114-.148c-.34-.437-.26-1.064.175-1.403.438-.34 1.064-.26 1.403.175l.13.168c.334.44.248 1.067-.192 1.4-.18.137-.393.204-.604.204zm-3.708-4.966c-.316 0-.627-.15-.82-.43l-.105-.145c-.326-.445-.228-1.07.22-1.395.447-.324 1.072-.227 1.396.22l.128.18c.315.453.204 1.076-.25 1.392-.173.12-.373.18-.57.18zm-3.527-5.096c-.327 0-.648-.16-.84-.456l-.104-.156c-.307-.46-.183-1.08.277-1.387.46-.305 1.08-.182 1.387.278l.117.177c.3.464.17 1.083-.294 1.384-.168.11-.357.16-.543.16zm-3.32-5.23c-.337 0-.666-.17-.854-.48l-.106-.175c-.285-.473-.133-1.088.34-1.373.472-.287 1.086-.134 1.373.34l.1.167c.29.47.14 1.086-.332 1.373-.163.1-.343.146-.52.146zm-3.085-5.373c-.357 0-.703-.192-.884-.53l-.095-.175c-.26-.487-.075-1.093.412-1.353.49-.263 1.094-.076 1.353.41l-.882.47.927-.388.05.094c.26.487.076 1.093-.41 1.353-.15.08-.312.117-.47.117zm-2.81-5.52c-.37 0-.726-.204-.9-.558l-.093-.2c-.235-.5-.02-1.095.48-1.33.5-.23 1.096-.017 1.33.483l.077.163c.244.496.04 1.095-.456 1.34-.14.07-.29.102-.44.102zm-2.498-5.664c-.4 0-.777-.24-.932-.636l-.04-.1.897-.45.93-.37-.93.37.957-.297.048.118c.2.515-.054 1.095-.567 1.296-.12.048-.243.07-.364.07zm-2.132-5.81c-.423 0-.814-.27-.95-.69l-.063-.19c-.17-.526.117-1.09.643-1.26.53-.17 1.09.12 1.26.644l.06.19c.17.525-.117 1.09-.643 1.26-.103.03-.206.047-.308.047zm-1.712-5.943c-.452 0-.862-.31-.972-.768l-.046-.19c-.13-.537.2-1.078.736-1.208.535-.13 1.078.2 1.207.736l.048.197c.128.537-.203 1.077-.74 1.205-.078.02-.156.028-.233.028zm-1.226-6.057c-.488 0-.915-.357-.988-.854l-.03-.196c-.08-.546.295-1.055.842-1.137.547-.077 1.056.296 1.137.842l-.99.146 1.003-.063.018.115c.08.546-.298 1.055-.844 1.135-.05.007-.1.01-.148.01zm-.682-6.138c-.525 0-.966-.41-.997-.94l-.012-.2c-.033-.55.388-1.024.94-1.057.544-.022 1.023.39 1.056.94l.01.198c.033.55-.387 1.024-.938 1.057l-.06.002zm-.075-6.187h-.045c-.552-.025-.98-.492-.955-1.044l.01-.2c.022-.55.487-.992 1.042-.954.55.024.978.49.954 1.043l-.01.2c-.023.536-.466.955-.997.955zm.578-6.17c-.053 0-.106-.004-.16-.013-.546-.088-.916-.602-.828-1.146l.028-.187c.082-.546.598-.91 1.137-.842.547.083.923.592.842 1.138l-.032.21c-.08.49-.505.84-.987.84zm1.254-6.067c-.084 0-.168-.01-.25-.03-.536-.138-.858-.684-.72-1.218l.055-.207c.146-.534.7-.85 1.228-.702.533.146.848.695.702 1.228l-.048.18c-.117.45-.523.75-.968.75zm1.92-5.886c-.122 0-.245-.02-.365-.068-.514-.2-.77-.78-.567-1.296l.075-.19c.204-.513.786-.763 1.3-.56.512.203.763.784.56 1.298l-.07.18c-.157.395-.535.636-.934.636zm2.556-5.637c-.16 0-.32-.038-.47-.117-.487-.26-.672-.866-.412-1.354l.09-.172c.257-.488.86-.677 1.352-.42.49.256.677.86.42 1.35l-.096.184c-.18.336-.526.53-.884.53zm3.14-5.327c-.186 0-.374-.052-.542-.16-.464-.302-.596-.92-.295-1.385l.116-.177c.306-.46.925-.584 1.387-.277.46.308.584.928.277 1.388l-.104.157c-.19.294-.512.455-.84.455zm3.65-4.996c-.22 0-.442-.073-.628-.224-.43-.348-.495-.978-.146-1.406l.126-.155c.347-.43.976-.496 1.406-.147.43.348.495.978.146 1.406l-.126.154c-.197.244-.486.37-.777.37zm4.09-4.645c-.25 0-.5-.094-.693-.28-.398-.382-.41-1.015-.03-1.413l.14-.145c.382-.397 1.015-.41 1.414-.03.398.383.412 1.017.03 1.415l-.14.145c-.196.204-.46.307-.722.307zm4.45-4.303c-.272 0-.544-.11-.74-.33-.37-.41-.34-1.043.07-1.412l.158-.14c.415-.365 1.046-.327 1.412.087.365.415.326 1.047-.088 1.412l-.142.125c-.19.172-.43.257-.67.257zm4.755-3.97c-.297 0-.592-.132-.79-.385-.338-.437-.26-1.064.176-1.403l.158-.124c.438-.342 1.065-.26 1.403.175.34.438.26 1.065-.175 1.404l-.158.123c-.182.143-.4.21-.613.21zm5-3.658c-.323 0-.64-.157-.833-.446-.307-.46-.183-1.08.277-1.387l.148-.102c.453-.315 1.075-.204 1.392.25.315.452.204 1.075-.25 1.39l-.18.126c-.17.115-.363.17-.554.17zm5.2-3.37c-.343 0-.675-.175-.862-.49-.28-.475-.125-1.088.35-1.37l.154-.094c.47-.29 1.086-.146 1.377.322.29.47.146 1.086-.323 1.377l-.188.115c-.162.095-.338.14-.51.14zm5.362-3.104c-.357 0-.703-.192-.884-.53-.26-.486-.075-1.092.412-1.353l.165-.09c.48-.265 1.09-.09 1.357.396.267.482.09 1.09-.394 1.356l-.188.102c-.15.08-.31.118-.468.118zm5.497-2.86c-.368 0-.722-.202-.897-.553-.247-.494-.047-1.095.447-1.342l.186-.09c.497-.243 1.096-.04 1.34.455.242.496.038 1.095-.457 1.34l-.175.085c-.143.072-.296.106-.446.106zm5.608-2.638c-.39 0-.758-.227-.92-.606-.218-.507.018-1.095.525-1.312l.165-.073c.5-.228 1.095-.004 1.322.5.228.503.004 1.095-.5 1.322l-.2.088c-.127.054-.26.08-.392.08zm5.7-2.432c-.4 0-.777-.24-.932-.636-.2-.515.054-1.095.567-1.296l.168-.068c.51-.205 1.097.03 1.308.543.21.51-.033 1.095-.543 1.306l-.203.082c-.12.046-.242.068-.364.068zm5.777-2.247c-.41 0-.794-.255-.94-.663-.188-.52.082-1.092.603-1.28l.174-.063c.518-.19 1.095.067 1.288.585s-.068 1.093-.585 1.287l-.2.074c-.114.04-.228.06-.34.06zm5.843-2.075c-.415 0-.803-.26-.945-.675-.18-.522.098-1.092.62-1.27l.194-.067c.523-.176 1.09.104 1.268.627.177.522-.104 1.09-.627 1.268l-.185.062c-.108.037-.218.055-.325.055zm5.896-1.915c-.424 0-.817-.27-.953-.696-.166-.526.125-1.09.65-1.257l.2-.062c.53-.166 1.088.135 1.25.662.163.527-.133 1.087-.66 1.25l-.184.057c-.1.03-.2.046-.302.046zm5.94-1.77c-.437 0-.84-.29-.962-.732-.147-.532.165-1.083.697-1.23l.182-.052c.53-.15 1.085.154 1.237.685s-.154 1.086-.686 1.238l-.202.058c-.09.023-.18.035-.267.035zm5.98-1.632c-.438 0-.842-.292-.963-.737-.145-.53.17-1.08.703-1.227l.207-.055c.53-.134 1.08.185 1.218.72.138.534-.185 1.08-.72 1.218l-.18.047c-.087.023-.175.035-.263.035zm6.016-1.507c-.452 0-.862-.308-.972-.767-.128-.537.203-1.077.74-1.205l.19-.046c.537-.132 1.078.2 1.208.736.13.536-.2 1.077-.736 1.207l-.197.048c-.078.02-.156.028-.233.028zm6.042-1.387c-.462 0-.878-.322-.978-.793-.114-.54.23-1.07.77-1.186l.185-.04c.546-.122 1.073.22 1.193.757.12.54-.218 1.075-.757 1.195l-.206.046c-.07.016-.14.023-.208.023zm6.067-1.28c-.465 0-.88-.324-.98-.796-.112-.54.234-1.07.775-1.183l.21-.042c.542-.105 1.066.25 1.172.79s-.25 1.068-.79 1.173l-.184.036c-.067.017-.137.023-.204.023zm6.087-1.173c-.47 0-.888-.332-.98-.81-.105-.542.25-1.067.79-1.172l.212-.04c.544-.095 1.06.266 1.16.81.097.543-.266 1.062-.81 1.16l-.182.033c-.064.014-.13.02-.19.02zm6.106-1.08c-.477 0-.898-.34-.983-.825-.097-.544.267-1.062.81-1.158l.21-.035c.545-.1 1.06.28 1.15.824.088.545-.28 1.06-.826 1.15l-.186.03c-.058.01-.117.015-.175.015zm6.12-.984c-.483 0-.908-.35-.987-.84-.088-.546.282-1.06.827-1.147l.213-.033c.545-.092 1.055.3 1.135.844.08.547-.296 1.056-.843 1.136l-.185.028c-.053.008-.107.012-.16.012zm6.135-.9c-.487 0-.914-.355-.988-.852-.08-.546.296-1.055.842-1.137l.215-.03c.546-.074 1.05.314 1.122.86s-.313 1.05-.86 1.123l-.183.025c-.05.008-.1.012-.15.012zm6.146-.816c-.5 0-.932-.373-.992-.882-.065-.548.326-1.046.875-1.11l.186-.024c.54-.07 1.05.312 1.122.86.072.547-.312 1.05-.86 1.122l-.21.027c-.042.005-.082.007-.12.007zm6.156-.74c-.507 0-.94-.382-.994-.896-.057-.55.344-1.04.893-1.098l.184-.02c.554-.076 1.046.326 1.11.875s-.328 1.047-.876 1.11l-.214.025c-.036.004-.07.006-.104.006zm6.165-.664c-.507 0-.94-.383-.994-.897-.056-.55.345-1.042.894-1.1l.2-.02c.552-.056 1.04.344 1.097.893.058.55-.343 1.04-.892 1.098l-.2.022c-.035.002-.07.004-.103.004z"/><path fill="#565999" d="M176.446 855.642c-2.03 0-4.057-.04-6.02-.115l.058-1.498c1.945.074 3.95.112 5.963.112v1.5zm4.014-.047l-.035-1.5c1.94-.046 3.945-.127 5.964-.24l.083 1.497c-2.035.114-4.057.196-6.013.243zm-14.047-.28c-2.03-.138-4.05-.32-6.003-.543l.17-1.49c1.93.22 3.927.4 5.935.536l-.102 1.496zm24.062-.23l-.115-1.496c1.94-.15 3.94-.332 5.948-.543l.156 1.492c-2.022.212-4.037.396-5.99.545zm-34.052-.835c-2.02-.3-4.02-.654-5.943-1.054l.305-1.47c1.897.395 3.868.744 5.86 1.04l-.222 1.484zm44.024-.165l-.184-1.488c1.958-.24 3.95-.51 5.923-.802l.22 1.484c-1.985.292-3.99.564-5.96.805zm9.92-1.42l-.24-1.48c1.94-.315 3.905-.657 5.89-1.023l.27 1.475c-1.993.367-3.967.71-5.92 1.03zm-63.813-.365c-1.983-.498-3.938-1.06-5.81-1.667l.464-1.426c1.84.597 3.76 1.148 5.71 1.638l-.364 1.455zm73.668-1.42l-.292-1.47c1.935-.384 3.886-.79 5.854-1.22l.32 1.464c-1.978.432-3.94.84-5.882 1.227zm-83.282-1.588c-1.915-.73-3.787-1.533-5.563-2.385l.648-1.354c1.74.834 3.573 1.62 5.45 2.337l-.535 1.402zm93.073-.515l-.338-1.46c1.923-.444 3.862-.91 5.818-1.396l.36 1.456c-1.962.49-3.91.956-5.84 1.4zm9.723-2.385l-.377-1.45c1.91-.498 3.838-1.015 5.78-1.55l.397 1.445c-1.947.537-3.88 1.056-5.8 1.555zm-111.95-1.337c-1.783-.99-3.517-2.064-5.153-3.19l.852-1.235c1.596 1.1 3.29 2.147 5.03 3.115l-.728 1.31zm121.606-1.303l-.412-1.44c1.9-.545 3.814-1.107 5.74-1.69l.435 1.437c-1.935.582-3.855 1.146-5.763 1.692zm9.588-2.864l-.445-1.432c1.89-.587 3.79-1.192 5.704-1.812l.462 1.426c-1.92.622-3.826 1.23-5.722 1.818zm-139.6-1.43c-1.586-1.26-3.114-2.612-4.544-4.018l1.052-1.07c1.392 1.37 2.88 2.686 4.426 3.913l-.934 1.174zm149.126-1.642l-.475-1.423c1.88-.627 3.768-1.27 5.67-1.928l.49 1.418c-1.906.66-3.8 1.305-5.684 1.933zm9.46-3.256l-.5-1.414c1.866-.662 3.743-1.34 5.632-2.032l.516 1.408c-1.893.694-3.776 1.374-5.647 2.038zm-165.91-2.058c-.213-.24-.424-.485-.632-.732-1.097-1.29-2.148-2.648-3.127-4.04l1.227-.862c.952 1.354 1.977 2.676 3.044 3.933.203.24.406.476.612.71l-1.123.992zm175.31-1.373l-.526-1.405c1.855-.695 3.722-1.405 5.596-2.13l.54 1.398c-1.88.727-3.75 1.44-5.61 2.136zm9.337-3.59l-.55-1.395c1.846-.727 3.7-1.466 5.563-2.22l.562 1.392c-1.866.754-3.724 1.495-5.575 2.224zm-190.618-3.2c-1.032-1.715-1.993-3.516-2.856-5.355l1.356-.637c.842 1.79 1.778 3.546 2.784 5.217l-1.285.774zm199.898-.535l-.57-1.387c1.835-.755 3.678-1.523 5.53-2.303l.58 1.383c-1.854.78-3.7 1.55-5.54 2.307zm9.222-3.872l-.59-1.38c1.824-.78 3.656-1.573 5.495-2.38l.602 1.374c-1.843.807-3.68 1.602-5.507 2.386zm9.168-4l-.61-1.37c1.815-.807 3.637-1.624 5.464-2.454l.62 1.364c-1.83.832-3.656 1.65-5.474 2.46zm-222.744-.664c-.728-1.852-1.384-3.78-1.952-5.738l1.44-.418c.556 1.912 1.197 3.8 1.907 5.607l-1.396.55zm231.856-3.458l-.627-1.363c1.804-.83 3.614-1.67 5.432-2.522l.637 1.357c-1.823.853-3.637 1.695-5.444 2.527zm9.06-4.234l-.642-1.355c1.794-.852 3.595-1.714 5.402-2.587l.652 1.35c-1.81.874-3.613 1.74-5.41 2.592zM98.66 805.626c-.446-1.923-.828-3.923-1.134-5.943l1.482-.225c.3 1.982.675 3.943 1.11 5.83l-1.46.338zm252.896-2.39l-.658-1.347c1.785-.874 3.576-1.757 5.372-2.65l.668 1.344c-1.8.895-3.593 1.778-5.382 2.653zm8.96-4.442l-.674-1.34c1.776-.893 3.557-1.796 5.344-2.708l.682 1.336c-1.79.914-3.574 1.817-5.352 2.712zm-263.5-3.11c-.205-1.952-.352-3.98-.435-6.024l1.5-.06c.082 2.012.226 4.007.428 5.93l-1.492.155zm272.41-1.428l-.69-1.334c1.768-.91 3.54-1.832 5.315-2.763l.698 1.327c-1.778.933-3.554 1.856-5.323 2.77zm8.862-4.632l-.7-1.326c1.756-.93 3.52-1.868 5.286-2.817l.71 1.323c-1.77.95-3.535 1.89-5.296 2.82zm-280.295-3.99h-1.5v-.3c0-1.863.048-3.79.144-5.728l1.498.074c-.094 1.913-.142 3.815-.142 5.655v.3zm289.11-.73l-.714-1.317c1.748-.948 3.502-1.904 5.26-2.868l.72 1.313c-1.76.966-3.515 1.924-5.266 2.872zm8.77-4.8l-.727-1.313c1.74-.963 3.484-1.935 5.232-2.916l.734 1.31c-1.75.98-3.497 1.953-5.24 2.92zm-297.478-4.388l-1.495-.12c.16-1.96.367-3.976.618-5.99l1.488.185c-.248 1.994-.454 3.987-.61 5.926zm306.203-.5l-.738-1.305c1.732-.978 3.467-1.966 5.206-2.962l.746 1.3c-1.742 1-3.48 1.988-5.214 2.97zm8.68-4.96l-.75-1.3c1.724-.994 3.45-1.998 5.182-3.008l.756 1.295c-1.734 1.012-3.462 2.016-5.188 3.013zm-313.73-4.404l-1.48-.225c.295-1.954.635-3.95 1.01-5.932l1.474.277c-.372 1.966-.71 3.944-1.003 5.88zm322.367-.633l-.762-1.294c1.715-1.01 3.434-2.027 5.155-3.054l.768 1.29c-1.723 1.026-3.444 2.045-5.16 3.057zm8.593-5.112l-.77-1.285c1.706-1.025 3.416-2.057 5.13-3.097l.776 1.283c-1.715 1.04-3.427 2.073-5.136 3.098zm-329.177-4.036l-1.466-.31c.407-1.926.857-3.898 1.338-5.865l1.457.355c-.477 1.953-.924 3.91-1.33 5.82zm337.73-1.142l-.782-1.28c1.7-1.038 3.4-2.083 5.105-3.136l.79 1.275c-1.707 1.054-3.41 2.1-5.113 3.14zm8.51-5.248l-.794-1.273c1.69-1.053 3.384-2.112 5.08-3.178l.8 1.27c-1.7 1.066-3.394 2.126-5.087 3.18zm-343.93-3.288l-1.45-.383c.504-1.905 1.047-3.854 1.613-5.792l1.44.422c-.563 1.924-1.103 3.86-1.604 5.754zm352.4-2.026l-.804-1.268c1.683-1.064 3.368-2.137 5.056-3.215l.81 1.264c-1.69 1.08-3.378 2.152-5.063 3.218zm8.426-5.378l-.812-1.262c1.674-1.077 3.353-2.162 5.032-3.253l.816 1.258c-1.68 1.093-3.36 2.178-5.036 3.257zm-358.074-2.164l-1.432-.445c.587-1.888 1.203-3.795 1.85-5.718l1.42.477c-.64 1.912-1.253 3.807-1.838 5.686zm366.462-3.275l-.82-1.255c1.667-1.09 3.336-2.187 5.008-3.29l.826 1.253c-1.675 1.104-3.346 2.2-5.014 3.293zm8.348-5.5l-.83-1.25c1.66-1.1 3.32-2.21 4.984-3.325l.836 1.246c-1.666 1.118-3.33 2.227-4.99 3.33zm-371.678-.68l-1.414-.497c.657-1.87 1.342-3.752 2.053-5.648l1.404.525c-.707 1.89-1.387 3.762-2.043 5.62zm379.985-4.88l-.84-1.244c1.653-1.113 3.307-2.234 4.962-3.36l.844 1.24c-1.658 1.128-3.313 2.25-4.967 3.364zm-376.52-4.464l-1.4-.543c.72-1.848 1.464-3.707 2.23-5.58l1.39.568c-.766 1.867-1.506 3.718-2.22 5.556zm384.79-1.153l-.85-1.238c1.646-1.125 3.29-2.257 4.94-3.395l.852 1.234c-1.65 1.14-3.296 2.272-4.943 3.4zm8.23-5.675l-.855-1.232c1.637-1.137 3.274-2.28 4.915-3.428l.86 1.23c-1.642 1.148-3.282 2.292-4.92 3.43zm-389.266-2.407l-1.38-.583c.77-1.826 1.567-3.664 2.386-5.514l1.37.607c-.813 1.843-1.605 3.673-2.376 5.49zm397.456-3.32l-.863-1.228c1.63-1.147 3.26-2.302 4.892-3.46l.868 1.222c-1.634 1.16-3.267 2.315-4.898 3.465zm8.154-5.785l-.87-1.22c1.62-1.16 3.244-2.324 4.868-3.493l.877 1.217c-1.626 1.17-3.25 2.334-4.876 3.495zm-401.6-.024l-1.366-.62c.82-1.805 1.663-3.622 2.526-5.448l1.355.64c-.86 1.82-1.7 3.63-2.517 5.43zm409.716-5.813l-.88-1.215c1.614-1.17 3.23-2.345 4.846-3.524l.885 1.21c-1.618 1.182-3.235 2.358-4.85 3.53zm-405.48-3.214l-1.35-.653c.865-1.786 1.75-3.582 2.65-5.388l1.343.67c-.9 1.8-1.78 3.59-2.642 5.37zm413.558-2.676l-.89-1.21c1.608-1.18 3.216-2.364 4.825-3.555l.893 1.205c-1.61 1.193-3.22 2.378-4.828 3.56zm8.037-5.94l-.895-1.204c1.6-1.19 3.2-2.385 4.8-3.585l.9 1.2c-1.6 1.2-3.203 2.397-4.805 3.588zm8.003-5.994l-.902-1.197c1.592-1.2 3.185-2.405 4.78-3.616l.905 1.195c-1.594 1.21-3.188 2.418-4.782 3.618zm7.963-6.04l-.91-1.19c1.586-1.212 3.172-2.427 4.758-3.647l.914 1.19c-1.587 1.22-3.174 2.436-4.76 3.647zm7.93-6.09l-.92-1.187c1.578-1.22 3.157-2.445 4.734-3.675l.922 1.185c-1.578 1.23-3.157 2.456-4.737 3.677zm7.888-6.14l-.926-1.18c1.57-1.23 3.142-2.464 4.712-3.704l.93 1.177c-1.572 1.24-3.145 2.475-4.716 3.707zm7.852-6.186l-.932-1.176c1.562-1.237 3.125-2.48 4.69-3.73l.935 1.172c-1.564 1.25-3.13 2.495-4.693 3.735zm7.814-6.233l-.94-1.17c1.557-1.248 3.112-2.502 4.667-3.76l.944 1.167c-1.557 1.26-3.113 2.514-4.67 3.764zm7.776-6.28l-.945-1.164c1.548-1.258 3.096-2.52 4.645-3.786l.95 1.16c-1.55 1.268-3.1 2.532-4.65 3.79zm7.74-6.326l-.953-1.158c1.54-1.268 3.08-2.538 4.622-3.814l.956 1.156c-1.543 1.276-3.085 2.548-4.626 3.816zm7.69-6.362l-.96-1.152c1.53-1.273 3.06-2.55 4.588-3.832l.963 1.15c-1.528 1.282-3.06 2.56-4.59 3.834zm7.65-6.4l-.968-1.148c1.526-1.285 3.05-2.573 4.575-3.866l.97 1.145c-1.526 1.292-3.052 2.582-4.578 3.868zm7.623-6.46l-.973-1.143c1.522-1.297 3.04-2.595 4.555-3.895l.977 1.14c-1.515 1.3-3.035 2.6-4.56 3.898zm7.59-6.506l-.978-1.137c1.515-1.306 3.024-2.613 4.532-3.92l.982 1.132c-1.51 1.31-3.02 2.617-4.536 3.925zm7.55-6.55l-.986-1.13c1.507-1.314 3.01-2.63 4.508-3.948l.99 1.127c-1.498 1.317-3.003 2.635-4.512 3.95zm7.514-6.594l-.992-1.125c1.5-1.322 2.994-2.647 4.485-3.973l.996 1.12c-1.49 1.33-2.988 2.654-4.49 3.98zm7.474-6.637l-1-1.12c1.493-1.332 2.98-2.666 4.463-4l1.004 1.115c-1.486 1.336-2.974 2.67-4.466 4.004zm7.435-6.684l-1.006-1.113c1.482-1.342 2.96-2.684 4.436-4.027l1.01 1.11c-1.475 1.343-2.955 2.686-4.44 4.03zm7.394-6.727l-1.015-1.107c1.477-1.35 2.947-2.7 4.413-4.054l1.018 1.1c-1.468 1.354-2.94 2.707-4.417 4.06zm7.35-6.772l-1.02-1.1c1.47-1.36 2.933-2.72 4.39-4.08l1.023 1.097c-1.458 1.36-2.922 2.723-4.392 4.083zm7.313-6.817l-1.025-1.093c1.46-1.37 2.913-2.738 4.36-4.107l1.032 1.09c-1.45 1.37-2.906 2.74-4.367 4.11zm7.27-6.86l-1.032-1.088c1.452-1.378 2.898-2.757 4.34-4.135l1.036 1.084c-1.442 1.382-2.89 2.76-4.342 4.14zm7.227-6.906l-1.04-1.082c1.443-1.387 2.88-2.773 4.313-4.16l1.043 1.077c-1.433 1.387-2.872 2.775-4.316 4.164zm7.184-6.95l-1.047-1.075c1.435-1.397 2.862-2.793 4.285-4.19l1.05 1.07c-1.423 1.4-2.853 2.796-4.288 4.193zm7.14-6.998l-1.054-1.068c1.425-1.405 2.844-2.812 4.26-4.216l1.056 1.064c-1.415 1.406-2.836 2.813-4.263 4.22zm7.095-7.042l-1.062-1.06c1.417-1.416 2.827-2.83 4.23-4.244l1.064 1.057c-1.404 1.416-2.816 2.832-4.233 4.247zm7.048-7.088l-1.066-1.055c1.406-1.423 2.807-2.847 4.203-4.27l1.07 1.05c-1.397 1.424-2.8 2.85-4.207 4.276zm7.002-7.136l-1.074-1.047c1.397-1.434 2.79-2.867 4.174-4.3l1.078 1.043c-1.387 1.434-2.78 2.87-4.178 4.304zm6.953-7.182l-1.08-1.04c1.388-1.442 2.77-2.885 4.144-4.326l1.086 1.035c-1.378 1.443-2.76 2.887-4.15 4.33zm6.905-7.228l-1.088-1.033c1.378-1.452 2.75-2.904 4.113-4.355l1.094 1.027c-1.366 1.452-2.74 2.906-4.12 4.36zm6.855-7.277l-1.096-1.025c1.367-1.462 2.73-2.923 4.084-4.385l1.1 1.02c-1.354 1.463-2.717 2.926-4.087 4.39zm6.804-7.324l-1.104-1.02c1.358-1.47 2.71-2.94 4.053-4.412l1.107 1.012c-1.345 1.472-2.697 2.945-4.056 4.42zm6.75-7.377l-1.11-1.008c1.348-1.483 2.688-2.964 4.02-4.444l1.116 1.005c-1.335 1.482-2.677 2.964-4.026 4.448zm6.696-7.423l-1.117-1c1.336-1.492 2.665-2.984 3.987-4.474l1.12.996c-1.32 1.49-2.652 2.984-3.99 4.478zm6.64-7.473l-1.124-.992c1.323-1.502 2.64-3.003 3.95-4.503l1.13.986c-1.31 1.502-2.63 3.005-3.956 4.51zm6.584-7.524l-1.133-.984c1.313-1.514 2.62-3.025 3.918-4.534l1.137.98c-1.3 1.508-2.607 3.022-3.923 4.537zm6.525-7.577l-1.14-.975c1.3-1.522 2.593-3.044 3.88-4.564l1.145.97c-1.288 1.522-2.583 3.045-3.885 4.57zm6.46-7.628l-1.147-.965c1.29-1.534 2.57-3.066 3.842-4.597l1.153.96c-1.273 1.53-2.556 3.065-3.847 4.602zm6.402-7.682l-1.156-.955c1.276-1.544 2.544-3.087 3.803-4.63l1.163.95c-1.26 1.544-2.53 3.09-3.81 4.636zm6.332-7.737l-1.164-.946c1.263-1.557 2.517-3.11 3.762-4.663l1.17.94c-1.248 1.553-2.503 3.11-3.768 4.67zm6.265-7.793l-1.173-.935c1.25-1.568 2.49-3.134 3.72-4.696l1.18.928c-1.233 1.564-2.475 3.13-3.726 4.703zm6.196-7.85l-1.182-.924c1.234-1.58 2.46-3.157 3.676-4.73l1.188.916c-1.218 1.576-2.446 3.155-3.682 4.737zm6.12-7.907l-1.19-.912c1.22-1.592 2.43-3.18 3.63-4.766l1.195.904c-1.2 1.59-2.412 3.18-3.634 4.774zm6.042-7.967l-1.2-.9c1.205-1.604 2.398-3.204 3.582-4.802l1.205.894c-1.186 1.6-2.38 3.203-3.587 4.81zm5.962-8.028l-1.21-.89c1.19-1.615 2.365-3.228 3.532-4.838l1.215.88c-1.17 1.612-2.348 3.228-3.537 4.848zm5.876-8.092l-1.22-.875c1.17-1.63 2.33-3.255 3.48-4.878l1.224.867c-1.15 1.625-2.312 3.253-3.484 4.886zm5.786-8.155l-1.23-.86c1.153-1.644 2.294-3.283 3.423-4.918l1.234.853c-1.13 1.636-2.274 3.28-3.428 4.925zm5.692-8.223l-1.238-.847c1.133-1.656 2.253-3.31 3.36-4.957l1.245.84c-1.11 1.65-2.23 3.306-3.366 4.965zm5.592-8.292l-1.248-.832c1.11-1.67 2.21-3.336 3.297-4.998l1.256.82c-1.087 1.666-2.19 3.336-3.304 5.01zm5.487-8.364l-1.26-.815c1.09-1.687 2.167-3.367 3.23-5.043l1.267.803c-1.066 1.68-2.145 3.363-3.237 5.054zm5.372-8.438l-1.27-.797c1.066-1.702 2.12-3.398 3.158-5.088l1.277.785c-1.04 1.694-2.096 3.394-3.165 5.1zm5.25-8.514l-1.282-.777c1.042-1.717 2.07-3.43 3.08-5.135l1.29.766c-1.013 1.71-2.043 3.426-3.087 5.148zm5.12-8.593l-1.294-.758c1.017-1.735 2.016-3.462 3-5.184l1.302.744c-.986 1.726-1.99 3.458-3.006 5.198zm4.98-8.677l-1.307-.736c.985-1.752 1.955-3.497 2.907-5.233l1.314.72c-.954 1.74-1.926 3.49-2.915 5.248zm4.828-8.766l-1.32-.71c.953-1.772 1.89-3.534 2.81-5.29l1.328.698c-.92 1.76-1.86 3.527-2.817 5.302zm4.66-8.853l-1.335-.687c.92-1.79 1.82-3.57 2.7-5.342l1.344.67c-.884 1.777-1.787 3.563-2.71 5.36zm4.477-8.952l-1.348-.656c.88-1.81 1.74-3.61 2.582-5.398l1.357.637c-.84 1.797-1.705 3.602-2.59 5.418zm4.276-9.05l-1.363-.624c.838-1.83 1.654-3.65 2.45-5.46l1.372.605c-.797 1.814-1.617 3.64-2.46 5.48zm4.05-9.154l-1.378-.59c.79-1.853 1.558-3.693 2.303-5.52l1.39.565c-.747 1.835-1.518 3.683-2.313 5.544zm3.8-9.263l-1.396-.548c.737-1.876 1.45-3.737 2.135-5.586l1.406.52c-.688 1.858-1.403 3.73-2.144 5.615zm3.516-9.378l-1.414-.502c.677-1.9 1.325-3.785 1.945-5.653l1.424.473c-.624 1.877-1.277 3.772-1.955 5.682zm3.187-9.495l-1.43-.45c.602-1.913 1.182-3.838 1.725-5.722l1.44.416c-.545 1.896-1.13 3.833-1.736 5.757zm2.814-9.617l-1.45-.39c.52-1.925 1.015-3.872 1.474-5.788l1.46.35c-.464 1.93-.963 3.89-1.484 5.828zm2.375-9.74l-1.467-.318c.428-1.964.822-3.933 1.174-5.85l1.475.27c-.353 1.934-.752 3.918-1.183 5.898zm1.858-9.854l-1.48-.234c.314-1.99.59-3.978.817-5.903l1.49.175c-.23 1.944-.51 3.95-.827 5.96zm1.24-9.958l-1.494-.133c.178-1.996.31-3.996.392-5.943l1.498.062c-.082 1.97-.216 3.994-.396 6.014zm.495-10.032l-1.5-.012.002-.76c0-1.75-.043-3.497-.128-5.19l1.498-.075c.086 1.718.13 3.488.13 5.263l-.002.773zm-1.908-9.915c-.186-2.004-.438-3.986-.75-5.892l1.48-.242c.317 1.94.574 3.957.764 5.996l-1.495.14zm-1.487-9.78c-.423-1.96-.925-3.89-1.49-5.74l1.434-.438c.58 1.89 1.09 3.86 1.523 5.86l-1.467.317zm-2.758-9.48c-.7-1.872-1.486-3.7-2.336-5.437l1.348-.66c.87 1.78 1.676 3.654 2.393 5.572l-1.405.526zm-203.733-8.28l-.572-1.387c1.86-.77 3.714-1.524 5.558-2.267l.56 1.39c-1.84.742-3.69 1.497-5.546 2.264zm199.544-.64c-.988-1.714-2.072-3.38-3.22-4.954l1.21-.885c1.18 1.617 2.294 3.33 3.31 5.09l-1.3.75zm-190.29-3.102l-.553-1.395c1.874-.74 3.738-1.47 5.593-2.182l.54 1.4c-1.85.714-3.71 1.44-5.58 2.178zm9.31-3.596l-.53-1.404c1.887-.71 3.763-1.406 5.63-2.087l.514 1.41c-1.862.68-3.734 1.374-5.614 2.082zm175.32-1.36l-.073-.088c-1.268-1.492-2.635-2.936-4.058-4.282l1.03-1.09c1.462 1.385 2.866 2.867 4.174 4.406l.078.093-1.152.962zm-165.954-2.078l-.504-1.412c1.898-.68 3.787-1.34 5.665-1.988l.488 1.418c-1.87.645-3.754 1.305-5.65 1.982zm9.43-3.267l-.48-1.422c1.912-.644 3.813-1.27 5.703-1.88l.46 1.43c-1.883.606-3.78 1.23-5.685 1.872zm149.437-1.633c-1.505-1.236-3.105-2.418-4.757-3.514l.83-1.25c1.693 1.123 3.335 2.336 4.88 3.605l-.953 1.16zm-139.95-1.45l-.45-1.432c1.928-.604 3.842-1.19 5.743-1.758l.43 1.438c-1.896.566-3.804 1.15-5.723 1.752zm9.55-2.877l-.416-1.44c1.94-.562 3.868-1.104 5.78-1.627l.397 1.447c-1.906.52-3.826 1.06-5.76 1.62zm122.286-1.26c-1.68-.967-3.452-1.88-5.266-2.715l.63-1.363c1.853.854 3.664 1.788 5.383 2.775l-.748 1.3zm-112.673-1.394l-.38-1.45c1.955-.516 3.895-1.01 5.82-1.48l.358 1.456c-1.917.47-3.85.96-5.798 1.473zm9.677-2.403l-.342-1.46c1.97-.463 3.925-.9 5.86-1.318l.317 1.467c-1.93.414-3.874.85-5.836 1.31zm94.095-.472c-1.796-.71-3.68-1.374-5.6-1.972l.445-1.432c1.956.608 3.876 1.284 5.706 2.01l-.55 1.394zm-84.357-1.654l-.297-1.47c1.986-.402 3.954-.78 5.902-1.134l.268 1.477c-1.938.352-3.896.728-5.873 1.127zm74.95-1.406c-1.875-.49-3.825-.936-5.8-1.322l.29-1.473c2.004.394 3.984.846 5.888 1.344l-.378 1.45zm-65.152-.404l-.245-1.48c1.992-.332 3.99-.643 5.94-.922l.213 1.484c-1.938.278-3.925.586-5.907.918zm9.857-1.453l-.19-1.487c2.008-.256 4.02-.484 5.977-.682l.15 1.493c-1.946.197-3.943.424-5.937.678zm45.59-.154c-1.922-.304-3.91-.563-5.903-.773l.156-1.492c2.02.214 4.033.478 5.98.784l-.233 1.482zm-35.688-.885l-.124-1.493c2.03-.166 4.05-.302 6.002-.402l.078 1.498c-1.938.1-3.943.234-5.957.398zm25.826-.244c-1.924-.143-3.927-.25-5.954-.313l.05-1.5c2.046.066 4.07.173 6.016.317l-.112 1.496zm-15.894-.314l-.045-1.5c1.7-.05 3.4-.076 5.056-.076l.965.002-.01 1.5-.953-.002c-1.643 0-3.33.025-5.013.076z"/><g fill="#2CA699"><path d="M803.468 1037.403l.183-.07c.053-.02.11.007.13.06.02.05-.006.11-.058.13l-.184.068c-.052.02-.11-.006-.13-.058s.008-.11.06-.13zM809.114 1034.898l.174-.09c.052-.025.116-.006.143.047.027.052.007.115-.045.142l-.174.09c-.05.026-.114.006-.142-.046-.026-.052-.006-.114.046-.142zM814.45 1031.787l.163-.107c.052-.034.12-.02.154.03.033.052.02.12-.03.154h-.002l-.163.108c-.05.033-.12.02-.153-.032-.034-.05-.02-.12.03-.153zM819.43 1028.128l.15-.124c.05-.04.124-.033.165.016.04.05.033.123-.017.164l-.152.124c-.05.04-.122.033-.163-.017-.04-.05-.033-.122.017-.162zM824.023 1023.996l.14-.138c.047-.048.124-.047.17 0 .05.05.048.126 0 .173l-.14.14c-.047.047-.124.046-.172-.002-.045-.048-.045-.125.003-.172zM828.23 1019.468l.126-.15c.045-.053.126-.06.18-.014.053.046.06.126.014.18l-.128.15c-.045.052-.125.06-.18.013-.053-.046-.06-.126-.013-.18zM832.056 1014.613l.115-.16c.044-.06.127-.07.187-.028s.072.126.03.185l-.117.16c-.043.06-.126.07-.186.028-.06-.043-.072-.126-.028-.185zM835.524 1009.496l.104-.167c.04-.065.126-.085.19-.044.064.04.084.126.043.19l-.104.167c-.04.064-.126.083-.19.043-.063-.04-.083-.125-.042-.19zM838.66 1004.167l.095-.17c.038-.07.125-.096.194-.058.07.037.095.124.056.193l-.094.172c-.038.07-.125.094-.194.056s-.095-.124-.057-.193zM841.492 998.67l.085-.176c.036-.074.125-.105.198-.07.074.036.105.125.07.2l-.086.175c-.036.073-.126.104-.2.068-.073-.035-.103-.124-.068-.198zM844.044 993.038l.077-.18c.034-.08.125-.116.203-.082.078.033.115.123.082.202l-.077.18c-.034.08-.124.115-.202.082-.08-.033-.115-.123-.082-.202zM846.344 987.297l.068-.185c.03-.083.123-.124.206-.094.083.03.124.123.093.206l-.068.185c-.03.08-.123.123-.205.092-.083-.03-.125-.123-.093-.205zM848.41 981.465l.063-.187c.03-.087.122-.134.21-.104.086.028.133.122.103.21l-.062.187c-.03.087-.123.134-.21.105s-.13-.123-.103-.21zM850.27 975.564l.055-.19c.027-.09.122-.14.212-.114.09.027.142.122.115.212l-.057.19c-.026.09-.12.14-.212.114-.09-.026-.14-.12-.114-.212zM851.934 969.605l.05-.19c.024-.093.12-.148.214-.124.095.025.15.122.126.216l-.05.19c-.025.093-.12.148-.215.124-.095-.025-.152-.12-.126-.215zM853.422 963.6l.044-.19c.022-.097.12-.157.218-.135s.158.12.136.218l-.045.19c-.023.098-.12.158-.218.136-.098-.025-.16-.122-.135-.22zM854.748 957.557l.04-.192c.02-.1.12-.166.22-.145.102.02.166.12.146.22l-.04.193c-.02.1-.12.165-.22.145-.102-.022-.167-.12-.146-.22zM855.925 951.483l.035-.193c.02-.104.118-.174.223-.155.104.02.174.12.155.224l-.036.193c-.02.104-.12.173-.223.154-.105-.02-.175-.12-.155-.224zM856.963 945.384l.03-.195c.018-.108.12-.182.227-.164.108.017.182.118.164.226l-.03.195c-.02.107-.12.18-.227.163-.108-.018-.182-.12-.164-.226zM857.873 939.262l.027-.195c.016-.11.118-.188.23-.174.11.016.187.118.173.23l-.027.194c-.016.11-.118.188-.23.173-.11-.015-.19-.117-.173-.228zM858.664 933.123l.023-.197c.014-.114.117-.195.23-.182s.197.117.184.23l-.022.197c-.015.115-.118.196-.232.183-.114-.013-.196-.117-.182-.23zM859.34 926.97l.02-.198c.012-.12.12-.208.24-.196.12.013.206.12.194.24l-.02.197c-.014.12-.12.207-.24.194-.12-.013-.207-.12-.194-.238zM859.904 920.806l.017-.197c.012-.13.125-.226.253-.215.13.01.225.124.214.252v.002l-.018.196c-.013.128-.126.223-.254.212-.128-.012-.222-.124-.212-.252zM860.372 914.634l.013-.194c.01-.137.128-.24.265-.23.138.008.24.127.23.264l-.013.196c-.01.137-.13.24-.266.23s-.24-.13-.228-.266zM860.746 908.458l.01-.195c.01-.146.133-.257.278-.25s.257.133.25.278v.002l-.013.195c-.007.146-.132.256-.276.248-.145-.008-.256-.13-.248-.277zM861.034 902.277l.007-.196c.008-.152.138-.272.29-.267.155.006.274.136.27.29l-.01.197c-.007.153-.137.272-.29.266s-.273-.135-.266-.29zM861.238 896.092l.006-.196c.004-.162.14-.29.302-.286.162.004.29.14.286.302l-.007.197c-.005.16-.14.288-.302.283-.162-.005-.29-.14-.285-.3zM861.365 889.903l.003-.196c.003-.17.143-.308.313-.305.172.002.308.143.306.313l-.004.198c-.003.17-.144.306-.314.302-.17-.002-.306-.142-.303-.312zM861.418 883.713v-.196c0-.18.147-.324.325-.323.18 0 .324.146.323.324v.199c-.002.18-.148.322-.327.32-.18 0-.323-.145-.322-.324zM861.4 877.526l-.002-.197c-.002-.19.148-.342.336-.344.188 0 .34.15.342.337v.198c.002.19-.15.34-.336.342-.187 0-.34-.15-.34-.336zM861.314 871.34l-.004-.2c-.004-.194.15-.355.347-.36.196-.003.357.152.36.348v.002l.004.197c.004.195-.152.356-.348.36s-.356-.153-.358-.348zM861.164 865.15l-.006-.196c-.006-.204.154-.374.358-.38.203-.007.374.154.38.357v.003l.005.197c.006.204-.155.373-.358.378-.204.007-.373-.153-.378-.357zM860.95 858.965l-.007-.197c-.008-.213.157-.39.37-.4.212-.008.39.158.398.37v.002l.008.197c.008.212-.158.39-.37.397-.21.007-.39-.157-.397-.37zM860.68 852.78l-.01-.197c-.01-.22.16-.408.38-.42.22-.01.408.16.42.38v.003l.008.198c.01.22-.16.406-.382.416-.22.01-.407-.16-.416-.38zM564.87 106.69l-.135-.148c-.143-.153-.132-.394.02-.535.155-.143.396-.133.537.02v.002l.136.146c.142.154.13.394-.023.535s-.393.134-.535-.02zM560.646 102.16l-.137-.147c-.147-.155-.14-.4.015-.546.154-.146.398-.14.545.016l.138.147c.146.155.14.4-.017.545s-.397.138-.544-.016zM556.365 97.684l-.14-.144c-.15-.155-.146-.404.01-.555s.403-.147.554.01l.14.144c.15.154.145.402-.01.553s-.404.146-.555-.01zM552.023 93.268l-.142-.142c-.154-.156-.154-.408.002-.564.156-.155.408-.155.563 0v.002l.142.142c.155.156.154.408-.002.563s-.406.154-.562-.002zM547.618 88.914l-.144-.14c-.16-.155-.164-.412-.008-.572s.413-.164.573-.008l.143.14c.16.157.163.413.007.573s-.412.163-.572.007zM543.147 84.63l-.146-.137c-.165-.156-.172-.417-.017-.582.156-.164.417-.172.582-.017l.147.14c.164.155.172.415.016.58s-.416.173-.58.017zM538.607 80.42l-.147-.135c-.17-.155-.184-.42-.027-.59.155-.172.42-.184.59-.028l.148.136c.172.155.184.42.027.59-.156.17-.42.182-.59.027zM533.995 76.29l-.15-.133c-.176-.154-.193-.423-.038-.6.154-.176.423-.192.6-.038l.15.132c.176.155.192.424.037.6s-.423.192-.6.038zM529.307 72.247l-.152-.13c-.182-.153-.205-.425-.05-.607.152-.182.425-.204.606-.05l.154.13c.18.153.203.425.05.606-.154.182-.426.204-.607.05zM524.54 68.3l-.156-.126c-.188-.152-.217-.428-.064-.615.152-.19.428-.218.615-.066l.156.127c.188.153.217.43.064.616s-.427.216-.615.064zM519.688 64.457l-.158-.122c-.193-.15-.23-.43-.08-.623.15-.194.43-.23.623-.08l.16.123c.192.15.228.43.077.623s-.43.23-.622.08zM514.748 60.73l-.16-.118c-.2-.147-.245-.43-.098-.63s.43-.244.63-.097l.162.12c.2.146.242.43.095.63s-.43.243-.63.095zM509.716 57.132l-.165-.114c-.206-.144-.257-.43-.113-.636.144-.208.43-.26.636-.115l.165.115c.207.145.258.43.113.636s-.427.258-.634.114zM504.586 53.676l-.168-.11c-.215-.14-.275-.426-.136-.64.14-.215.427-.275.642-.136l.168.11c.215.14.274.427.135.64-.14.216-.427.276-.64.136zM499.354 50.38l-.17-.104c-.224-.135-.294-.424-.16-.646s.424-.293.647-.158h.002l.17.105c.222.135.292.424.157.646s-.425.292-.646.157zM494.014 47.264l-.174-.097c-.23-.13-.312-.42-.184-.648.128-.23.418-.313.648-.185l.175.1c.228.127.31.418.18.647-.127.23-.417.31-.646.182zM488.563 44.352l-.18-.09c-.236-.12-.33-.412-.21-.65.12-.237.41-.332.648-.21h.002l.178.09c.237.12.332.412.21.65-.12.237-.41.33-.647.21zM482.998 41.672l-.183-.083c-.246-.112-.354-.402-.243-.648s.4-.355.647-.244l.182.083c.246.113.354.403.242.65-.11.245-.4.353-.646.242zM477.315 39.256l-.186-.073c-.256-.1-.38-.39-.28-.644s.39-.38.644-.28l.187.074c.256.1.38.39.278.644-.1.254-.388.378-.643.278zM471.518 37.144l-.19-.062c-.263-.087-.405-.372-.318-.635.087-.264.372-.406.635-.32v.002l.19.06c.264.09.405.373.318.637-.09.262-.372.404-.635.317zM465.608 35.38l-.193-.05c-.272-.07-.435-.35-.363-.62s.35-.436.62-.364h.002l.193.052c.27.07.434.35.36.622-.07.27-.347.433-.62.36zM459.6 34.02l-.197-.037c-.28-.053-.465-.322-.412-.602s.323-.463.603-.41l.197.037c.28.053.463.322.41.603-.054.28-.322.462-.6.41zM453.508 33.116l-.198-.02c-.287-.03-.495-.288-.465-.574.03-.287.287-.494.574-.465l.2.022c.285.03.492.287.462.574-.03.285-.287.492-.574.462zM447.365 32.73l-.2-.002c-.29-.005-.523-.245-.52-.537.005-.29.245-.523.537-.52l.2.004c.292.006.524.246.52.538-.006.292-.245.524-.537.52zM441.222 32.924l-.202.017c-.295.025-.553-.193-.577-.488-.024-.294.194-.553.488-.576h.002l.202-.017c.295-.025.553.194.576.488.024.294-.194.55-.488.576zM435.134 33.74l-.197.038c-.294.056-.577-.137-.633-.43-.057-.294.136-.577.43-.634l.198-.037c.294-.056.576.138.632.432.055.292-.137.576-.43.63zM429.174 35.21l-.19.06c-.29.09-.596-.073-.685-.362-.09-.29.07-.596.36-.685h.002l.19-.06c.29-.088.596.075.684.364.09.29-.072.595-.362.683zM423.424 37.334l-.18.078c-.28.123-.61-.006-.732-.288s.006-.61.287-.733l.18-.077c.283-.122.61.008.732.29s-.006.608-.288.73zM417.948 40.082l-.17.098c-.27.156-.616.063-.772-.208s-.062-.617.208-.773l.002-.002.17-.097c.27-.154.617-.06.77.212.156.27.064.616-.208.77zM412.803 43.41l-.157.116c-.258.187-.617.13-.805-.127-.186-.26-.13-.618.13-.805v-.002l.158-.114c.258-.187.617-.13.804.13.185.257.13.616-.13.8zM408.023 47.255l-.146.13c-.24.216-.61.194-.825-.047s-.193-.61.048-.825v-.002l.147-.13c.242-.213.61-.19.825.052.214.24.194.61-.05.823zM403.63 51.537l-.136.144c-.224.24-.6.253-.84.028-.24-.224-.25-.6-.027-.84h.002l.133-.144c.226-.238.6-.25.84-.025.238.225.25.6.026.837zM399.613 56.187l-.122.153c-.206.262-.585.305-.846.098-.262-.207-.305-.587-.098-.848l.124-.155c.208-.26.587-.302.847-.094s.304.586.096.847zM395.965 61.135l-.11.162c-.19.28-.572.352-.853.16-.28-.19-.35-.57-.16-.85v-.002l.112-.162c.19-.28.573-.35.852-.158s.35.57.16.85zM392.66 66.323l-.102.17c-.175.296-.556.394-.852.218-.295-.174-.393-.555-.218-.85v-.002l.103-.17c.177-.295.558-.392.853-.216s.393.556.217.85zM389.672 71.707l-.09.174c-.16.31-.54.432-.85.272-.31-.16-.43-.54-.27-.85v-.003l.09-.174c.16-.31.542-.43.852-.268.31.162.43.54.268.85zM386.977 77.246l-.08.178c-.147.322-.527.464-.85.317-.32-.145-.463-.525-.316-.847l.002-.002.08-.177c.148-.32.528-.462.85-.314s.462.525.315.846zM384.547 82.908l-.073.183c-.134.334-.512.495-.845.36-.333-.133-.495-.51-.36-.844v-.002l.074-.183c.135-.33.514-.49.846-.355s.492.51.357.843zM382.36 88.674l-.067.186c-.12.343-.498.52-.84.4s-.522-.5-.4-.843v-.002l.067-.186c.123-.343.5-.52.843-.397.342.123.52.5.396.84zM380.393 94.52l-.06.19c-.11.35-.486.545-.838.435-.352-.11-.547-.486-.436-.838v-.002l.06-.188c.112-.352.488-.545.84-.433.35.113.545.486.433.837zM378.628 100.434l-.054.19c-.1.36-.475.57-.835.47-.36-.102-.57-.475-.47-.835v-.003l.055-.19c.103-.36.477-.568.836-.467.36.102.57.474.468.834zM377.047 106.4l-.047.19c-.092.37-.464.593-.832.502-.367-.092-.592-.464-.5-.832v-.002l.05-.19c.09-.366.464-.59.83-.497.37.093.592.464.5.83zM375.637 112.41l-.042.192c-.083.375-.454.612-.83.53-.374-.083-.61-.454-.528-.83l.043-.192c.084-.375.455-.61.83-.527s.61.453.527.828zM374.382 118.455l-.037.192c-.074.382-.444.632-.826.558s-.633-.444-.56-.826l.002-.003.038-.193c.075-.382.445-.63.827-.555.382.075.63.443.555.825zM373.27 124.53l-.032.193c-.066.39-.436.65-.824.583s-.65-.436-.583-.824v-.002l.035-.193c.067-.39.438-.648.825-.58.39.066.65.434.58.822zM372.294 130.63l-.028.194c-.06.395-.428.667-.822.608-.396-.06-.668-.427-.608-.822v-.002l.03-.195c.06-.395.428-.666.823-.605.393.06.664.426.604.82zM371.44 136.75l-.024.194c-.053.4-.42.685-.82.633-.4-.052-.685-.42-.633-.82v-.002l.026-.196c.052-.4.42-.684.82-.63.402.052.684.418.63.82zM370.703 142.886l-.02.196c-.046.407-.413.7-.82.655-.407-.045-.7-.41-.655-.818v-.003l.022-.197c.047-.406.414-.698.82-.652.407.045.7.41.653.818zM370.073 149.035l-.02.198c-.037.412-.403.716-.816.677-.412-.038-.716-.404-.677-.817v-.002l.02-.196c.04-.413.406-.715.818-.675.414.04.715.403.675.815zM369.546 155.193l-.016.198c-.032.42-.397.732-.816.7-.418-.032-.73-.398-.7-.816l.002-.003.016-.196c.033-.418.4-.73.818-.696.418.033.73.397.696.815zM369.113 161.36l-.012.195c-.025.424-.39.746-.815.72-.424-.026-.746-.392-.72-.815v-.003l.014-.194c.026-.424.393-.745.816-.717.424.027.746.39.717.814zM368.77 167.53l-.01.196c-.02.43-.385.76-.814.74-.43-.02-.76-.386-.74-.814v-.003l.01-.196c.022-.43.39-.76.817-.737.43.02.76.386.738.814zM368.514 173.708l-.007.195c-.015.435-.38.775-.814.76-.435-.015-.775-.38-.76-.814v-.003l.007-.196c.017-.434.383-.772.817-.756s.773.38.757.814zM368.337 179.888l-.005.196c-.01.44-.374.79-.813.78-.44-.01-.79-.375-.78-.815v-.003l.005-.196c.01-.44.377-.787.816-.775.44.01.788.373.777.813zM368.236 186.07l-.002.197c-.004.445-.37.803-.814.798-.445-.004-.803-.37-.798-.813v-.003l.003-.197c.006-.445.37-.802.816-.796.446.006.802.37.796.814zM368.21 192.256v.197c0 .45-.365.815-.815.816-.45 0-.815-.365-.816-.815v-.199c0-.45.365-.814.815-.814.45 0 .814.364.814.814zM368.25 198.438l.003.197c.005.456-.36.83-.814.835-.457.006-.83-.358-.836-.814v-.002l-.002-.197c-.004-.456.36-.828.816-.832.455-.006.828.357.832.813zM368.357 204.62l.005.198c.01.46-.354.842-.814.853-.46.012-.843-.353-.853-.813v-.003l-.004-.197c-.01-.46.357-.84.817-.85.462-.01.842.353.85.813zM368.53 210.803l.005.198c.016.466-.35.855-.814.87-.465.016-.854-.35-.87-.814v-.002l-.006-.198c-.014-.465.353-.854.817-.867.467-.015.855.348.87.813zM368.76 216.984l.01.197c.02.472-.346.87-.816.89-.47.02-.867-.346-.887-.816v-.002l-.01-.198c-.018-.47.35-.866.82-.885.47-.02.865.344.884.814zM369.05 223.164l.01.197c.025.477-.34.882-.814.906-.476.024-.88-.34-.905-.816v-.002l-.01-.198c-.022-.475.345-.88.82-.902.474-.023.877.34.9.816zM369.396 229.34l.012.2c.03.48-.336.892-.816.92-.48.03-.893-.335-.922-.815v-.003l-.012-.197c-.027-.48.34-.892.82-.92.48-.028.89.336.918.816zM369.797 235.517l.014.197c.034.485-.332.905-.816.94-.485.032-.905-.334-.938-.818v-.003l-.014-.198c-.032-.484.335-.903.82-.936.484-.033.903.33.935.817zM370.248 241.688l.016.197c.038.49-.328.918-.818.956-.49.038-.917-.327-.955-.817v-.003l-.014-.197c-.036-.49.33-.916.82-.953.49-.036.916.328.952.818zM370.75 247.856l.018.198c.042.494-.324.93-.818.972-.495.042-.93-.324-.973-.818v-.003l-.016-.198c-.04-.494.327-.928.82-.97.496-.04.93.325.97.82zM371.297 254.02l.02.2c.045.496-.32.937-.817.982s-.937-.32-.983-.816v-.002l-.018-.197c-.046-.497.32-.937.816-.982.496-.045.936.32.98.816zM371.89 260.18l.02.197c.05.5-.314.944-.812.994-.5.05-.944-.313-.994-.81v-.003l-.02-.198c-.05-.5.315-.943.814-.993.498-.05.942.314.992.813zM372.527 266.333l.02.198c.055.502-.308.95-.81 1.005s-.95-.31-1.004-.81l-.02-.2c-.055-.5.31-.948.81-1.002.502-.052.95.31 1.004.81zM373.21 272.482l.02.194c.06.503-.303.957-.806 1.015s-.957-.303-1.015-.806l-.022-.194c-.058-.503.305-.957.807-1.014.503-.056.957.304 1.014.806zM373.934 278.624l.023.194c.06.505-.3.964-.803 1.024-.505.062-.964-.298-1.025-.803v-.002l-.024-.193c-.06-.505.3-.964.805-1.024.504-.06.962.3 1.024.804zM374.7 284.762l.023.194c.065.507-.293.97-.8 1.035-.506.065-.97-.292-1.035-.8l-.024-.194c-.064-.507.294-.97.8-1.034s.97.293 1.035.8zM375.505 290.895l.026.194c.07.508-.287.976-.796 1.044-.508.068-.976-.288-1.045-.797l-.026-.195c-.068-.51.29-.976.798-1.043.51-.07.976.287 1.043.795zM376.35 297.023l.028.194c.072.51-.282.982-.793 1.055s-.982-.283-1.055-.794l-.027-.195c-.07-.51.284-.982.795-1.054.51-.072.98.283 1.053.793zM377.235 303.146l.028.194c.076.513-.278.99-.79 1.064-.513.076-.99-.278-1.065-.79l-.028-.195c-.075-.514.28-.99.792-1.064.513-.075.988.28 1.063.79zM378.156 309.266l.03.194c.08.515-.273.995-.788 1.074-.514.08-.994-.273-1.073-.788l-.03-.195c-.078-.514.275-.993.79-1.072.513-.08.993.274 1.07.788zM379.115 315.38l.03.194c.083.516-.27 1-.784 1.083-.515.083-1-.27-1.083-.784v-.002l-.03-.193c-.082-.516.27-1 .786-1.082.516-.082 1 .268 1.082.784zM380.11 321.488l.03.194c.086.518-.264 1.007-.78 1.093s-1.01-.265-1.095-.782l-.03-.195c-.087-.52.265-1.007.782-1.092s1.006.264 1.092.782zM381.138 327.59l.033.195c.09.52-.26 1.014-.778 1.103s-1.013-.26-1.103-.78l-.034-.194c-.088-.52.262-1.013.78-1.102.52-.088 1.014.26 1.102.78zM382.2 333.688l.035.195c.093.52-.255 1.02-.776 1.11-.522.093-1.02-.255-1.112-.776l-.035-.195c-.092-.52.257-1.02.778-1.11s1.02.255 1.11.776zM383.298 339.78l.035.195c.096.523-.25 1.025-.773 1.12-.523.097-1.025-.25-1.12-.773l-.036-.196c-.095-.522.252-1.024.775-1.12s1.023.252 1.118.775zM384.428 345.868l.036.194c.1.524-.246 1.03-.77 1.13-.526.1-1.03-.247-1.13-.772l-.037-.195c-.1-.525.247-1.03.772-1.13.524-.097 1.03.248 1.128.773zM385.59 351.948l.037.194c.102.527-.242 1.037-.77 1.14-.526.102-1.036-.242-1.14-.77l-.036-.195c-.1-.527.244-1.036.772-1.138.527-.102 1.035.242 1.137.768zM386.782 358.023l.04.194c.103.528-.24 1.043-.768 1.147-.528.105-1.043-.237-1.147-.766v-.002l-.04-.194c-.103-.528.24-1.042.77-1.146.528-.104 1.04.24 1.145.767zM388.006 364.09l.04.193c.108.53-.234 1.048-.765 1.156s-1.047-.234-1.155-.765l-.04-.195c-.107-.53.235-1.048.766-1.156.53-.107 1.048.235 1.156.765zM389.26 370.148l.04.194c.112.532-.228 1.054-.76 1.165s-1.055-.23-1.167-.762l-.04-.195c-.11-.532.23-1.053.763-1.164.532-.11 1.052.23 1.164.762zM390.544 376.202l.04.194c.116.534-.224 1.06-.758 1.174-.533.115-1.06-.225-1.174-.76l-.042-.194c-.114-.534.227-1.06.76-1.173.535-.114 1.06.226 1.174.76zM391.857 382.25l.042.195c.117.535-.222 1.064-.758 1.183-.535.117-1.064-.222-1.183-.757l-.043-.194c-.117-.536.223-1.064.758-1.182s1.065.22 1.182.757zM393.2 388.293l.043.194c.12.537-.217 1.07-.754 1.19-.54.122-1.072-.216-1.193-.753v-.002l-.043-.193c-.12-.54.22-1.07.756-1.19s1.07.216 1.19.753zM394.57 394.33l.045.193c.124.54-.213 1.076-.752 1.2s-1.076-.213-1.2-.752l-.045-.194c-.123-.54.215-1.075.754-1.198s1.075.213 1.198.752zM395.97 400.36l.046.194c.126.54-.21 1.08-.75 1.208s-1.082-.21-1.21-.75l-.044-.194c-.126-.54.21-1.082.75-1.208s1.082.21 1.208.75zM397.396 406.385l.047.193c.13.543-.205 1.088-.748 1.218-.542.13-1.087-.205-1.217-.747v-.003l-.047-.193c-.128-.543.208-1.087.75-1.216.544-.13 1.088.205 1.216.747zM398.85 412.403l.048.193c.133.544-.2 1.093-.744 1.226s-1.093-.2-1.226-.744v-.002l-.048-.193c-.132-.544.202-1.093.747-1.225.544-.132 1.092.2 1.224.745zM400.332 418.415l.048.193c.136.546-.196 1.1-.742 1.234s-1.1-.196-1.234-.742v-.002l-.048-.193c-.136-.546.197-1.098.744-1.232.545-.135 1.097.196 1.232.742zM401.84 424.42l.05.194c.138.548-.194 1.104-.74 1.242-.55.14-1.105-.192-1.243-.74l-.05-.194c-.138-.547.194-1.104.742-1.24s1.1.19 1.24.74zM403.373 430.42l.05.193c.142.55-.188 1.11-.737 1.25s-1.11-.187-1.25-.736l-.002-.002-.05-.192c-.14-.55.19-1.11.74-1.25.55-.14 1.108.188 1.25.738zM404.934 436.413l.05.193c.146.55-.185 1.114-.735 1.26s-1.115-.186-1.26-.736l-.05-.194c-.145-.55.186-1.114.736-1.258s1.113.184 1.258.735zM406.52 442.4l.05.192c.148.553-.18 1.12-.732 1.268s-1.12-.18-1.268-.733l-.052-.194c-.146-.552.183-1.12.735-1.266.552-.147 1.12.18 1.266.733zM408.13 448.38l.052.192c.15.555-.177 1.125-.73 1.276-.555.15-1.126-.177-1.276-.73v-.002l-.052-.192c-.15-.555.178-1.125.732-1.275.553-.15 1.123.175 1.273.73zM409.766 454.354l.053.192c.152.556-.174 1.13-.73 1.284-.556.153-1.13-.173-1.284-.73l-.053-.192c-.153-.556.174-1.13.73-1.282.555-.154 1.13.17 1.283.728zM411.426 460.32l.054.19c.156.56-.17 1.138-.726 1.294-.558.156-1.137-.17-1.293-.727l-.053-.193c-.155-.558.17-1.136.728-1.29.557-.156 1.135.17 1.29.726zM413.11 466.28l.055.19c.16.56-.164 1.143-.724 1.302-.558.16-1.14-.165-1.3-.724v-.002l-.055-.19c-.158-.56.167-1.143.726-1.3.56-.16 1.142.165 1.3.723zM414.82 472.232l.055.192c.163.56-.16 1.146-.72 1.31s-1.147-.162-1.31-.723l-.056-.192c-.163-.56.16-1.146.722-1.307.56-.16 1.146.162 1.308.722zM416.553 478.18l.057.19c.165.563-.156 1.152-.72 1.317s-1.15-.156-1.316-.72l-.056-.192c-.165-.562.158-1.15.72-1.315.562-.164 1.15.157 1.315.72zM418.307 484.12l.057.19c.167.562-.152 1.153-.715 1.32s-1.153-.153-1.32-.715l-.058-.19c-.167-.563.153-1.154.715-1.32.562-.168 1.153.152 1.32.714zM420.082 490.054l.058.19c.17.562-.148 1.152-.71 1.32s-1.15-.146-1.32-.707l-.057-.19c-.17-.562.147-1.153.708-1.322s1.152.148 1.322.71zM421.88 495.98l.06.19c.17.56-.145 1.15-.703 1.322-.56.17-1.15-.144-1.32-.702l-.06-.19c-.17-.56.144-1.15.702-1.322s1.15.144 1.32.702zM423.7 501.897l.06.19c.173.558-.14 1.15-.696 1.322-.558.172-1.15-.14-1.322-.697l-.06-.19c-.173-.558.14-1.15.696-1.322.558-.173 1.15.14 1.322.697zM425.544 507.807l.06.187c.174.556-.136 1.147-.69 1.322s-1.15-.134-1.323-.69l-.058-.186c-.175-.556.134-1.147.69-1.322.554-.177 1.147.133 1.322.69zM427.408 513.705l.06.187c.177.555-.13 1.146-.684 1.323-.555.177-1.146-.13-1.323-.684l-.06-.186c-.176-.554.13-1.146.685-1.323s1.146.13 1.323.685zM429.297 519.598l.06.187c.18.553-.125 1.146-.678 1.323-.554.18-1.147-.124-1.324-.677l-.06-.186c-.18-.553.124-1.146.677-1.324.55-.18 1.144.125 1.324.678zM431.207 525.483l.06.187c.182.552-.12 1.145-.67 1.324-.552.18-1.145-.12-1.325-.67l-.06-.188c-.182-.552.12-1.145.67-1.325.552-.178 1.144.122 1.325.673zM433.14 531.363l.062.187c.182.55-.116 1.143-.666 1.324-.55.183-1.143-.115-1.324-.665l-.062-.188c-.183-.55.115-1.143.665-1.325.55-.18 1.142.115 1.325.666zM435.095 537.236l.062.187c.184.548-.11 1.142-.66 1.325-.548.184-1.14-.11-1.324-.66l-.062-.187c-.184-.547.11-1.14.66-1.324.547-.183 1.14.112 1.325.66zM437.072 543.102l.063.188c.186.547-.107 1.14-.654 1.325-.545.186-1.14-.106-1.324-.653l-.063-.187c-.186-.547.106-1.14.653-1.326s1.14.105 1.326.652zM439.072 548.96l.063.19c.188.544-.103 1.138-.647 1.324-.545.188-1.14-.103-1.326-.647l-.064-.187c-.188-.545.103-1.14.647-1.326s1.14.102 1.327.647zM441.093 554.813l.065.188c.188.544-.1 1.138-.643 1.327-.543.188-1.137-.1-1.325-.642l-.065-.188c-.19-.543.098-1.137.642-1.326.543-.188 1.137.1 1.326.643zM443.137 560.66l.065.186c.19.542-.095 1.136-.637 1.327-.542.19-1.136-.094-1.326-.636l-.066-.188c-.19-.543.094-1.137.636-1.327.542-.19 1.135.094 1.327.636zM445.2 566.497l.067.188c.192.54-.09 1.134-.63 1.326-.54.193-1.135-.088-1.327-.63l-.066-.186c-.192-.54.09-1.135.63-1.327s1.134.09 1.327.63zM447.287 572.328l.067.188c.194.54-.085 1.133-.624 1.327-.54.193-1.133-.086-1.327-.624l-.067-.19c-.194-.538.085-1.132.624-1.326s1.133.085 1.327.624zM449.396 578.152l.067.188c.196.537-.08 1.13-.618 1.326-.537.196-1.132-.08-1.327-.618l-.068-.187c-.195-.536.08-1.13.618-1.326.536-.196 1.13.08 1.328.618zM451.524 583.97l.068.187c.197.535-.077 1.13-.612 1.327-.536.197-1.13-.077-1.327-.612l-.07-.188c-.196-.535.078-1.13.613-1.327.536-.2 1.13.076 1.328.612zM453.675 589.777l.07.188c.198.534-.074 1.13-.608 1.327-.534.2-1.128-.072-1.327-.606l-.07-.188c-.198-.533.073-1.128.607-1.327s1.128.073 1.328.607zM455.846 595.578l.07.188c.2.532-.07 1.127-.602 1.327s-1.127-.068-1.327-.6l-.07-.19c-.2-.53.068-1.126.6-1.327.533-.2 1.128.07 1.33.602zM458.04 601.375l.052.14c.202.53-.064 1.126-.596 1.328-.53.2-1.125-.064-1.327-.596l-.054-.14c-.202-.53.063-1.126.595-1.328s1.126.064 1.33.595zM460.235 607.118l.054.14c.203.53-.062 1.124-.59 1.327-.53.204-1.124-.06-1.328-.59l-.054-.14c-.204-.53.06-1.123.59-1.327s1.123.06 1.327.59zM462.453 612.854l.055.14c.205.527-.057 1.122-.585 1.327-.527.206-1.12-.055-1.327-.583l-.054-.14c-.206-.527.056-1.122.583-1.327.527-.207 1.122.054 1.328.584zM464.69 618.58l.056.14c.207.526-.052 1.12-.578 1.328-.526.206-1.12-.052-1.327-.578l-.054-.14c-.208-.526.05-1.12.577-1.328s1.12.052 1.328.578zM466.95 624.3l.056.14c.21.525-.048 1.12-.572 1.327-.525.21-1.12-.047-1.327-.572l-.056-.14c-.208-.524.048-1.12.573-1.327.524-.21 1.118.046 1.327.572zM469.23 630.012l.056.14c.21.522-.044 1.117-.566 1.327-.523.208-1.117-.045-1.327-.567l-.057-.14c-.21-.523.044-1.118.566-1.328.524-.21 1.118.042 1.328.567zM471.53 635.715l.058.14c.212.52-.04 1.115-.562 1.327-.52.21-1.115-.04-1.327-.562l-.058-.14c-.21-.52.04-1.115.56-1.327s1.117.04 1.33.562zM473.854 641.41l.057.14c.214.52-.034 1.113-.555 1.326-.52.213-1.113-.035-1.326-.555l-.06-.14c-.212-.52.036-1.113.556-1.327.52-.212 1.114.036 1.328.556zM476.196 647.096l.058.14c.215.52-.032 1.112-.55 1.327-.52.214-1.112-.03-1.327-.55l-.058-.14c-.216-.518.03-1.11.548-1.326.52-.216 1.112.03 1.328.55zM478.56 652.773l.06.14c.215.517-.028 1.11-.545 1.327-.517.216-1.11-.027-1.327-.544l-.058-.14c-.217-.516.026-1.11.543-1.326s1.11.027 1.327.543zM480.945 658.443l.06.14c.217.515-.024 1.108-.54 1.326-.515.217-1.108-.023-1.326-.54l-.06-.138c-.218-.515.022-1.11.537-1.327.516-.217 1.11.023 1.328.538zM483.35 664.1l.06.14c.22.513-.02 1.106-.533 1.325-.513.22-1.106-.018-1.326-.53l-.06-.14c-.22-.514.02-1.107.532-1.327.513-.22 1.107.018 1.328.532zM485.774 669.746l.06.14c.222.51-.015 1.104-.526 1.326-.512.22-1.104-.015-1.326-.526l-.06-.14c-.222-.51.014-1.104.525-1.326.512-.22 1.106.014 1.327.526zM488.222 675.384l.06.14c.223.51-.01 1.103-.52 1.325-.51.222-1.103-.01-1.325-.52l-.06-.14c-.224-.51.01-1.104.52-1.327.507-.222 1.1.01 1.325.52zM490.69 681.013l.06.14c.225.507-.006 1.1-.515 1.325-.508.224-1.102-.006-1.325-.515l-.062-.138c-.224-.51.006-1.103.515-1.327.508-.225 1.102.006 1.326.515zM493.18 686.632l.06.14c.228.506 0 1.1-.508 1.324-.506.227-1.1 0-1.325-.508l-.062-.14c-.226-.505 0-1.1.508-1.325.506-.226 1.1.002 1.327.51zM495.69 692.242l.062.138c.228.505.003 1.1-.502 1.325-.506.228-1.1.003-1.326-.502l-.062-.138c-.228-.505-.003-1.1.502-1.326s1.1-.004 1.326.502zM498.224 697.842l.062.138c.23.503.006 1.097-.497 1.325-.504.23-1.098.007-1.326-.496l-.062-.14c-.23-.502-.007-1.096.496-1.325.502-.23 1.096-.007 1.326.497zM500.775 703.434l.062.138c.23.5.01 1.09-.49 1.32s-1.09.012-1.32-.49l-.062-.136c-.23-.5-.013-1.092.486-1.322s1.092-.014 1.323.486l.002.004zM503.344 709.017l.063.138c.23.494.013 1.08-.48 1.31-.495.227-1.08.016-1.307-.48l-.064-.137c-.23-.493-.018-1.08.476-1.31.494-.23 1.08-.02 1.31.475l.002.004zM505.936 714.59l.063.138c.228.488.016 1.07-.473 1.297s-1.066.02-1.295-.468l-.064-.137c-.23-.488-.02-1.07.466-1.3.487-.23 1.07-.02 1.3.466l.002.004zM508.55 720.153l.063.138c.228.483.02 1.06-.462 1.286s-1.055.024-1.282-.458l-.065-.137c-.23-.48-.025-1.058.456-1.287s1.058-.025 1.287.456l.002.003zM511.185 725.706l.065.137c.227.477.024 1.047-.452 1.274-.477.227-1.045.028-1.272-.448l-.065-.138c-.228-.476-.028-1.047.447-1.276.476-.23 1.047-.03 1.276.446l.002.004zM513.843 731.248l.065.137c.227.47.03 1.035-.44 1.263-.472.227-1.035.032-1.262-.438l-.066-.137c-.23-.47-.033-1.035.437-1.265.47-.23 1.036-.033 1.265.437v.003zM516.523 736.78l.066.136c.225.464.03 1.024-.433 1.25-.465.227-1.023.037-1.25-.428l-.066-.137c-.228-.463-.036-1.023.428-1.252.464-.228 1.024-.037 1.253.427l.003.004zM519.227 742.3l.067.136c.226.46.036 1.014-.422 1.24-.46.225-1.012.04-1.237-.42l-.068-.136c-.228-.458-.04-1.014.417-1.24.458-.23 1.015-.042 1.242.416v.003zM521.953 747.808l.068.136c.226.453.04 1.003-.412 1.228-.452.226-1 .044-1.226-.408l-.068-.136c-.227-.452-.044-1.003.408-1.23.45-.227 1.002-.044 1.23.408v.002zM524.703 753.305l.068.136c.226.448.046.992-.4 1.217s-.99.048-1.216-.4l-.068-.134c-.227-.446-.05-.992.397-1.22.446-.225.992-.047 1.22.4v.002zM527.477 758.79l.07.136c.223.44.047.98-.395 1.204s-.98.052-1.202-.39l-.07-.135c-.226-.44-.052-.98.39-1.207.44-.226.98-.052 1.205.39l.002.002zM530.273 764.264l.07.135c.223.435.05.97-.385 1.19-.435.225-.967.057-1.19-.38l-.07-.134c-.225-.435-.056-.97.38-1.194s.97-.056 1.193.38l.003.002zM533.095 769.725l.07.135c.222.43.055.958-.375 1.18-.43.224-.956.06-1.18-.37l-.07-.134c-.224-.43-.06-.958.37-1.183s.958-.06 1.183.37l.002.002zM535.94 775.174l.07.135c.22.422.058.945-.366 1.167-.423.223-.944.062-1.167-.36l-.07-.135c-.225-.423-.063-.947.36-1.17s.945-.063 1.17.358l.002.004zM538.808 780.61l.07.134c.223.417.063.936-.354 1.156-.417.222-.934.065-1.154-.352l-.072-.134c-.223-.417-.066-.936.35-1.16.418-.222.937-.065 1.16.352v.003zM541.7 786.032l.073.134c.22.412.065.925-.346 1.146-.412.22-.923.068-1.144-.343l-.072-.135c-.222-.41-.068-.924.342-1.146.41-.224.925-.07 1.146.34l.003.002zM544.62 791.442l.072.134c.22.405.07.912-.337 1.133-.406.22-.91.07-1.13-.335l-.074-.133c-.22-.405-.072-.913.333-1.135s.913-.073 1.135.332v.002zM547.562 796.838l.073.134c.22.4.073.9-.327 1.12-.4.22-.9.076-1.12-.324l-.072-.133c-.222-.398-.077-.9.322-1.122.4-.222.9-.077 1.123.322l.002.003zM550.53 802.22l.075.133c.218.395.075.89-.318 1.11-.395.217-.89.078-1.107-.316l-.074-.132c-.22-.394-.08-.89.313-1.11.393-.22.89-.08 1.11.312v.004zM553.526 807.588l.073.133c.217.39.08.88-.31 1.097-.388.218-.877.083-1.095-.306l-.075-.13c-.22-.39-.083-.88.305-1.1.388-.22.88-.083 1.1.305v.003zM556.546 812.94l.075.133c.218.382.083.867-.3 1.084-.382.217-.865.086-1.082-.297l-.075-.132c-.22-.38-.087-.867.295-1.086s.868-.086 1.087.296v.003zM559.588 818.282l.075.13c.214.375.083.852-.29 1.065-.372.212-.846.084-1.06-.285l-.077-.132c-.217-.372-.09-.85.282-1.066.372-.216.85-.09 1.066.283l.004.005zM562.655 823.608l.075.13c.21.365.087.832-.278 1.043-.362.21-.827.088-1.04-.272l-.076-.13c-.213-.364-.092-.832.27-1.046s.832-.092 1.046.27l.003.006zM565.75 828.918l.076.13c.208.356.088.813-.268 1.022-.354.207-.81.09-1.018-.263l-.077-.13c-.21-.354-.095-.812.26-1.022.354-.21.812-.095 1.023.26l.003.003zM568.87 834.213l.078.13c.205.347.09.794-.256 1-.345.203-.79.09-.996-.253l-.078-.13c-.208-.345-.097-.793.25-1 .345-.208.793-.097 1 .248l.003.005zM572.02 839.49l.078.13c.202.337.093.774-.245.977-.336.2-.77.094-.974-.24l-.08-.13c-.205-.335-.098-.773.238-.978s.774-.1.98.236l.003.004zM575.2 844.75l.077.13c.2.328.095.756-.233.955-.327.198-.753.095-.953-.23l-.078-.128c-.202-.327-.1-.756.227-.957.327-.202.756-.1.957.227l.002.003zM578.406 849.993l.078.13c.196.318.097.736-.223.932-.316.195-.732.098-.93-.22l-.08-.126c-.198-.32-.102-.738.217-.938.318-.198.737-.102.936.217l.003.003zM581.642 855.218l.08.128c.193.31.098.72-.212.912-.31.19-.715.1-.91-.21l-.08-.126c-.195-.31-.104-.72.206-.914s.72-.104.914.206l.002.004zM584.908 860.424l.08.127c.19.303.1.7-.202.89-.3.19-.696.102-.887-.196l-.082-.127c-.192-.3-.105-.7.195-.892.3-.192.7-.105.892.195l.003.004zM588.204 865.61l.08.127c.188.292.102.68-.19.867-.29.187-.678.102-.865-.188l-.083-.126c-.19-.29-.105-.68.186-.87.29-.188.68-.105.87.186v.004zM591.53 870.777l.082.126c.184.283.103.662-.18.845-.283.184-.66.104-.845-.177l-.082-.125c-.186-.282-.107-.66.175-.847.282-.187.662-.107.848.175l.003.004zM594.89 875.923l.082.126c.18.273.104.642-.17.822-.274.18-.642.104-.822-.168l-.083-.124c-.183-.273-.108-.644.165-.826.273-.182.644-.107.825.166l.002.003zM598.28 881.048l.082.125c.177.266.104.624-.16.8-.266.177-.622.105-.8-.156l-.083-.125c-.18-.264-.11-.623.154-.803.265-.18.624-.11.803.155l.002.003zM601.703 886.15l.083.124c.174.257.105.605-.15.778-.257.173-.603.106-.777-.147l-.085-.123c-.176-.256-.11-.605.146-.78.257-.176.606-.11.78.146l.003.002zM605.16 891.23l.084.123c.17.248.105.587-.143.756-.245.17-.582.106-.753-.14l-.085-.122c-.172-.247-.11-.586.137-.758s.585-.11.757.137l.002.003zM608.65 896.287l.085.122c.166.238.106.566-.133.732-.237.165-.564.107-.73-.13l-.087-.12c-.168-.24-.11-.568.128-.736.237-.168.567-.11.735.127l.002.004zM612.176 901.318l.086.12c.162.23.107.55-.123.712-.23.162-.547.108-.71-.12l-.087-.12c-.164-.23-.11-.55.118-.713s.55-.11.714.118l.002.003zM615.738 906.324l.086.12c.16.222.108.53-.113.69-.22.156-.527.106-.687-.112l-.088-.12c-.16-.22-.11-.53.11-.69.22-.16.53-.112.69.11l.003.002zM619.338 911.302l.087.12c.155.213.108.513-.105.668-.213.155-.51.108-.667-.103l-.088-.12c-.157-.212-.11-.512.102-.67s.513-.11.67.102v.002zM622.975 916.252l.088.12c.152.204.108.495-.097.646s-.494.11-.646-.095l-.09-.117c-.152-.205-.11-.496.095-.65.204-.152.495-.11.648.094l.002.002zM626.65 921.174l.09.117c.147.2.107.48-.09.628s-.477.11-.625-.086l-.09-.117c-.15-.197-.112-.48.085-.628.196-.15.48-.112.628.084l.002.004zM630.366 926.064l.09.116c.145.19.108.462-.08.606s-.46.11-.606-.078l-.09-.116c-.146-.188-.112-.46.077-.607.188-.146.46-.112.607.077l.002.002zM634.123 930.924l.09.115c.14.18.108.442-.073.584-.18.142-.442.11-.584-.07l-.09-.114c-.144-.182-.112-.444.068-.587.18-.144.443-.112.587.068l.003.004zM637.92 935.75l.092.113c.138.174.108.427-.065.564-.173.138-.425.11-.562-.062l-.092-.113c-.14-.174-.11-.427.062-.566.173-.14.427-.11.565.062zM641.763 940.54l.126.155c.134.166.107.41-.058.544-.166.133-.408.11-.543-.057l-.128-.155c-.135-.165-.11-.41.055-.545.166-.135.41-.11.545.055v.002zM645.685 945.336l.127.154c.13.158.108.392-.05.522s-.39.11-.52-.05l-.13-.152c-.13-.157-.11-.392.048-.523.158-.132.393-.11.524.047v.002zM649.653 950.093l.13.152c.126.15.106.375-.044.502-.15.126-.374.108-.5-.042l-.13-.15c-.13-.15-.11-.376.04-.504.15-.127.374-.108.502.04v.003zM653.67 954.808l.132.15c.123.144.106.358-.036.48s-.356.11-.48-.033l-.13-.15c-.125-.143-.11-.358.032-.48.143-.126.358-.11.483.033zM657.74 959.48l.132.148c.12.135.105.34-.03.46-.134.118-.338.106-.457-.028l-.133-.15c-.12-.133-.107-.34.027-.46.133-.118.34-.106.458.028h.002zM661.86 964.104l.135.148c.115.127.104.323-.022.438s-.322.105-.437-.02l-.135-.148c-.114-.127-.105-.323.022-.438s.323-.107.44.02zM666.038 968.68l.136.147c.11.12.103.306-.017.416s-.305.104-.415-.016l-.137-.146c-.11-.118-.104-.306.015-.416.12-.11.306-.104.418.016zM670.27 973.203l.14.145c.105.112.1.29-.012.395-.11.106-.287.104-.394-.01l-.14-.144c-.105-.112-.102-.29.01-.397.112-.106.29-.103.397.01zM674.564 977.67l.14.143c.102.104.1.27-.005.373s-.272.1-.373-.004l-.14-.143c-.104-.105-.102-.272.002-.374.103-.103.27-.102.374.003zM678.92 982.075l.14.142c.1.097.1.254.002.352-.097.096-.253.097-.35 0l-.144-.14c-.098-.098-.1-.255-.002-.353.097-.098.254-.1.353-.002zM683.34 986.416l.143.14c.093.09.096.237.006.33-.09.092-.237.096-.33.006l-.145-.14c-.093-.088-.096-.236-.007-.33s.237-.096.33-.006zM687.83 990.684l.146.137c.09.085.095.226.01.316-.083.09-.224.095-.314.01l-.146-.135c-.09-.083-.095-.225-.01-.314.083-.092.223-.096.314-.012zM692.395 994.872l.15.134c.088.08.095.217.015.306s-.217.097-.306.017l-.15-.135c-.088-.08-.096-.217-.016-.307s.218-.097.307-.016zM697.034 998.977l.15.13c.09.078.1.21.022.3-.077.087-.21.097-.298.02l-.15-.13c-.09-.077-.1-.21-.022-.3s.21-.097.298-.02zM701.752 1002.992l.153.128c.087.072.1.2.026.288s-.2.1-.287.026l-.153-.128c-.087-.072-.1-.2-.027-.288s.2-.1.29-.026zM706.552 1006.908l.156.124c.086.068.1.193.03.28-.067.084-.19.1-.277.03l-.155-.124c-.086-.068-.1-.193-.032-.28.067-.084.192-.098.28-.03zM711.438 1010.715l.16.12c.084.065.1.186.036.27-.064.085-.185.103-.27.038l-.16-.12c-.084-.065-.1-.186-.036-.27s.185-.103.27-.038zM716.415 1014.4l.162.118c.083.06.103.177.042.26-.06.083-.177.103-.26.043l-.163-.116c-.083-.06-.103-.176-.043-.26.06-.084.177-.102.26-.043zM721.488 1017.955l.165.112c.083.056.104.168.048.25-.055.082-.166.104-.248.048l-.166-.112c-.082-.056-.104-.167-.048-.25.055-.082.167-.104.25-.048zM726.662 1021.36l.17.105c.08.052.104.16.053.24s-.158.105-.24.054l-.168-.108c-.082-.05-.105-.158-.055-.24.052-.08.16-.104.24-.053zM731.942 1024.596l.173.102c.08.047.106.15.06.23-.048.08-.15.106-.23.06l-.173-.102c-.08-.047-.106-.15-.06-.23s.15-.108.23-.06zM737.334 1027.643l.176.095c.078.043.107.14.065.22-.042.078-.14.107-.22.064l-.175-.094c-.08-.043-.108-.14-.066-.22.042-.078.14-.107.22-.065zM742.84 1030.476l.18.087c.077.038.11.13.072.208-.038.078-.13.11-.208.072l-.18-.087c-.077-.037-.11-.13-.072-.208.038-.077.13-.11.208-.07zM748.465 1033.063l.184.08c.075.03.11.12.077.194-.032.076-.12.11-.195.078l-.184-.078c-.076-.033-.11-.12-.08-.196.033-.075.12-.11.197-.077zM754.21 1035.37l.188.07c.074.026.112.11.085.183-.027.074-.11.112-.184.085l-.19-.07c-.073-.026-.11-.108-.084-.183s.11-.112.184-.085zM760.074 1037.355l.19.058c.073.022.113.1.092.17-.022.073-.1.114-.17.093l-.192-.06c-.072-.02-.113-.097-.092-.17.023-.072.1-.113.172-.09zM766.05 1038.97l.194.045c.07.017.114.087.098.157-.017.07-.086.113-.156.098l-.195-.046c-.07-.016-.113-.086-.097-.156.015-.07.086-.115.157-.1zM772.123 1040.157l.198.03c.068.01.115.074.105.142-.01.067-.073.114-.142.103l-.197-.03c-.068-.01-.115-.074-.104-.142.01-.067.073-.114.14-.103zM778.276 1040.858l.2.015c.064.004.113.06.108.126-.004.063-.06.113-.126.108l-.2-.014c-.064-.004-.113-.06-.11-.126.006-.065.063-.114.128-.11zM784.464 1041.013l.204-.005c.062-.002.113.047.115.11.002.06-.047.112-.11.113l-.203.006c-.062.002-.114-.047-.115-.108-.002-.063.046-.114.11-.115zM790.64 1040.562l.198-.025c.06-.007.11.034.12.092.006.058-.035.11-.093.118l-.2.025c-.058.008-.11-.033-.12-.092-.006-.057.035-.11.094-.118z"/></g><path opacity=".4" fill="#FFF" d="M975.502 433.74c.12.44.244.877.362 1.315 68.315 28.525 108.916 64.09 108.916 102.612 0 93.646-239.902 169.832-534.78 169.832S15.217 631.312 15.217 537.667c0-38.52 40.6-74.088 108.917-102.613.118-.438.242-.875.362-1.313-71.532 29.654-110.28 65.82-110.28 103.926 0 45.73 55.804 88.675 157.13 120.918C272.497 690.773 406.972 708.5 550 708.5s277.5-17.727 378.65-49.914c101.327-32.243 157.13-75.187 157.13-120.918 0-38.105-38.746-74.27-110.278-103.927z"/></svg>