<?xml version="1.0" encoding="utf-8"?>
<!-- Generator: Adobe Illustrator 16.0.4, SVG Export Plug-In . SVG Version: 6.00 Build 0)  -->
<!DOCTYPE svg PUBLIC "-//W3C//DTD SVG 1.1//EN" "http://www.w3.org/Graphics/SVG/1.1/DTD/svg11.dtd">
<svg version="1.1" xmlns="http://www.w3.org/2000/svg" xmlns:xlink="http://www.w3.org/1999/xlink" x="0px" y="0px" width="160px"
	 height="160px" viewBox="0 0 160 160" enable-background="new 0 0 160 160" xml:space="preserve">
<g id="Layer_1">
	<path fill="#565999" d="M135.827,142.389c-0.256,0-0.512-0.098-0.707-0.293c-0.391-0.391-0.391-1.023,0-1.414
		c14.724-14.723,22.832-34.297,22.832-55.121c0-20.82-8.108-40.396-22.832-55.117C120.396,15.721,100.822,7.611,80,7.611
		c-20.82,0-40.396,8.109-55.119,22.832C10.157,45.164,2.049,64.74,2.049,85.561c0,20.824,8.108,40.398,22.832,55.121
		c0.391,0.391,0.391,1.023,0,1.414s-1.023,0.391-1.414,0C8.365,126.994,0.049,106.92,0.049,85.561
		c0-21.355,8.316-41.432,23.418-56.531C38.567,13.928,58.645,5.611,80,5.611c21.356,0,41.434,8.316,56.534,23.418
		c15.102,15.1,23.418,35.176,23.418,56.531c0,21.359-8.316,41.434-23.418,56.535C136.339,142.291,136.083,142.389,135.827,142.389z
		 M10.875,82.609c-1.658,0-3,1.344-3,3c0,1.658,1.342,3,3,3c1.656,0,3-1.342,3-3C13.875,83.953,12.531,82.609,10.875,82.609z
		 M148.916,82.609c-1.656,0-3,1.344-3,3c0,1.658,1.344,3,3,3c1.658,0,3-1.342,3-3C151.916,83.953,150.574,82.609,148.916,82.609z
		 M77,16.643c0,1.658,1.344,3,3,3c1.658,0,3-1.342,3-3c0-1.656-1.342-3-3-3C78.344,13.643,77,14.986,77,16.643z M126.684,136.537
		c1.173,1.172,3.071,1.172,4.243,0s1.173-3.07,0-4.242c-1.171-1.172-3.071-1.172-4.243,0S125.514,135.365,126.684,136.537z
		 M29.074,38.926c1.172,1.172,3.07,1.172,4.242,0s1.172-3.07,0-4.24c-1.172-1.172-3.07-1.172-4.242,0
		C27.902,35.855,27.902,37.754,29.074,38.926z M130.927,38.926c1.172-1.172,1.172-3.07,0-4.24c-1.172-1.172-3.07-1.172-4.242,0
		c-1.172,1.17-1.172,3.068,0,4.24S129.755,40.098,130.927,38.926z M33.316,136.537c1.172-1.172,1.172-3.07,0-4.242
		s-3.071-1.172-4.243,0s-1.172,3.07,0,4.242S32.145,137.709,33.316,136.537z M142.619,114.797c1.533,0.635,3.287-0.092,3.92-1.623
		c0.635-1.531-0.092-3.285-1.623-3.92c-1.529-0.635-3.285,0.094-3.92,1.623C140.361,112.41,141.09,114.162,142.619,114.797z
		 M15.086,61.967c1.531,0.635,3.285-0.092,3.92-1.623s-0.094-3.285-1.625-3.92c-1.529-0.633-3.285,0.094-3.918,1.623
		C12.828,59.58,13.555,61.334,15.086,61.967z M109.186,22.992c0.635-1.531-0.092-3.285-1.623-3.92
		c-1.531-0.633-3.285,0.092-3.92,1.623s0.092,3.287,1.625,3.92C106.797,25.25,108.551,24.523,109.186,22.992z M144.916,61.969
		c1.532-0.635,2.259-2.389,1.624-3.92s-2.388-2.258-3.921-1.623c-1.529,0.633-2.256,2.389-1.623,3.918
		C141.632,61.877,143.385,62.602,144.916,61.969z M17.381,114.795c1.531-0.633,2.258-2.387,1.625-3.918
		c-0.635-1.533-2.389-2.258-3.92-1.625c-1.531,0.635-2.258,2.389-1.624,3.92S15.85,115.43,17.381,114.795z M56.359,20.697
		c-0.635-1.531-2.389-2.258-3.92-1.625c-1.531,0.635-2.258,2.389-1.623,3.92c0.633,1.531,2.389,2.258,3.92,1.623
		S56.993,22.227,56.359,20.697z M120.64,44.971c-0.391-0.391-1.023-0.391-1.414,0L81.287,82.91
		c-0.392-0.188-0.824-0.301-1.287-0.301c-1.656,0-3,1.342-3,3c0,1.656,1.344,3,3,3c1.658,0,3-1.344,3-3
		c0-0.463-0.113-0.895-0.299-1.285l37.938-37.939C121.03,45.994,121.03,45.361,120.64,44.971z"/>
</g>
<g id="Layer_2">
</g>
</svg>
