<?xml version="1.0" encoding="utf-8"?>
<!-- Generator: Adobe Illustrator 16.0.4, SVG Export Plug-In . SVG Version: 6.00 Build 0)  -->
<!DOCTYPE svg PUBLIC "-//W3C//DTD SVG 1.1//EN" "http://www.w3.org/Graphics/SVG/1.1/DTD/svg11.dtd">
<svg version="1.1" xmlns="http://www.w3.org/2000/svg" xmlns:xlink="http://www.w3.org/1999/xlink" x="0px" y="0px" width="160px"
	 height="160px" viewBox="0 0 160 160" enable-background="new 0 0 160 160" xml:space="preserve">
<g id="Layer_1">
	<path fill="#BDA671" d="M80,1.988c43.01,0,78,34.99,78,78s-34.99,78-78,78s-78-34.99-78-78S36.99,1.988,80,1.988 M80-0.012
		c-44.183,0-80,35.817-80,80s35.817,80,80,80s80-35.817,80-80S124.183-0.012,80-0.012L80-0.012z"/>
	<g>
		<path fill="#BDA671" d="M126.454,33.545l-37.929,54.98l-54.981,37.929l37.929-54.98L126.454,33.545 M126.454,31.545
			c-0.395,0-0.791,0.116-1.135,0.354L70.337,69.827c-0.2,0.138-0.373,0.312-0.511,0.511l-37.929,54.98
			c-0.548,0.795-0.45,1.867,0.232,2.55c0.387,0.387,0.899,0.586,1.415,0.586c0.395,0,0.791-0.116,1.135-0.354l54.981-37.929
			c0.2-0.138,0.373-0.311,0.511-0.511l37.929-54.98c0.548-0.795,0.45-1.867-0.232-2.55
			C127.481,31.744,126.969,31.545,126.454,31.545L126.454,31.545z"/>
	</g>
	<circle fill="#BDA671" cx="79.999" cy="79.999" r="2.999"/>
	<path fill="#BDA671" d="M135.477,50.182c-0.02-0.036-0.04-0.049-0.061-0.045c-0.172-0.303-0.484-0.516-0.857-0.516
		c-0.552,0-0.999,0.447-0.999,1c0,0.209,0.078,0.393,0.188,0.553l-0.02,0.007C138.357,59.765,141,69.569,141,79.988
		c0,33.636-27.364,61-61,61c-10.42,0-20.232-2.634-28.819-7.261l-0.006,0.021c-0.144-0.081-0.301-0.139-0.478-0.139
		c-0.552,0-0.999,0.447-0.999,1c0,0.335,0.175,0.617,0.428,0.799c-0.015,0.012-0.033,0.025-0.03,0.027
		c8.897,4.81,19.079,7.552,29.905,7.552c34.794,0,63-28.206,63-63C143,69.197,140.265,59.056,135.477,50.182z"/>
	<path fill="#BDA671" d="M109.649,24.47c-0.001-0.02,0.005-0.04-0.024-0.056c-8.831-4.727-18.908-7.426-29.625-7.426
		c-34.794,0-63,28.206-63,63c0,10.789,2.73,20.935,7.514,29.811c0.005,0.01,0.012,0.003,0.018,0.009
		c0.169,0.312,0.488,0.532,0.869,0.532c0.553,0,1-0.447,1-1c0-0.197-0.072-0.371-0.17-0.525l0.041-0.002
		C21.641,100.223,19,90.411,19,79.988c0-33.636,27.364-61,61-61c10.399,0,20.185,2.634,28.757,7.248
		c0.02,0.009,0.036,0.021,0.055,0.028c0,0.001,0.001,0.001,0.001,0.001c0.115,0.046,0.239,0.074,0.37,0.074c0.553,0,1-0.447,1-1
		C110.184,24.958,109.963,24.639,109.649,24.47z"/>
</g>
<g id="Layer_2">
</g>
</svg>
