<svg xmlns="http://www.w3.org/2000/svg" width="160" height="160" viewBox="0 0 160 160"><g fill="#DE4F4F"><path d="M159.707.293c-.39-.39-1.023-.39-1.414 0L81.286 77.3c-.392-.188-.824-.3-1.287-.3-1.657 0-3 1.34-3 3 0 1.655 1.343 3 3 3s3-1.345 3-3c0-.464-.114-.897-.3-1.287l77.007-77.006c.39-.39.39-1.023 0-1.414z"/><path d="M107.525 65.787c-.013-.032-.03-.06-.045-.092-.014-.025-.024-.053-.038-.078l-.01.007c-.177-.284-.477-.483-.836-.483-.552 0-1 .448-1 1 0 .2.072.372.17.527l-.03.02C107.813 70.677 109 75.2 109 80c0 15.99-13.01 29-29 29S51 95.99 51 80s13.01-29 29-29c4.842 0 9.4 1.208 13.417 3.315l.006-.01c.13.06.27.1.424.1.553 0 1-.446 1-1 0-.368-.21-.677-.506-.85l.01-.017C90.058 50.29 85.183 49 80 49c-17.12 0-31 13.88-31 31s13.88 31 31 31 31-13.88 31-31c0-5.13-1.268-9.953-3.475-14.213z"/><path d="M119.206 54.113c-.006-.015-.018-.024-.024-.038-.034-.052-.066-.106-.102-.158l-.004.002c-.182-.25-.46-.42-.792-.42-.552 0-1 .447-1 1 0 .17.054.323.13.464l-.042.025C122.18 62.147 125 70.746 125 80c0 24.813-20.187 45-45 45s-45-20.187-45-45 20.187-45 45-45c9.23 0 17.807 2.806 24.954 7.59l.03-.042c.16.108.342.187.55.187.553 0 1-.447 1-1 0-.42-.26-.776-.626-.925C98.478 35.887 89.58 33 80 33c-25.957 0-47 21.043-47 47s21.043 47 47 47 47-21.043 47-47c0-9.57-2.88-18.46-7.794-25.887z"/><path d="M130.568 42.468l-.022.014c-.18-.273-.473-.466-.824-.466-.552 0-1 .447-1 1 0 .19.068.36.16.51l-.03.02C136.467 53.727 141 66.34 141 80c0 33.636-27.364 61-61 61s-61-27.364-61-61 27.364-61 61-61c13.628 0 26.212 4.51 36.378 12.094l.035-.042c.167.126.364.214.59.214.553 0 1-.447 1-1 0-.312-.15-.578-.372-.76C107.128 21.663 94.115 17 80 17c-34.794 0-63 28.206-63 63s28.206 63 63 63 63-28.206 63-63c0-14.07-4.635-27.047-12.432-37.532z"/><path d="M142.66 30.295l-.02.016c-.183-.247-.462-.42-.794-.42-.552 0-1 .448-1 1 0 .23.09.432.22.6l-.036.028C151.637 44.842 158 61.688 158 80c0 43.01-34.99 78-78 78S2 123.01 2 80 36.99 2 80 2c18.32 0 35.17 6.366 48.493 16.98l.038-.047c.166.122.36.208.582.208.553 0 1-.446 1-1 0-.29-.127-.545-.324-.728l.003-.004C116.127 6.522 98.83 0 80 0 35.817 0 0 35.817 0 80s35.817 80 80 80 80-35.817 80-80c0-18.79-6.495-36.053-17.34-49.705z"/><path d="M95.858 77.94h-.02c0-.017.01-.032.01-.05 0-.553-.448-1-1-1-.553 0-1 .447-1 1 0 .036.017.067.02.103h-.035c.1.658.167 1.324.167 2.007 0 7.72-6.28 14-14 14s-14-6.28-14-14 6.28-14 14-14c.72 0 1.42.073 2.11.182l.002-.025c.553 0 1-.447 1-1 0-.496-.366-.89-.84-.968v-.014c-.05-.008-.1-.01-.15-.018l-.01-.002h-.003C81.42 64.062 80.716 64 80 64c-8.836 0-16 7.164-16 16s7.164 16 16 16 16-7.164 16-16c0-.7-.05-1.386-.142-2.06z"/></g></svg>