<?xml version="1.0" encoding="utf-8"?>
<!-- Generator: Adobe Illustrator 16.0.4, SVG Export Plug-In . SVG Version: 6.00 Build 0)  -->
<!DOCTYPE svg PUBLIC "-//W3C//DTD SVG 1.1//EN" "http://www.w3.org/Graphics/SVG/1.1/DTD/svg11.dtd">
<svg version="1.1" xmlns="http://www.w3.org/2000/svg" xmlns:xlink="http://www.w3.org/1999/xlink" x="0px" y="0px" width="160px"
	 height="160px" viewBox="0 0 160 160" enable-background="new 0 0 160 160" xml:space="preserve">
<g id="Layer_1">
	<g>
		<circle fill="#BDA671" cx="80.001" cy="80" r="3"/>
		<path fill="#BDA671" d="M75.731,85.723c0.192-0.183,0.315-0.437,0.315-0.723c0-0.553-0.447-1-1-1c-0.278,0-0.528,0.114-0.71,0.297
			l-0.004-0.004l-50.899,50.875l0,0c-0.181,0.181-0.292,0.431-0.292,0.707c-0.001,0.553,0.446,1,0.999,1
			c0.276,0,0.526-0.112,0.708-0.293l0,0L75.731,85.723z"/>
		<path fill="#BDA671" d="M84.235,74.401L84.235,74.401c-0.181,0.182-0.292,0.432-0.292,0.708c-0.001,0.553,0.446,1,0.999,1
			c0.276,0,0.526-0.112,0.708-0.293l0,0l50.87-50.891c0.204-0.183,0.339-0.441,0.339-0.738c0-0.553-0.447-1-1-1
			c-0.275,0-0.525,0.112-0.706,0.293l-0.009-0.009L84.235,74.401z"/>
		<path fill="#BDA671" d="M136.583,135.184L85.65,84.23l0,0c-0.182-0.181-0.432-0.293-0.708-0.293c-0.552,0-0.999,0.447-0.999,1
			c0,0.278,0.113,0.528,0.296,0.71l50.928,50.949c0.181,0.182,0.431,0.294,0.708,0.294c0.553,0,1-0.447,1-1
			C136.875,135.614,136.764,135.365,136.583,135.184L136.583,135.184z"/>
		<path fill="#BDA671" d="M111.189,152.602l-0.002-0.005c0-0.001-0.001-0.002-0.002-0.004L83.633,86.086l-0.002,0.001
			c-0.15-0.363-0.506-0.618-0.923-0.618c-0.552,0-0.999,0.447-0.999,1c0,0.136,0.027,0.264,0.076,0.382l0,0v0.001
			c0.002,0.004,0.004,0.008,0.005,0.012l27.552,66.504l0.001-0.001c0.15,0.363,0.506,0.618,0.923,0.618c0.553,0,1-0.447,1-1
			C111.266,152.849,111.237,152.72,111.189,152.602L111.189,152.602z"/>
		<path fill="#BDA671" d="M48.873,7.384l27.562,66.547l0.002-0.001c0.149,0.362,0.505,0.617,0.922,0.617c0.553,0,1-0.447,1-1
			c0-0.136-0.028-0.264-0.077-0.382l0.003-0.001L50.721,6.617H50.72C50.569,6.255,50.214,6,49.797,6c-0.552,0-0.999,0.447-0.999,1
			c0,0.136,0.028,0.265,0.077,0.383L48.873,7.384z"/>
		<path fill="#BDA671" d="M152.55,48.844c-0.001,0-0.001,0.001-0.002,0.001L86.092,76.421c-0.361,0.15-0.617,0.506-0.617,0.923
			c-0.001,0.553,0.446,1,0.999,1c0.136,0,0.266-0.028,0.384-0.077v0.001l66.463-27.578v-0.001c0.362-0.15,0.617-0.506,0.617-0.923
			c0-0.553-0.447-1-1-1c-0.136,0-0.265,0.028-0.383,0.077v-0.001L152.55,48.844z"/>
		<path fill="#BDA671" d="M7.409,111.136c0.001,0,0.002-0.001,0.003-0.001l66.492-27.539v-0.001c0.361-0.15,0.616-0.506,0.616-0.923
			c0-0.553-0.447-1-1-1c-0.136,0-0.264,0.028-0.382,0.077v-0.001l-0.004,0.002c-0.002,0.001-0.004,0.001-0.006,0.002L6.639,109.29
			v0.001c-0.361,0.15-0.616,0.506-0.616,0.923c-0.001,0.553,0.446,1,0.999,1c0.136,0,0.265-0.028,0.383-0.077v0.001L7.409,111.136z"
			/>
		<path fill="#BDA671" d="M159,79l-72,0.001c-0.552,0-0.999,0.447-0.999,1c-0.001,0.553,0.446,1,0.999,1L159,81c0.553,0,1-0.447,1-1
			S159.553,79,159,79z"/>
		<path fill="#BDA671" d="M23.435,24.849l50.897,50.898l0.008-0.008c0.182,0.181,0.431,0.292,0.707,0.292c0.553,0,1-0.447,1-1
			c0-0.297-0.135-0.556-0.339-0.738L24.849,23.434l0,0c-0.182-0.181-0.432-0.293-0.708-0.293c-0.552,0-0.999,0.447-0.999,1
			C23.141,24.417,23.253,24.668,23.435,24.849z"/>
		<path fill="#BDA671" d="M6.618,50.657l-0.001,0.002L73.128,78.2c0.003,0,0.005,0.001,0.007,0.002l0.004,0.002v-0.001
			c0.118,0.049,0.246,0.077,0.382,0.077c0.553,0,1-0.447,1-1c0-0.417-0.255-0.772-0.617-0.923l0.001-0.002L7.391,48.813
			c-0.001,0-0.002,0-0.003-0.001l-0.005-0.002v0.001C7.265,48.763,7.136,48.734,7,48.734c-0.552,0-0.999,0.447-0.999,1
			C6,50.151,6.256,50.507,6.618,50.657z"/>
		<path fill="#BDA671" d="M153.383,109.28L153.383,109.28l-66.52-27.53l0,0l-0.006-0.002v0.001
			c-0.118-0.049-0.248-0.077-0.384-0.077c-0.552,0-0.999,0.447-0.999,1c-0.001,0.417,0.255,0.773,0.618,0.923l66.514,27.528
			c0.003,0.001,0.005,0.001,0.007,0.002l0.004,0.002v-0.001c0.118,0.049,0.246,0.077,0.382,0.077c0.553,0,1-0.447,1-1
			C153.999,109.786,153.744,109.431,153.383,109.28z"/>
		<path fill="#BDA671" d="M80,74c0.553,0,1-0.447,1-1h0.001V1H81c0-0.553-0.447-1-1-1c-0.552,0-0.999,0.447-0.999,1v72
			C79,73.553,79.447,74,80,74z"/>
		<path fill="#BDA671" d="M80,86c-0.552,0-0.999,0.447-0.999,1v72c-0.001,0.553,0.446,1,0.999,1s1-0.447,1-1h0.001V87H81
			C81,86.447,80.553,86,80,86z"/>
		<path fill="#BDA671" d="M77.359,85.469c-0.416,0-0.771,0.255-0.922,0.617h-0.001l-27.563,66.531l0.002,0.001
			c-0.049,0.117-0.077,0.246-0.077,0.382c-0.001,0.553,0.446,1,0.999,1c0.417,0,0.773-0.255,0.923-0.618l0.002,0.001L78.28,86.859
			c0-0.001,0.001-0.002,0.001-0.003l0.002-0.005h-0.001c0.049-0.118,0.077-0.247,0.077-0.383
			C78.359,85.916,77.912,85.469,77.359,85.469z"/>
		<path fill="#BDA671" d="M82.708,74.547c0.417,0,0.772-0.255,0.923-0.618l0.002,0.001l27.559-66.547l-0.003-0.001
			c0.049-0.118,0.077-0.246,0.077-0.382c0-0.553-0.447-1-1-1c-0.416,0-0.772,0.255-0.922,0.618l-0.002-0.001L81.783,73.164
			l0.003,0.001c-0.049,0.118-0.077,0.246-0.077,0.382C81.708,74.1,82.155,74.547,82.708,74.547z"/>
		<path fill="#BDA671" d="M74.001,80.001c0-0.553-0.447-1-1-1L1,79c-0.552,0-0.999,0.447-0.999,1C0,80.553,0.447,81,1,81
			l72.001,0.001C73.554,81.001,74.001,80.554,74.001,80.001z"/>
	</g>
</g>
<g id="Layer_2">
</g>
</svg>
