<?xml version="1.0" encoding="utf-8"?>
<!-- Generator: Adobe Illustrator 16.0.4, SVG Export Plug-In . SVG Version: 6.00 Build 0)  -->
<!DOCTYPE svg PUBLIC "-//W3C//DTD SVG 1.1//EN" "http://www.w3.org/Graphics/SVG/1.1/DTD/svg11.dtd">
<svg version="1.1" xmlns="http://www.w3.org/2000/svg" xmlns:xlink="http://www.w3.org/1999/xlink" x="0px" y="0px" width="160px"
	 height="160px" viewBox="0 0 160 160" enable-background="new 0 0 160 160" xml:space="preserve">
<g id="Layer_1">
	<g>
		<path fill="#2CA699" d="M60.025,17.72c7.396,0,14.914,1.424,22.172,4.43c29.594,12.258,43.648,46.188,31.389,75.781
			c-9.25,22.334-30.842,35.812-53.6,35.812c-4.693,0-9.436-0.574-14.131-1.76l-13.416,10.295l-2.207-16.768
			C5.908,111.003-4.74,80.479,6.418,53.538C15.67,31.204,37.266,17.72,60.025,17.72 M60.025,15.72
			c-24.363,0-46.131,14.545-55.455,37.053C-0.977,66.167-1.49,81.101,3.123,94.825c4.465,13.277,13.414,24.57,25.252,31.896
			l2.082,15.818c0.092,0.709,0.557,1.312,1.217,1.586c0.246,0.104,0.506,0.152,0.766,0.152c0.434,0,0.861-0.141,1.217-0.412
			l12.656-9.713c4.482,1.055,9.076,1.59,13.674,1.59c24.361,0,46.127-14.543,55.447-37.047c6.135-14.807,6.135-31.115,0.002-45.922
			c-6.135-14.807-17.666-26.34-32.473-32.473C75.623,17.261,67.904,15.72,60.025,15.72L60.025,15.72z"/>
	</g>
	<path fill="#2CA699" stroke="#384B70" stroke-width="2" stroke-miterlimit="10" d="M67.365,23.507"/>
	<path fill="#2CA699" d="M92.691,133.901c0.164-0.444,0.613-0.683,1.064-0.624l0.004-0.024c5.18,0.558,10.342,0.395,15.365-0.414
		v2.035c-5.131,0.796-10.402,0.942-15.691,0.357l0.002-0.019c-0.051-0.012-0.105-0.007-0.158-0.025
		C92.76,134.994,92.496,134.419,92.691,133.901z"/>
	<g>
		<path fill="#2CA699" d="M100.877,133.603c4.41-0.065,8.861-0.633,13.268-1.746l13.416,10.295l2.207-16.768
			c24.324-14.506,34.975-45.031,23.814-71.971c-9.248-22.33-30.832-35.811-53.584-35.82v0.021c-2.072-0.003-4.154,0.095-6.238,0.319
			l-0.004-0.024c-0.451,0.059-0.9-0.18-1.064-0.624c-0.195-0.518,0.068-1.093,0.586-1.286c0.053-0.019,0.107-0.014,0.158-0.025
			l-0.002-0.019c2.189-0.242,4.377-0.349,6.553-0.35v-0.012c24.359,0.005,46.121,14.546,55.443,37.055
			c5.549,13.393,6.062,28.326,1.447,42.051c-4.465,13.279-13.414,24.57-25.252,31.896l-2.082,15.818
			c-0.092,0.709-0.557,1.312-1.217,1.586c-0.246,0.104-0.506,0.152-0.766,0.152c-0.434,0-0.861-0.141-1.217-0.412l-12.656-9.713
			c-4.201,0.988-8.502,1.502-12.811,1.564V133.603z"/>
	</g>
	<circle fill="#2CA699" cx="60.019" cy="77" r="3.001"/>
	<circle fill="#2CA699" cx="76.018" cy="77" r="3"/>
	<circle fill="#2CA699" cx="44.019" cy="77" r="3.001"/>
</g>
<g id="Layer_2">
</g>
</svg>
