<?xml version="1.0" encoding="utf-8"?>
<!-- Generator: Adobe Illustrator 16.0.4, SVG Export Plug-In . SVG Version: 6.00 Build 0)  -->
<!DOCTYPE svg PUBLIC "-//W3C//DTD SVG 1.1//EN" "http://www.w3.org/Graphics/SVG/1.1/DTD/svg11.dtd">
<svg version="1.1" id="Layer_1" xmlns="http://www.w3.org/2000/svg" xmlns:xlink="http://www.w3.org/1999/xlink" x="0px" y="0px"
	 width="48px" height="48px" viewBox="0 0 48 48" enable-background="new 0 0 48 48" xml:space="preserve">
<g>
	<linearGradient id="SVGID_1_" gradientUnits="userSpaceOnUse" x1="5.8311" y1="16.4707" x2="42.1691" y2="-4.5091">
		<stop  offset="0" style="stop-color:#102B49"/>
		<stop  offset="1" style="stop-color:#2AA699"/>
	</linearGradient>
	<path fill-rule="evenodd" clip-rule="evenodd" fill="url(#SVGID_1_)" d="M1.512,7.462h44.977C47.323,7.462,48,6.799,48,5.981
		C48,5.163,47.323,4.5,46.488,4.5H1.512C0.677,4.5,0,5.163,0,5.981C0,6.799,0.677,7.462,1.512,7.462z"/>
	<linearGradient id="SVGID_2_" gradientUnits="userSpaceOnUse" x1="5.8311" y1="25.3569" x2="42.169" y2="4.3772">
		<stop  offset="0" style="stop-color:#102B49"/>
		<stop  offset="1" style="stop-color:#2AA699"/>
	</linearGradient>
	<path fill-rule="evenodd" clip-rule="evenodd" fill="url(#SVGID_2_)" d="M46.488,13.386H1.512C0.677,13.386,0,14.049,0,14.867
		s0.677,1.481,1.512,1.481h44.977c0.835,0,1.512-0.663,1.512-1.481S47.323,13.386,46.488,13.386z"/>
	<linearGradient id="SVGID_3_" gradientUnits="userSpaceOnUse" x1="5.8306" y1="34.7363" x2="42.1685" y2="13.7566">
		<stop  offset="0" style="stop-color:#102B49"/>
		<stop  offset="1" style="stop-color:#2AA699"/>
	</linearGradient>
	<path fill-rule="evenodd" clip-rule="evenodd" fill="url(#SVGID_3_)" d="M46.488,22.766H1.512C0.677,22.766,0,23.429,0,24.247
		s0.677,1.481,1.512,1.481h44.977c0.835,0,1.512-0.663,1.512-1.481S47.323,22.766,46.488,22.766z"/>
	<linearGradient id="SVGID_4_" gradientUnits="userSpaceOnUse" x1="5.8306" y1="43.6221" x2="42.1686" y2="22.6423">
		<stop  offset="0" style="stop-color:#102B49"/>
		<stop  offset="1" style="stop-color:#2AA699"/>
	</linearGradient>
	<path fill-rule="evenodd" clip-rule="evenodd" fill="url(#SVGID_4_)" d="M46.488,31.652H1.512C0.677,31.652,0,32.315,0,33.133
		c0,0.818,0.677,1.48,1.512,1.48h44.977c0.835,0,1.512-0.663,1.512-1.48C48,32.315,47.323,31.652,46.488,31.652z"/>
	<linearGradient id="SVGID_5_" gradientUnits="userSpaceOnUse" x1="5.8311" y1="52.5093" x2="42.169" y2="31.5295">
		<stop  offset="0" style="stop-color:#102B49"/>
		<stop  offset="1" style="stop-color:#2AA699"/>
	</linearGradient>
	<path fill-rule="evenodd" clip-rule="evenodd" fill="url(#SVGID_5_)" d="M46.488,40.538H1.512C0.677,40.538,0,41.201,0,42.019
		S0.677,43.5,1.512,43.5h44.977c0.835,0,1.512-0.663,1.512-1.481S47.323,40.538,46.488,40.538z"/>
</g>
</svg>
